WorkSans-Medium.ufo
<glyph name="exclam" format="2">
  <advance width="281"/>
  <unicode hex="0021"/>
  <outline>
    <contour>
      <point x="84" y="660" type="line"/>
      <point x="84" y="396" type="line"/>
      <point x="98" y="210" type="line"/>
      <point x="182" y="210" type="line"/>
      <point x="196" y="396" type="line"/>
      <point x="196" y="660" type="line"/>
    </contour>
    <contour>
      <point x="66" y="61" type="curve" smooth="yes"/>
      <point x="66" y="18"/>
      <point x="95" y="-9"/>
      <point x="140" y="-9" type="curve" smooth="yes"/>
      <point x="186" y="-9"/>
      <point x="215" y="18"/>
      <point x="215" y="61" type="curve" smooth="yes"/>
      <point x="215" y="104"/>
      <point x="186" y="132"/>
      <point x="140" y="132" type="curve" smooth="yes"/>
      <point x="95" y="132"/>
      <point x="66" y="104"/>
    </contour>
  </outline>
</glyph>
<glyph name="dollar" format="2">
  <advance width="622"/>
  <unicode hex="0024"/>
  <outline>
    <contour>
      <point x="356" y="-96" type="line"/>
      <point x="356" y="1" type="line"/>
      <point x="484" y="12"/>
      <point x="570" y="80"/>
      <point x="570" y="186" type="curve" smooth="yes"/>
      <point x="570" y="311"/>
      <point x="461" y="342"/>
      <point x="356" y="364" type="curve"/>
      <point x="356" y="575" type="line"/>
      <point x="425" y="567"/>
      <point x="466" y="533"/>
      <point x="500" y="461" type="curve"/>
      <point x="571" y="526" type="line"/>
      <point x="523" y="605"/>
      <point x="463" y="650"/>
      <point x="356" y="658" type="curve"/>
      <point x="356" y="756" type="line"/>
      <point x="279" y="756" type="line"/>
      <point x="279" y="659" type="line"/>
      <point x="144" y="647"/>
      <point x="65" y="567"/>
      <point x="65" y="466" type="curve" smooth="yes"/>
      <point x="65" y="343"/>
      <point x="174" y="314"/>
      <point x="279" y="292" type="curve"/>
      <point x="279" y="84" type="line"/>
      <point x="203" y="97"/>
      <point x="137" y="144"/>
      <point x="118" y="214" type="curve"/>
      <point x="41" y="158" type="line"/>
      <point x="81" y="65"/>
      <point x="160" y="11"/>
      <point x="279" y="1" type="curve"/>
      <point x="279" y="-96" type="line"/>
    </contour>
    <contour>
      <point x="356" y="275" type="line"/>
      <point x="420" y="259"/>
      <point x="471" y="237"/>
      <point x="471" y="179" type="curve" smooth="yes"/>
      <point x="471" y="119"/>
      <point x="427" y="90"/>
      <point x="356" y="83" type="curve"/>
    </contour>
    <contour>
      <point x="165" y="473" type="curve" smooth="yes"/>
      <point x="165" y="530"/>
      <point x="204" y="567"/>
      <point x="279" y="575" type="curve"/>
      <point x="279" y="380" type="line"/>
      <point x="215" y="395"/>
      <point x="165" y="417"/>
    </contour>
  </outline>
</glyph>
<glyph name="percent" format="2">
  <advance width="880"/>
  <unicode hex="0025"/>
  <outline>
    <contour>
      <point x="509" y="174" type="curve" smooth="yes"/>
      <point x="509" y="63"/>
      <point x="575" y="-10"/>
      <point x="676" y="-10" type="curve" smooth="yes"/>
      <point x="778" y="-10"/>
      <point x="843" y="63"/>
      <point x="843" y="174" type="curve" smooth="yes"/>
      <point x="843" y="285"/>
      <point x="778" y="358"/>
      <point x="676" y="358" type="curve" smooth="yes"/>
      <point x="575" y="358"/>
      <point x="509" y="285"/>
    </contour>
    <contour>
      <point x="37" y="486" type="curve" smooth="yes"/>
      <point x="37" y="375"/>
      <point x="103" y="302"/>
      <point x="204" y="302" type="curve" smooth="yes"/>
      <point x="306" y="302"/>
      <point x="371" y="375"/>
      <point x="371" y="486" type="curve" smooth="yes"/>
      <point x="371" y="597"/>
      <point x="306" y="670"/>
      <point x="204" y="670" type="curve" smooth="yes"/>
      <point x="103" y="670"/>
      <point x="37" y="597"/>
    </contour>
    <contour>
      <point x="284" y="486" type="curve" smooth="yes"/>
      <point x="284" y="420"/>
      <point x="256" y="381"/>
      <point x="204" y="381" type="curve" smooth="yes"/>
      <point x="153" y="381"/>
      <point x="125" y="420"/>
      <point x="125" y="486" type="curve" smooth="yes"/>
      <point x="125" y="553"/>
      <point x="153" y="592"/>
      <point x="204" y="592" type="curve" smooth="yes"/>
      <point x="256" y="592"/>
      <point x="284" y="553"/>
    </contour>
    <contour>
      <point x="756" y="174" type="curve" smooth="yes"/>
      <point x="756" y="107"/>
      <point x="728" y="68"/>
      <point x="676" y="68" type="curve" smooth="yes"/>
      <point x="625" y="68"/>
      <point x="597" y="107"/>
      <point x="597" y="174" type="curve" smooth="yes"/>
      <point x="597" y="240"/>
      <point x="625" y="279"/>
      <point x="676" y="279" type="curve" smooth="yes"/>
      <point x="728" y="279"/>
      <point x="756" y="240"/>
    </contour>
    <contour>
      <point x="271" y="0" type="line"/>
      <point x="702" y="660" type="line"/>
      <point x="610" y="660" type="line"/>
      <point x="178" y="0" type="line"/>
    </contour>
  </outline>
</glyph>
<glyph name="ampersand" format="2">
  <advance width="630"/>
  <unicode hex="0026"/>
  <outline>
    <contour>
      <point x="480" y="91" type="curve"/>
      <point x="544" y="156"/>
      <point x="576" y="248"/>
      <point x="572" y="344" type="curve"/>
      <point x="493" y="350" type="line"/>
      <point x="498" y="261"/>
      <point x="474" y="192"/>
      <point x="432" y="141" type="curve"/>
      <point x="388" y="95"/>
      <point x="328" y="69"/>
      <point x="261" y="69" type="curve" smooth="yes"/>
      <point x="193" y="69"/>
      <point x="137" y="111"/>
      <point x="137" y="171" type="curve" smooth="yes"/>
      <point x="137" y="222"/>
      <point x="161" y="260"/>
      <point x="282" y="326" type="curve" smooth="yes"/>
      <point x="421" y="388"/>
      <point x="454" y="449"/>
      <point x="454" y="528" type="curve" smooth="yes"/>
      <point x="454" y="623"/>
      <point x="382" y="670"/>
      <point x="288" y="670" type="curve" smooth="yes"/>
      <point x="175" y="670"/>
      <point x="119" y="593"/>
      <point x="119" y="517" type="curve" smooth="yes"/>
      <point x="119" y="440"/>
      <point x="161" y="393"/>
      <point x="318" y="210" type="curve" smooth="yes"/>
      <point x="484" y="15"/>
      <point x="527" y="-10"/>
      <point x="613" y="-10" type="curve"/>
      <point x="632" y="68" type="line"/>
      <point x="557" y="65"/>
      <point x="527" y="94"/>
      <point x="381" y="270" type="curve" smooth="yes"/>
      <point x="235" y="445"/>
      <point x="215" y="469"/>
      <point x="215" y="516" type="curve" smooth="yes"/>
      <point x="215" y="556"/>
      <point x="239" y="589"/>
      <point x="288" y="589" type="curve" smooth="yes"/>
      <point x="336" y="589"/>
      <point x="364" y="568"/>
      <point x="364" y="524" type="curve" smooth="yes"/>
      <point x="364" y="477"/>
      <point x="353" y="434"/>
      <point x="241" y="379" type="curve" smooth="yes"/>
      <point x="89" y="323"/>
      <point x="41" y="248"/>
      <point x="41" y="164" type="curve" smooth="yes"/>
      <point x="41" y="60"/>
      <point x="130" y="-10"/>
      <point x="258" y="-10" type="curve" smooth="yes"/>
      <point x="355" y="-10"/>
      <point x="431" y="30"/>
    </contour>
  </outline>
</glyph>
<glyph name="quotesingle" format="2">
  <advance width="239"/>
  <unicode hex="0027"/>
  <outline>
    <contour>
      <point x="76" y="686" type="line"/>
      <point x="76" y="430" type="line"/>
      <point x="154" y="430" type="line"/>
      <point x="181" y="686" type="line"/>
    </contour>
  </outline>
</glyph>
<glyph name="parenleft" format="2">
  <advance width="362"/>
  <unicode hex="0028"/>
  <outline>
    <contour>
      <point x="63" y="278" type="curve" smooth="yes"/>
      <point x="63" y="85"/>
      <point x="138" y="-73"/>
      <point x="283" y="-190" type="curve"/>
      <point x="339" y="-134" type="line"/>
      <point x="213" y="-19"/>
      <point x="166" y="97"/>
      <point x="166" y="278" type="curve" smooth="yes"/>
      <point x="166" y="459"/>
      <point x="213" y="576"/>
      <point x="339" y="691" type="curve"/>
      <point x="283" y="747" type="line"/>
      <point x="138" y="630"/>
      <point x="63" y="472"/>
    </contour>
  </outline>
</glyph>
<glyph name="asterisk" format="2">
  <advance width="577"/>
  <unicode hex="002A"/>
  <outline>
    <contour>
      <point x="288" y="491" type="line"/>
      <point x="269" y="477" type="line"/>
      <point x="322" y="375" type="line"/>
      <point x="396" y="273" type="line"/>
      <point x="462" y="321" type="line"/>
      <point x="388" y="423" type="line"/>
      <point x="307" y="505" type="line"/>
    </contour>
    <contour>
      <point x="189" y="423" type="line"/>
      <point x="115" y="321" type="line"/>
      <point x="181" y="273" type="line"/>
      <point x="254" y="375" type="line"/>
      <point x="307" y="477" type="line"/>
      <point x="288" y="491" type="line"/>
      <point x="269" y="505" type="line"/>
    </contour>
    <contour>
      <point x="49" y="526" type="line"/>
      <point x="168" y="488" type="line"/>
      <point x="281" y="468" type="line"/>
      <point x="288" y="491" type="line"/>
      <point x="296" y="513" type="line"/>
      <point x="193" y="564" type="line"/>
      <point x="73" y="603" type="line"/>
    </contour>
    <contour>
      <point x="247" y="730" type="line"/>
      <point x="248" y="604" type="line"/>
      <point x="264" y="491" type="line"/>
      <point x="288" y="491" type="line"/>
      <point x="312" y="491" type="line"/>
      <point x="329" y="604" type="line"/>
      <point x="330" y="730" type="line"/>
    </contour>
    <contour>
      <point x="384" y="564" type="line"/>
      <point x="281" y="513" type="line"/>
      <point x="288" y="491" type="line"/>
      <point x="296" y="468" type="line"/>
      <point x="409" y="488" type="line"/>
      <point x="528" y="526" type="line"/>
      <point x="504" y="603" type="line"/>
    </contour>
  </outline>
</glyph>
<glyph name="comma" format="2">
  <advance width="273"/>
  <unicode hex="002C"/>
  <outline>
    <contour>
      <point x="60" y="61" type="curve" smooth="yes"/>
      <point x="60" y="13"/>
      <point x="95" y="-9"/>
      <point x="124" y="-9" type="curve" smooth="yes"/>
      <point x="139" y="-9"/>
      <point x="147" y="-6"/>
      <point x="152" y="-1" type="curve"/>
      <point x="157" y="-3" type="line"/>
      <point x="145" y="-47"/>
      <point x="107" y="-87"/>
      <point x="51" y="-106" type="curve"/>
      <point x="103" y="-150" type="line"/>
      <point x="184" y="-113"/>
      <point x="221" y="-43"/>
      <point x="221" y="29" type="curve" smooth="yes"/>
      <point x="221" y="90"/>
      <point x="191" y="135"/>
      <point x="136" y="135" type="curve" smooth="yes"/>
      <point x="93" y="135"/>
      <point x="60" y="104"/>
    </contour>
  </outline>
</glyph>
<glyph name="period" format="2">
  <advance width="273"/>
  <unicode hex="002E"/>
  <anchor x="61" y="63" name="_center"/>
  <outline>
    <contour>
      <point x="61" y="63" type="curve" smooth="yes"/>
      <point x="61" y="19"/>
      <point x="91" y="-10"/>
      <point x="137" y="-10" type="curve" smooth="yes"/>
      <point x="183" y="-10"/>
      <point x="212" y="19"/>
      <point x="212" y="63" type="curve" smooth="yes"/>
      <point x="212" y="107"/>
      <point x="183" y="135"/>
      <point x="137" y="135" type="curve" smooth="yes"/>
      <point x="91" y="135"/>
      <point x="61" y="107"/>
    </contour>
  </outline>
</glyph>
<glyph name="three" format="2">
  <advance width="586"/>
  <unicode hex="0033"/>
  <outline>
    <contour>
      <point x="68" y="520" type="curve"/>
      <point x="166" y="480" type="line"/>
      <point x="178" y="542"/>
      <point x="220" y="578"/>
      <point x="291" y="578" type="curve" smooth="yes"/>
      <point x="361" y="578"/>
      <point x="401" y="542"/>
      <point x="400" y="473" type="curve" smooth="yes"/>
      <point x="399" y="406"/>
      <point x="358" y="374"/>
      <point x="276" y="374" type="curve" smooth="yes"/>
      <point x="249" y="374" type="line"/>
      <point x="249" y="289" type="line"/>
      <point x="279" y="289" type="line" smooth="yes"/>
      <point x="370" y="289"/>
      <point x="414" y="264"/>
      <point x="415" y="192" type="curve" smooth="yes"/>
      <point x="416" y="127"/>
      <point x="369" y="82"/>
      <point x="287" y="82" type="curve" smooth="yes"/>
      <point x="201" y="82"/>
      <point x="163" y="124"/>
      <point x="144" y="197" type="curve"/>
      <point x="46" y="150" type="line"/>
      <point x="85" y="43"/>
      <point x="163" y="-10"/>
      <point x="283" y="-10" type="curve" smooth="yes"/>
      <point x="427" y="-10"/>
      <point x="523" y="69"/>
      <point x="523" y="178" type="curve" smooth="yes"/>
      <point x="523" y="272"/>
      <point x="459" y="332"/>
      <point x="384" y="332" type="curve"/>
      <point x="384" y="334" type="line"/>
      <point x="442" y="334"/>
      <point x="508" y="395"/>
      <point x="508" y="494" type="curve" smooth="yes"/>
      <point x="508" y="591"/>
      <point x="433" y="670"/>
      <point x="293" y="670" type="curve" smooth="yes"/>
      <point x="184" y="670"/>
      <point x="97" y="617"/>
    </contour>
  </outline>
</glyph>
<glyph name="four" format="2">
  <advance width="622"/>
  <unicode hex="0034"/>
  <outline>
    <contour>
      <point x="467" y="248" type="line"/>
      <point x="467" y="660" type="line"/>
      <point x="336" y="660" type="line"/>
      <point x="41" y="230" type="line"/>
      <point x="41" y="165" type="line"/>
      <point x="366" y="165" type="line"/>
      <point x="366" y="0" type="line"/>
      <point x="467" y="0" type="line"/>
      <point x="467" y="165" type="line"/>
      <point x="579" y="165" type="line"/>
      <point x="579" y="248" type="line"/>
    </contour>
    <contour>
      <point x="368" y="581" type="curve"/>
      <point x="370" y="581" type="line"/>
      <point x="366" y="474" type="line"/>
      <point x="366" y="248" type="line"/>
      <point x="148" y="248" type="line"/>
      <point x="304" y="471" type="line" smooth="yes"/>
      <point x="325" y="502"/>
      <point x="352" y="547"/>
    </contour>
  </outline>
</glyph>
<glyph name="five" format="2">
  <advance width="582"/>
  <unicode hex="0035"/>
  <outline>
    <contour>
      <point x="173" y="371" type="curve"/>
      <point x="172" y="371" type="line"/>
      <point x="172" y="372"/>
      <point x="173" y="381"/>
      <point x="174" y="385" type="curve"/>
      <point x="197" y="568" type="line"/>
      <point x="495" y="568" type="line"/>
      <point x="495" y="660" type="line"/>
      <point x="112" y="660" type="line"/>
      <point x="71" y="285" type="line"/>
      <point x="160" y="279" type="line"/>
      <point x="188" y="319"/>
      <point x="236" y="336"/>
      <point x="294" y="336" type="curve" smooth="yes"/>
      <point x="376" y="336"/>
      <point x="421" y="291"/>
      <point x="422" y="209" type="curve" smooth="yes"/>
      <point x="423" y="128"/>
      <point x="372" y="81"/>
      <point x="290" y="81" type="curve" smooth="yes"/>
      <point x="204" y="81"/>
      <point x="171" y="124"/>
      <point x="153" y="190" type="curve"/>
      <point x="53" y="135" type="line"/>
      <point x="97" y="40"/>
      <point x="170" y="-10"/>
      <point x="292" y="-10" type="curve" smooth="yes"/>
      <point x="432" y="-10"/>
      <point x="527" y="70"/>
      <point x="527" y="215" type="curve" smooth="yes"/>
      <point x="527" y="339"/>
      <point x="446" y="424"/>
      <point x="319" y="424" type="curve" smooth="yes"/>
      <point x="252" y="424"/>
      <point x="203" y="404"/>
    </contour>
  </outline>
</glyph>
<glyph name="nine" format="2">
  <advance width="621"/>
  <unicode hex="0039"/>
  <outline>
    <contour>
      <point x="61" y="453" type="curve" smooth="yes"/>
      <point x="61" y="323"/>
      <point x="152" y="240"/>
      <point x="280" y="240" type="curve" smooth="yes"/>
      <point x="354" y="240"/>
      <point x="436" y="269"/>
      <point x="456" y="353" type="curve"/>
      <point x="460" y="353" type="line"/>
      <point x="460" y="349"/>
      <point x="460" y="346"/>
      <point x="460" y="342" type="curve" smooth="yes"/>
      <point x="460" y="182"/>
      <point x="418" y="82"/>
      <point x="296" y="82" type="curve" smooth="yes"/>
      <point x="210" y="82"/>
      <point x="183" y="123"/>
      <point x="164" y="185" type="curve"/>
      <point x="63" y="138" type="line"/>
      <point x="102" y="40"/>
      <point x="175" y="-10"/>
      <point x="296" y="-10" type="curve" smooth="yes"/>
      <point x="464" y="-10"/>
      <point x="558" y="103"/>
      <point x="558" y="329" type="curve" smooth="yes"/>
      <point x="558" y="537"/>
      <point x="466" y="670"/>
      <point x="297" y="670" type="curve" smooth="yes"/>
      <point x="151" y="670"/>
      <point x="61" y="587"/>
    </contour>
    <contour>
      <point x="426" y="452" type="curve" smooth="yes"/>
      <point x="426" y="380"/>
      <point x="374" y="331"/>
      <point x="297" y="331" type="curve" smooth="yes"/>
      <point x="215" y="331"/>
      <point x="168" y="377"/>
      <point x="168" y="452" type="curve" smooth="yes"/>
      <point x="168" y="530"/>
      <point x="215" y="576"/>
      <point x="297" y="576" type="curve" smooth="yes"/>
      <point x="374" y="576"/>
      <point x="426" y="527"/>
    </contour>
  </outline>
</glyph>
<glyph name="less" format="2">
  <advance width="604"/>
  <unicode hex="003C"/>
  <outline>
    <contour>
      <point x="549" y="470" type="line"/>
      <point x="549" y="576" type="line"/>
      <point x="68" y="353" type="line"/>
      <point x="68" y="265" type="line"/>
    </contour>
    <contour>
      <point x="68" y="332" type="line"/>
      <point x="68" y="244" type="line"/>
      <point x="549" y="21" type="line"/>
      <point x="549" y="128" type="line"/>
    </contour>
  </outline>
</glyph>
<glyph name="question" format="2">
  <advance width="562"/>
  <unicode hex="003F"/>
  <outline>
    <contour>
      <point x="37" y="498" type="curve"/>
      <point x="136" y="451" type="line"/>
      <point x="144" y="530"/>
      <point x="197" y="576"/>
      <point x="276" y="576" type="curve" smooth="yes"/>
      <point x="360" y="576"/>
      <point x="400" y="539"/>
      <point x="400" y="482" type="curve" smooth="yes"/>
      <point x="400" y="413"/>
      <point x="349" y="377"/>
      <point x="218" y="361" type="curve"/>
      <point x="220" y="210" type="line"/>
      <point x="322" y="210" type="line"/>
      <point x="325" y="311" type="line"/>
      <point x="430" y="322"/>
      <point x="514" y="377"/>
      <point x="514" y="497" type="curve" smooth="yes"/>
      <point x="514" y="608"/>
      <point x="418" y="670"/>
      <point x="283" y="670" type="curve" smooth="yes"/>
      <point x="141" y="670"/>
      <point x="57" y="599"/>
    </contour>
    <component base="period" xScale="0.991" yScale="0.982" xOffset="135"/>
  </outline>
</glyph>
<glyph name="at" format="2">
  <advance width="973"/>
  <unicode hex="0040"/>
  <outline>
    <contour>
      <point x="61" y="223" type="curve" smooth="yes"/>
      <point x="61" y="-30"/>
      <point x="229" y="-192"/>
      <point x="475" y="-192" type="curve" smooth="yes"/>
      <point x="605" y="-192"/>
      <point x="668" y="-156"/>
      <point x="725" y="-116" type="curve"/>
      <point x="688" y="-66" type="line"/>
      <point x="643" y="-98"/>
      <point x="590" y="-128"/>
      <point x="476" y="-128" type="curve" smooth="yes"/>
      <point x="286" y="-128"/>
      <point x="133" y="2"/>
      <point x="133" y="223" type="curve" smooth="yes"/>
      <point x="133" y="452"/>
      <point x="275" y="596"/>
      <point x="503" y="596" type="curve" smooth="yes"/>
      <point x="724" y="596"/>
      <point x="842" y="462"/>
      <point x="842" y="260" type="curve" smooth="yes"/>
      <point x="842" y="128"/>
      <point x="803" y="61"/>
      <point x="737" y="61" type="curve" smooth="yes"/>
      <point x="683" y="61"/>
      <point x="671" y="101"/>
      <point x="678" y="155" type="curve" smooth="yes"/>
      <point x="719" y="459" type="line"/>
      <point x="646" y="459" type="line"/>
      <point x="626" y="382" type="line"/>
      <point x="609" y="426"/>
      <point x="571" y="466"/>
      <point x="487" y="466" type="curve" smooth="yes"/>
      <point x="369" y="466"/>
      <point x="256" y="372"/>
      <point x="256" y="199" type="curve" smooth="yes"/>
      <point x="256" y="77"/>
      <point x="329" y="1"/>
      <point x="424" y="1" type="curve" smooth="yes"/>
      <point x="501" y="1"/>
      <point x="559" y="33"/>
      <point x="594" y="86" type="curve"/>
      <point x="608" y="39"/>
      <point x="644" y="-3"/>
      <point x="717" y="-3" type="curve" smooth="yes"/>
      <point x="827" y="-3"/>
      <point x="909" y="91"/>
      <point x="909" y="260" type="curve" smooth="yes"/>
      <point x="909" y="489"/>
      <point x="774" y="660"/>
      <point x="503" y="660" type="curve" smooth="yes"/>
      <point x="238" y="660"/>
      <point x="61" y="483"/>
    </contour>
    <contour>
      <point x="601" y="261" type="curve" smooth="yes"/>
      <point x="593" y="202" type="line" smooth="yes"/>
      <point x="583" y="118"/>
      <point x="521" y="77"/>
      <point x="457" y="77" type="curve" smooth="yes"/>
      <point x="388" y="77"/>
      <point x="350" y="126"/>
      <point x="350" y="208" type="curve" smooth="yes"/>
      <point x="350" y="324"/>
      <point x="410" y="391"/>
      <point x="498" y="391" type="curve" smooth="yes"/>
      <point x="585" y="391"/>
      <point x="610" y="335"/>
    </contour>
  </outline>
</glyph>
<glyph name="A" format="2">
  <advance width="665"/>
  <unicode hex="0041"/>
  <anchor x="333" y="660" name="top"/>
  <anchor x="646" y="0" name="ogonek"/>
  <anchor x="333" y="0" name="bottom"/>
  <anchor x="605" y="0" name="bottomC"/>
  <outline>
    <contour>
      <point x="130" y="0" type="line"/>
      <point x="302" y="474" type="line"/>
      <point x="330" y="567" type="line"/>
      <point x="333" y="567" type="line"/>
      <point x="363" y="472" type="line"/>
      <point x="533" y="0" type="line"/>
      <point x="646" y="0" type="line"/>
      <point x="397" y="660" type="line"/>
      <point x="269" y="660" type="line"/>
      <point x="20" y="0" type="line"/>
    </contour>
    <contour>
      <point x="510" y="173" type="line"/>
      <point x="510" y="260" type="line"/>
      <point x="153" y="260" type="line"/>
      <point x="153" y="173" type="line"/>
    </contour>
  </outline>
</glyph>
<glyph name="B" format="2">
  <advance width="662"/>
  <unicode hex="0042"/>
  <anchor x="311" y="660" name="top"/>
  <anchor x="356" y="0" name="ogonek"/>
  <anchor x="311" y="0" name="bottom"/>
  <anchor x="290" y="0" name="bottomC"/>
  <outline>
    <contour>
      <point x="362" y="0" type="line" smooth="yes"/>
      <point x="519" y="0"/>
      <point x="604" y="70"/>
      <point x="604" y="183" type="curve" smooth="yes"/>
      <point x="604" y="257"/>
      <point x="554" y="320"/>
      <point x="469" y="334" type="curve"/>
      <point x="469" y="335" type="line"/>
      <point x="546" y="349"/>
      <point x="587" y="410"/>
      <point x="587" y="479" type="curve" smooth="yes"/>
      <point x="587" y="592"/>
      <point x="516" y="660"/>
      <point x="358" y="660" type="curve" smooth="yes"/>
      <point x="98" y="660" type="line"/>
      <point x="98" y="0" type="line"/>
    </contour>
    <contour>
      <point x="203" y="287" type="line"/>
      <point x="367" y="287" type="line" smooth="yes"/>
      <point x="451" y="287"/>
      <point x="493" y="251"/>
      <point x="493" y="188" type="curve" smooth="yes"/>
      <point x="493" y="125"/>
      <point x="451" y="89"/>
      <point x="367" y="89" type="curve" smooth="yes"/>
      <point x="203" y="89" type="line"/>
    </contour>
    <contour>
      <point x="203" y="570" type="line"/>
      <point x="350" y="570" type="line" smooth="yes"/>
      <point x="434" y="570"/>
      <point x="476" y="538"/>
      <point x="476" y="473" type="curve" smooth="yes"/>
      <point x="476" y="408"/>
      <point x="434" y="376"/>
      <point x="350" y="376" type="curve" smooth="yes"/>
      <point x="203" y="376" type="line"/>
    </contour>
  </outline>
</glyph>
<glyph name="C" format="2">
  <advance width="684"/>
  <unicode hex="0043"/>
  <anchor x="369" y="660" name="top"/>
  <anchor x="456" y="0" name="ogonek"/>
  <anchor x="369" y="0" name="bottom"/>
  <anchor x="371" y="0" name="bottomC"/>
  <outline>
    <contour>
      <point x="543" y="209" type="line"/>
      <point x="518" y="125"/>
      <point x="457" y="83"/>
      <point x="373" y="83" type="curve" smooth="yes"/>
      <point x="248" y="83"/>
      <point x="173" y="174"/>
      <point x="173" y="330" type="curve" smooth="yes"/>
      <point x="173" y="487"/>
      <point x="254" y="577"/>
      <point x="377" y="577" type="curve" smooth="yes"/>
      <point x="459" y="577"/>
      <point x="508" y="541"/>
      <point x="534" y="463" type="curve"/>
      <point x="635" y="508" type="line"/>
      <point x="595" y="615"/>
      <point x="502" y="670"/>
      <point x="371" y="670" type="curve" smooth="yes"/>
      <point x="182" y="670"/>
      <point x="61" y="540"/>
      <point x="61" y="330" type="curve" smooth="yes"/>
      <point x="61" y="120"/>
      <point x="181" y="-10"/>
      <point x="372" y="-10" type="curve" smooth="yes"/>
      <point x="501" y="-10"/>
      <point x="604" y="54"/>
      <point x="645" y="175" type="curve"/>
    </contour>
  </outline>
</glyph>
<glyph name="G" format="2">
  <advance width="724"/>
  <unicode hex="0047"/>
  <anchor x="371" y="660" name="top"/>
  <anchor x="444" y="0" name="ogonek"/>
  <anchor x="400" y="0" name="bottom"/>
  <anchor x="371" y="0" name="bottomC"/>
  <outline>
    <contour>
      <point x="604" y="225" type="curve"/>
      <point x="556" y="234" type="line"/>
      <point x="556" y="132"/>
      <point x="479" y="82"/>
      <point x="379" y="82" type="curve" smooth="yes"/>
      <point x="244" y="82"/>
      <point x="173" y="171"/>
      <point x="173" y="330" type="curve" smooth="yes"/>
      <point x="173" y="487"/>
      <point x="253" y="577"/>
      <point x="377" y="577" type="curve" smooth="yes"/>
      <point x="460" y="577"/>
      <point x="523" y="540"/>
      <point x="548" y="467" type="curve"/>
      <point x="647" y="514" type="line"/>
      <point x="595" y="621"/>
      <point x="512" y="670"/>
      <point x="375" y="670" type="curve" smooth="yes"/>
      <point x="185" y="670"/>
      <point x="61" y="540"/>
      <point x="61" y="330" type="curve" smooth="yes"/>
      <point x="61" y="118"/>
      <point x="182" y="-10"/>
      <point x="367" y="-10" type="curve" smooth="yes"/>
      <point x="526" y="-10"/>
      <point x="604" y="84"/>
    </contour>
    <contour>
      <point x="651" y="0" type="line"/>
      <point x="651" y="340" type="line"/>
      <point x="364" y="340" type="line"/>
      <point x="364" y="253" type="line"/>
      <point x="556" y="253" type="line"/>
      <point x="556" y="166" type="line"/>
      <point x="567" y="143" type="line"/>
      <point x="574" y="0" type="line"/>
    </contour>
  </outline>
</glyph>
<glyph name="H" format="2">
  <advance width="736"/>
  <unicode hex="0048"/>
  <anchor x="368" y="660" name="top"/>
  <anchor x="641" y="0" name="ogonek"/>
  <anchor x="368" y="0" name="bottom"/>
  <anchor x="587" y="0" name="bottomC"/>
  <outline>
    <contour>
      <point x="531" y="660" type="line"/>
      <point x="531" y="0" type="line"/>
      <point x="639" y="0" type="line"/>
      <point x="639" y="660" type="line"/>
    </contour>
    <contour>
      <point x="98" y="660" type="line"/>
      <point x="98" y="0" type="line"/>
      <point x="205" y="0" type="line"/>
      <point x="205" y="660" type="line"/>
    </contour>
    <contour>
      <point x="152" y="380" type="line"/>
      <point x="152" y="288" type="line"/>
      <point x="585" y="288" type="line"/>
      <point x="585" y="380" type="line"/>
    </contour>
  </outline>
</glyph>
<glyph name="I" format="2">
  <advance width="303"/>
  <unicode hex="0049"/>
  <anchor x="151" y="660" name="top"/>
  <anchor x="205" y="0" name="ogonek"/>
  <anchor x="151" y="0" name="bottom"/>
  <anchor x="151" y="0" name="bottomC"/>
  <outline>
    <contour>
      <point x="98" y="660" type="line"/>
      <point x="98" y="0" type="line"/>
      <point x="205" y="0" type="line"/>
      <point x="205" y="660" type="line"/>
    </contour>
  </outline>
</glyph>
<glyph name="J" format="2">
  <advance width="582"/>
  <unicode hex="004A"/>
  <anchor x="440" y="660" name="top"/>
  <anchor x="327" y="0" name="ogonek"/>
  <anchor x="269" y="0" name="bottom"/>
  <anchor x="265" y="0" name="bottomC"/>
  <outline>
    <contour>
      <point x="386" y="660" type="line"/>
      <point x="386" y="254" type="line" smooth="yes"/>
      <point x="386" y="141"/>
      <point x="354" y="83"/>
      <point x="253" y="83" type="curve" smooth="yes"/>
      <point x="161" y="83"/>
      <point x="131" y="135"/>
      <point x="146" y="250" type="curve"/>
      <point x="44" y="231" type="line"/>
      <point x="17" y="86"/>
      <point x="90" y="-10"/>
      <point x="253" y="-10" type="curve" smooth="yes"/>
      <point x="404" y="-10"/>
      <point x="493" y="81"/>
      <point x="493" y="234" type="curve" smooth="yes"/>
      <point x="493" y="660" type="line"/>
    </contour>
  </outline>
</glyph>
<glyph name="O" format="2">
  <advance width="745"/>
  <unicode hex="004F"/>
  <anchor x="372" y="660" name="top"/>
  <anchor x="452" y="0" name="ogonek"/>
  <anchor x="372" y="0" name="bottom"/>
  <anchor x="372" y="0" name="bottomC"/>
  <outline>
    <contour>
      <point x="61" y="330" type="curve" smooth="yes"/>
      <point x="61" y="120"/>
      <point x="181" y="-10"/>
      <point x="372" y="-10" type="curve" smooth="yes"/>
      <point x="564" y="-10"/>
      <point x="684" y="120"/>
      <point x="684" y="330" type="curve" smooth="yes"/>
      <point x="684" y="540"/>
      <point x="564" y="670"/>
      <point x="372" y="670" type="curve" smooth="yes"/>
      <point x="181" y="670"/>
      <point x="61" y="540"/>
    </contour>
    <contour>
      <point x="572" y="330" type="curve" smooth="yes"/>
      <point x="572" y="173"/>
      <point x="497" y="83"/>
      <point x="372" y="83" type="curve" smooth="yes"/>
      <point x="248" y="83"/>
      <point x="173" y="173"/>
      <point x="173" y="330" type="curve" smooth="yes"/>
      <point x="173" y="487"/>
      <point x="248" y="577"/>
      <point x="372" y="577" type="curve" smooth="yes"/>
      <point x="497" y="577"/>
      <point x="572" y="487"/>
    </contour>
  </outline>
</glyph>
<glyph name="R" format="2">
  <advance width="672"/>
  <unicode hex="0052"/>
  <anchor x="324" y="660" name="top"/>
  <anchor x="637" y="0" name="ogonek"/>
  <anchor x="364" y="0" name="bottom"/>
  <anchor x="584" y="0" name="bottomC"/>
  <outline>
    <contour>
      <point x="159" y="660" type="line"/>
      <point x="159" y="569" type="line"/>
      <point x="358" y="569" type="line" smooth="yes"/>
      <point x="445" y="569"/>
      <point x="487" y="534"/>
      <point x="487" y="461" type="curve" smooth="yes"/>
      <point x="487" y="388"/>
      <point x="445" y="353"/>
      <point x="358" y="353" type="curve" smooth="yes"/>
      <point x="159" y="353" type="line"/>
      <point x="159" y="264" type="line"/>
      <point x="367" y="264" type="line" smooth="yes"/>
      <point x="509" y="264"/>
      <point x="598" y="338"/>
      <point x="598" y="462" type="curve" smooth="yes"/>
      <point x="598" y="586"/>
      <point x="509" y="660"/>
      <point x="367" y="660" type="curve" smooth="yes"/>
    </contour>
    <contour>
      <point x="98" y="660" type="line"/>
      <point x="98" y="0" type="line"/>
      <point x="204" y="0" type="line"/>
      <point x="204" y="660" type="line"/>
    </contour>
    <contour>
      <point x="330" y="289" type="line"/>
      <point x="514" y="0" type="line"/>
      <point x="637" y="0" type="line"/>
      <point x="422" y="331" type="line"/>
    </contour>
  </outline>
</glyph>
<glyph name="S" format="2">
  <advance width="642"/>
  <unicode hex="0053"/>
  <anchor x="327" y="660" name="top"/>
  <anchor x="411" y="0" name="ogonek"/>
  <anchor x="355" y="0" name="bottom"/>
  <anchor x="329" y="0" name="bottomC"/>
  <outline>
    <contour>
      <point x="66" y="468" type="curve" smooth="yes"/>
      <point x="66" y="356"/>
      <point x="146" y="307"/>
      <point x="312" y="278" type="curve" smooth="yes"/>
      <point x="436" y="256"/>
      <point x="479" y="228"/>
      <point x="479" y="177" type="curve" smooth="yes"/>
      <point x="479" y="116"/>
      <point x="420" y="82"/>
      <point x="326" y="82" type="curve" smooth="yes"/>
      <point x="222" y="82"/>
      <point x="155" y="126"/>
      <point x="116" y="198" type="curve"/>
      <point x="41" y="124" type="line"/>
      <point x="93" y="46"/>
      <point x="183" y="-10"/>
      <point x="327" y="-10" type="curve" smooth="yes"/>
      <point x="483" y="-10"/>
      <point x="590" y="65"/>
      <point x="590" y="183" type="curve" smooth="yes"/>
      <point x="590" y="289"/>
      <point x="524" y="346"/>
      <point x="344" y="377" type="curve" smooth="yes"/>
      <point x="221" y="399"/>
      <point x="178" y="425"/>
      <point x="178" y="479" type="curve" smooth="yes"/>
      <point x="178" y="535"/>
      <point x="231" y="578"/>
      <point x="325" y="578" type="curve" smooth="yes"/>
      <point x="418" y="578"/>
      <point x="468" y="546"/>
      <point x="512" y="464" type="curve"/>
      <point x="587" y="536" type="line"/>
      <point x="528" y="626"/>
      <point x="445" y="670"/>
      <point x="323" y="670" type="curve" smooth="yes"/>
      <point x="162" y="670"/>
      <point x="66" y="580"/>
    </contour>
  </outline>
</glyph>
<glyph name="V" format="2">
  <advance width="659"/>
  <unicode hex="0056"/>
  <anchor x="329" y="660" name="top"/>
  <anchor x="392" y="0" name="ogonek"/>
  <anchor x="329" y="0" name="bottom"/>
  <anchor x="341" y="0" name="bottomC"/>
  <outline>
    <contour>
      <point x="524" y="660" type="line"/>
      <point x="370" y="220" type="line"/>
      <point x="330" y="90" type="line"/>
      <point x="290" y="221" type="line"/>
      <point x="136" y="660" type="line"/>
      <point x="22" y="660" type="line"/>
      <point x="267" y="0" type="line"/>
      <point x="392" y="0" type="line"/>
      <point x="637" y="660" type="line"/>
    </contour>
  </outline>
</glyph>
<glyph name="W" format="2">
  <advance width="972"/>
  <unicode hex="0057"/>
  <anchor x="486" y="660" name="top"/>
  <anchor x="751" y="0" name="ogonek"/>
  <anchor x="486" y="0" name="bottom"/>
  <anchor x="702" y="0" name="bottomC"/>
  <outline>
    <contour>
      <point x="486" y="548" type="line"/>
      <point x="487" y="548" type="line"/>
      <point x="520" y="396" type="line"/>
      <point x="625" y="0" type="line"/>
      <point x="751" y="0" type="line"/>
      <point x="944" y="660" type="line"/>
      <point x="834" y="660" type="line"/>
      <point x="689" y="84" type="line"/>
      <point x="543" y="660" type="line"/>
      <point x="433" y="660" type="line"/>
      <point x="288" y="85" type="line"/>
      <point x="144" y="660" type="line"/>
      <point x="28" y="660" type="line"/>
      <point x="222" y="0" type="line"/>
      <point x="349" y="0" type="line"/>
      <point x="453" y="396" type="line"/>
    </contour>
  </outline>
</glyph>
<glyph name="Y" format="2">
  <advance width="597"/>
  <unicode hex="0059"/>
  <anchor x="299" y="660" name="top"/>
  <anchor x="352" y="0" name="ogonek"/>
  <anchor x="299" y="0" name="bottom"/>
  <anchor x="299" y="0" name="bottomC"/>
  <outline>
    <contour>
      <point x="468" y="660" type="line"/>
      <point x="351" y="448" type="line"/>
      <point x="299" y="349" type="line"/>
      <point x="247" y="448" type="line"/>
      <point x="129" y="660" type="line"/>
      <point x="10" y="660" type="line"/>
      <point x="245" y="253" type="line"/>
      <point x="245" y="0" type="line"/>
      <point x="352" y="0" type="line"/>
      <point x="352" y="253" type="line"/>
      <point x="588" y="660" type="line"/>
    </contour>
  </outline>
</glyph>
<glyph name="asciicircum" format="2">
  <advance width="576"/>
  <unicode hex="005E"/>
  <outline>
    <contour>
      <point x="128" y="355" type="line"/>
      <point x="331" y="728" type="line"/>
      <point x="240" y="728" type="line"/>
      <point x="26" y="355" type="line"/>
    </contour>
    <contour>
      <point x="336" y="728" type="line"/>
      <point x="245" y="728" type="line"/>
      <point x="448" y="355" type="line"/>
      <point x="549" y="355" type="line"/>
    </contour>
  </outline>
</glyph>
<glyph name="a" format="2">
  <advance width="570"/>
  <unicode hex="0061"/>
  <anchor x="276" y="500" name="top"/>
  <anchor x="545" y="2" name="ogonek"/>
  <anchor x="276" y="0" name="bottom"/>
  <anchor x="487" y="0" name="bottomC"/>
  <outline>
    <contour>
      <point x="58" y="377" type="curve"/>
      <point x="141" y="337" type="line"/>
      <point x="163" y="397"/>
      <point x="208" y="426"/>
      <point x="267" y="426" type="curve" smooth="yes"/>
      <point x="334" y="426"/>
      <point x="372" y="386"/>
      <point x="372" y="327" type="curve" smooth="yes"/>
      <point x="372" y="112" type="line"/>
      <point x="377" y="105" type="line" smooth="yes"/>
      <point x="377" y="19"/>
      <point x="417" y="-10"/>
      <point x="483" y="-10" type="curve" smooth="yes"/>
      <point x="508" y="-10"/>
      <point x="530" y="-5"/>
      <point x="545" y="2" type="curve"/>
      <point x="553" y="75" type="line"/>
      <point x="542" y="72"/>
      <point x="528" y="70"/>
      <point x="515" y="70" type="curve" smooth="yes"/>
      <point x="489" y="70"/>
      <point x="478" y="82"/>
      <point x="478" y="107" type="curve" smooth="yes"/>
      <point x="478" y="334" type="line" smooth="yes"/>
      <point x="478" y="453"/>
      <point x="396" y="510"/>
      <point x="270" y="510" type="curve" smooth="yes"/>
      <point x="161" y="510"/>
      <point x="81" y="458"/>
    </contour>
    <contour>
      <point x="245" y="278" type="line" smooth="yes"/>
      <point x="113" y="255"/>
      <point x="50" y="198"/>
      <point x="50" y="121" type="curve" smooth="yes"/>
      <point x="50" y="34"/>
      <point x="121" y="-10"/>
      <point x="217" y="-10" type="curve" smooth="yes"/>
      <point x="314" y="-10"/>
      <point x="401" y="48"/>
      <point x="401" y="132" type="curve"/>
      <point x="372" y="167" type="line"/>
      <point x="372" y="107"/>
      <point x="307" y="70"/>
      <point x="237" y="70" type="curve" smooth="yes"/>
      <point x="187" y="70"/>
      <point x="157" y="90"/>
      <point x="157" y="129" type="curve" smooth="yes"/>
      <point x="157" y="172"/>
      <point x="197" y="199"/>
      <point x="274" y="213" type="curve" smooth="yes"/>
      <point x="418" y="242" type="line"/>
      <point x="406" y="306" type="line"/>
    </contour>
  </outline>
</glyph>
<glyph name="c" format="2">
  <advance width="566"/>
  <unicode hex="0063"/>
  <anchor x="296" y="500" name="top"/>
  <anchor x="418" y="16" name="ogonek"/>
  <anchor x="296" y="0" name="bottom"/>
  <anchor x="303" y="0" name="bottomC"/>
  <outline>
    <contour>
      <point x="54" y="250" type="curve" smooth="yes"/>
      <point x="54" y="87"/>
      <point x="147" y="-10"/>
      <point x="305" y="-10" type="curve" smooth="yes"/>
      <point x="421" y="-10"/>
      <point x="496" y="48"/>
      <point x="524" y="139" type="curve"/>
      <point x="426" y="172" type="line"/>
      <point x="413" y="110"/>
      <point x="372" y="75"/>
      <point x="303" y="75" type="curve" smooth="yes"/>
      <point x="215" y="75"/>
      <point x="162" y="136"/>
      <point x="162" y="249" type="curve" smooth="yes"/>
      <point x="162" y="362"/>
      <point x="214" y="425"/>
      <point x="303" y="425" type="curve" smooth="yes"/>
      <point x="365" y="425"/>
      <point x="403" y="392"/>
      <point x="420" y="330" type="curve"/>
      <point x="520" y="370" type="line"/>
      <point x="489" y="452"/>
      <point x="424" y="510"/>
      <point x="303" y="510" type="curve" smooth="yes"/>
      <point x="147" y="510"/>
      <point x="54" y="413"/>
    </contour>
  </outline>
</glyph>
<glyph name="e" format="2">
  <advance width="581"/>
  <unicode hex="0065"/>
  <anchor x="295" y="500" name="top"/>
  <anchor x="373" y="39" name="ogonek"/>
  <anchor x="295" y="0" name="bottom"/>
  <anchor x="297" y="0" name="bottomC"/>
  <outline>
    <contour>
      <point x="520" y="106" type="curve"/>
      <point x="431" y="143" type="line"/>
      <point x="415" y="99"/>
      <point x="371" y="75"/>
      <point x="305" y="75" type="curve" smooth="yes"/>
      <point x="213" y="75"/>
      <point x="158" y="136"/>
      <point x="158" y="249" type="curve" smooth="yes"/>
      <point x="158" y="362"/>
      <point x="207" y="425"/>
      <point x="298" y="425" type="curve" smooth="yes"/>
      <point x="383" y="425"/>
      <point x="428" y="361"/>
      <point x="429" y="258" type="curve"/>
      <point x="479" y="291" type="line"/>
      <point x="124" y="291" type="line"/>
      <point x="124" y="217" type="line"/>
      <point x="525" y="217" type="line"/>
      <point x="527" y="231"/>
      <point x="529" y="251"/>
      <point x="529" y="274" type="curve" smooth="yes"/>
      <point x="529" y="406"/>
      <point x="448" y="510"/>
      <point x="298" y="510" type="curve" smooth="yes"/>
      <point x="142" y="510"/>
      <point x="54" y="413"/>
      <point x="54" y="250" type="curve" smooth="yes"/>
      <point x="54" y="87"/>
      <point x="147" y="-10"/>
      <point x="305" y="-10" type="curve" smooth="yes"/>
      <point x="415" y="-10"/>
      <point x="484" y="32"/>
    </contour>
  </outline>
</glyph>
<glyph name="f" format="2">
  <advance width="400"/>
  <unicode hex="0066"/>
  <anchor x="256" y="725" name="top"/>
  <anchor x="228" y="0" name="ogonek"/>
  <anchor x="174" y="0" name="bottom"/>
  <anchor x="174" y="0" name="bottomC"/>
  <outline>
    <contour>
      <point x="121" y="572" type="curve" smooth="yes"/>
      <point x="121" y="0" type="line"/>
      <point x="228" y="0" type="line"/>
      <point x="228" y="464" type="line"/>
      <point x="225" y="491" type="line"/>
      <point x="225" y="564" type="line" smooth="yes"/>
      <point x="225" y="621"/>
      <point x="257" y="645"/>
      <point x="313" y="645" type="curve" smooth="yes"/>
      <point x="337" y="645"/>
      <point x="355" y="640"/>
      <point x="370" y="630" type="curve"/>
      <point x="390" y="708" type="line"/>
      <point x="371" y="723"/>
      <point x="336" y="732"/>
      <point x="296" y="732" type="curve" smooth="yes"/>
      <point x="185" y="732"/>
      <point x="121" y="673"/>
    </contour>
    <contour>
      <point x="27" y="500" type="line"/>
      <point x="27" y="416" type="line"/>
      <point x="387" y="416" type="line"/>
      <point x="387" y="500" type="line"/>
    </contour>
  </outline>
</glyph>
<glyph name="g" format="2">
  <advance width="540"/>
  <unicode hex="0067"/>
  <anchor x="265" y="500" name="top"/>
  <anchor x="405" y="-194" name="ogonek"/>
  <anchor x="273" y="-210" name="bottom"/>
  <anchor x="273" y="-210" name="bottomC"/>
  <outline>
    <contour>
      <point x="376" y="463" type="curve"/>
      <point x="429" y="442" type="line"/>
      <point x="428" y="496"/>
      <point x="468" y="525"/>
      <point x="540" y="522" type="curve"/>
      <point x="522" y="605" type="line"/>
      <point x="434" y="607"/>
      <point x="375" y="546"/>
    </contour>
    <component base="gbase" xOffset="-9"/>
  </outline>
</glyph>
<glyph name="j" format="2">
  <advance width="273"/>
  <unicode hex="006A"/>
  <anchor x="137" y="707" name="top"/>
  <anchor x="91" y="-204" name="ogonek"/>
  <anchor x="53" y="-210" name="bottom"/>
  <anchor x="53" y="-210" name="bottomC"/>
  <outline>
    <contour>
      <point x="65" y="651" type="curve" smooth="yes"/>
      <point x="65" y="611"/>
      <point x="93" y="584"/>
      <point x="137" y="584" type="curve" smooth="yes"/>
      <point x="180" y="584"/>
      <point x="208" y="611"/>
      <point x="208" y="651" type="curve" smooth="yes"/>
      <point x="208" y="691"/>
      <point x="180" y="717"/>
      <point x="137" y="717" type="curve" smooth="yes"/>
      <point x="93" y="717"/>
      <point x="65" y="691"/>
    </contour>
    <component base="jdotless"/>
  </outline>
</glyph>
<glyph name="k" format="2">
  <advance width="583"/>
  <unicode hex="006B"/>
  <anchor x="137" y="725" name="top"/>
  <anchor x="319" y="0" name="bottom"/>
  <outline>
    <contour>
      <point x="429" y="500" type="line"/>
      <point x="151" y="215" type="line"/>
      <point x="152" y="93" type="line"/>
      <point x="309" y="256" type="line"/>
      <point x="332" y="272" type="line"/>
      <point x="555" y="500" type="line"/>
    </contour>
    <contour>
      <point x="83" y="725" type="line"/>
      <point x="83" y="0" type="line"/>
      <point x="190" y="0" type="line"/>
      <point x="190" y="725" type="line"/>
    </contour>
    <contour>
      <point x="265" y="271" type="line"/>
      <point x="443" y="0" type="line"/>
      <point x="567" y="0" type="line"/>
      <point x="345" y="332" type="line"/>
    </contour>
  </outline>
</glyph>
<glyph name="l" format="2">
  <advance width="312"/>
  <unicode hex="006C"/>
  <anchor x="277" y="354" name="center"/>
  <anchor x="207" y="0" name="bottom"/>
  <anchor x="132" y="725" name="top"/>
  <anchor x="206" y="0" name="bottomC"/>
  <anchor x="259" y="725" name="topright"/>
  <anchor x="268" y="0" name="ogonek"/>
  <outline>
    <contour>
      <point x="80" y="725" type="line"/>
      <point x="80" y="131" type="line" smooth="yes"/>
      <point x="80" y="34"/>
      <point x="121" y="-10"/>
      <point x="210" y="-10" type="curve" smooth="yes"/>
      <point x="239" y="-10"/>
      <point x="271" y="-4"/>
      <point x="293" y="7" type="curve"/>
      <point x="305" y="93" type="line"/>
      <point x="279" y="83"/>
      <point x="264" y="80"/>
      <point x="239" y="80" type="curve" smooth="yes"/>
      <point x="199" y="80"/>
      <point x="187" y="97"/>
      <point x="187" y="146" type="curve" smooth="yes"/>
      <point x="187" y="725" type="line"/>
    </contour>
  </outline>
</glyph>
<glyph name="m" format="2">
  <advance width="949"/>
  <unicode hex="006D"/>
  <anchor x="477" y="500" name="top"/>
  <anchor x="870" y="0" name="ogonek"/>
  <anchor x="477" y="0" name="bottom"/>
  <anchor x="816" y="0" name="bottomC"/>
  <outline>
    <contour>
      <point x="496" y="331" type="curve"/>
      <point x="530" y="272" type="line"/>
      <point x="530" y="369"/>
      <point x="590" y="422"/>
      <point x="660" y="422" type="curve" smooth="yes"/>
      <point x="719" y="422"/>
      <point x="763" y="389"/>
      <point x="763" y="307" type="curve" smooth="yes"/>
      <point x="763" y="0" type="line"/>
      <point x="870" y="0" type="line"/>
      <point x="870" y="324" type="line" smooth="yes"/>
      <point x="871" y="451"/>
      <point x="782" y="510"/>
      <point x="686" y="510" type="curve" smooth="yes"/>
      <point x="597" y="510"/>
      <point x="496" y="453"/>
    </contour>
    <contour>
      <point x="83" y="500" type="line"/>
      <point x="83" y="365" type="line"/>
      <point x="83" y="0" type="line"/>
      <point x="190" y="0" type="line"/>
      <point x="190" y="361" type="line"/>
      <point x="185" y="375" type="line"/>
      <point x="178" y="500" type="line"/>
    </contour>
    <contour>
      <point x="153" y="287" type="curve"/>
      <point x="190" y="266" type="line"/>
      <point x="190" y="378"/>
      <point x="260" y="422"/>
      <point x="320" y="422" type="curve" smooth="yes"/>
      <point x="379" y="422"/>
      <point x="423" y="389"/>
      <point x="423" y="307" type="curve" smooth="yes"/>
      <point x="423" y="0" type="line"/>
      <point x="530" y="0" type="line"/>
      <point x="530" y="324" type="line" smooth="yes"/>
      <point x="530" y="451"/>
      <point x="442" y="510"/>
      <point x="345" y="510" type="curve" smooth="yes"/>
      <point x="245" y="510"/>
      <point x="153" y="440"/>
    </contour>
  </outline>
</glyph>
<glyph name="o" format="2">
  <advance width="606"/>
  <unicode hex="006F"/>
  <anchor x="303" y="500" name="top"/>
  <anchor x="421" y="16" name="ogonek"/>
  <anchor x="303" y="0" name="bottom"/>
  <anchor x="303" y="0" name="bottomC"/>
  <outline>
    <contour>
      <point x="54" y="250" type="curve" smooth="yes"/>
      <point x="54" y="87"/>
      <point x="147" y="-10"/>
      <point x="303" y="-10" type="curve" smooth="yes"/>
      <point x="459" y="-10"/>
      <point x="552" y="87"/>
      <point x="552" y="250" type="curve" smooth="yes"/>
      <point x="552" y="413"/>
      <point x="459" y="510"/>
      <point x="303" y="510" type="curve" smooth="yes"/>
      <point x="147" y="510"/>
      <point x="54" y="413"/>
    </contour>
    <contour>
      <point x="445" y="250" type="curve" smooth="yes"/>
      <point x="445" y="137"/>
      <point x="393" y="74"/>
      <point x="303" y="74" type="curve" smooth="yes"/>
      <point x="213" y="74"/>
      <point x="162" y="137"/>
      <point x="162" y="250" type="curve" smooth="yes"/>
      <point x="162" y="363"/>
      <point x="213" y="426"/>
      <point x="303" y="426" type="curve" smooth="yes"/>
      <point x="393" y="426"/>
      <point x="445" y="363"/>
    </contour>
  </outline>
</glyph>
<glyph name="p" format="2">
  <advance width="629"/>
  <unicode hex="0070"/>
  <anchor x="321" y="500" name="top"/>
  <anchor x="454" y="16" name="ogonek"/>
  <anchor x="137" y="-210" name="bottom"/>
  <anchor x="343" y="0" name="bottomC"/>
  <outline>
    <contour>
      <point x="83" y="500" type="line"/>
      <point x="83" y="365" type="line"/>
      <point x="83" y="-210" type="line"/>
      <point x="190" y="-210" type="line"/>
      <point x="190" y="359" type="line"/>
      <point x="184" y="375" type="line"/>
      <point x="177" y="500" type="line"/>
    </contour>
    <component base="bowl" xScale="-1.0" yScale="-1.0" xOffset="653" yOffset="500"/>
  </outline>
</glyph>
<glyph name="q" format="2">
  <advance width="630"/>
  <unicode hex="0071"/>
  <anchor x="308" y="500" name="top"/>
  <anchor x="374" y="16" name="ogonek"/>
  <anchor x="494" y="-210" name="bottom"/>
  <anchor x="272" y="0" name="bottomC"/>
  <outline>
    <contour>
      <point x="453" y="500" type="line"/>
      <point x="446" y="375" type="line"/>
      <point x="440" y="360" type="line"/>
      <point x="440" y="-210" type="line"/>
      <point x="547" y="-210" type="line"/>
      <point x="547" y="365" type="line"/>
      <point x="547" y="500" type="line"/>
    </contour>
    <component base="bowl" yScale="-1.0" xOffset="-23" yOffset="500"/>
  </outline>
</glyph>
<glyph name="r" format="2">
  <advance width="414"/>
  <unicode hex="0072"/>
  <anchor x="224" y="500" name="top"/>
  <anchor x="190" y="0" name="ogonek"/>
  <anchor x="152" y="0" name="bottom"/>
  <anchor x="137" y="0" name="bottomC"/>
  <outline>
    <contour>
      <point x="162" y="285" type="curve"/>
      <point x="190" y="265" type="line"/>
      <point x="190" y="367"/>
      <point x="256" y="415"/>
      <point x="316" y="415" type="curve" smooth="yes"/>
      <point x="343" y="415"/>
      <point x="365" y="410"/>
      <point x="379" y="402" type="curve"/>
      <point x="396" y="500" type="line"/>
      <point x="382" y="507"/>
      <point x="361" y="510"/>
      <point x="341" y="510" type="curve" smooth="yes"/>
      <point x="223" y="510"/>
      <point x="162" y="430"/>
    </contour>
    <contour>
      <point x="83" y="500" type="line"/>
      <point x="83" y="0" type="line"/>
      <point x="190" y="0" type="line"/>
      <point x="190" y="356" type="line"/>
      <point x="188" y="369" type="line"/>
      <point x="174" y="500" type="line"/>
    </contour>
  </outline>
</glyph>
<glyph name="u" format="2">
  <advance width="619"/>
  <unicode hex="0075"/>
  <anchor x="307" y="500" name="top"/>
  <anchor x="536" y="0" name="ogonek"/>
  <anchor x="307" y="0" name="bottom"/>
  <anchor x="505" y="0" name="bottomC"/>
  <outline>
    <contour>
      <point x="79" y="500" type="line"/>
      <point x="79" y="171" type="line" smooth="yes"/>
      <point x="79" y="41"/>
      <point x="159" y="-10"/>
      <point x="259" y="-10" type="curve" smooth="yes"/>
      <point x="383" y="-10"/>
      <point x="465" y="57"/>
      <point x="465" y="214" type="curve"/>
      <point x="429" y="230" type="line"/>
      <point x="429" y="124"/>
      <point x="365" y="78"/>
      <point x="289" y="78" type="curve" smooth="yes"/>
      <point x="226" y="78"/>
      <point x="186" y="106"/>
      <point x="186" y="199" type="curve" smooth="yes"/>
      <point x="186" y="500" type="line"/>
    </contour>
    <contour>
      <point x="429" y="500" type="line"/>
      <point x="429" y="140" type="line"/>
      <point x="434" y="125" type="line"/>
      <point x="441" y="0" type="line"/>
      <point x="536" y="0" type="line"/>
      <point x="536" y="500" type="line"/>
    </contour>
  </outline>
</glyph>
<glyph name="x" format="2">
  <advance width="550"/>
  <unicode hex="0078"/>
  <anchor x="275" y="500" name="top"/>
  <anchor x="525" y="0" name="ogonek"/>
  <anchor x="275" y="0" name="bottom"/>
  <anchor x="481" y="0" name="bottomC"/>
  <outline>
    <contour>
      <point x="32" y="500" type="line"/>
      <point x="228" y="228" type="line"/>
      <point x="252" y="220" type="line"/>
      <point x="399" y="0" type="line"/>
      <point x="525" y="0" type="line"/>
      <point x="322" y="283" type="line"/>
      <point x="302" y="286" type="line"/>
      <point x="160" y="500" type="line"/>
    </contour>
    <contour>
      <point x="399" y="500" type="line"/>
      <point x="256" y="283" type="line"/>
      <point x="235" y="285" type="line"/>
      <point x="22" y="0" type="line"/>
      <point x="143" y="0" type="line"/>
      <point x="304" y="233" type="line"/>
      <point x="326" y="232" type="line"/>
      <point x="522" y="500" type="line"/>
    </contour>
  </outline>
</glyph>
<glyph name="z" format="2">
  <advance width="528"/>
  <unicode hex="007A"/>
  <anchor x="252" y="500" name="top"/>
  <anchor x="481" y="0" name="ogonek"/>
  <anchor x="252" y="0" name="bottom"/>
  <anchor x="252" y="0" name="bottomC"/>
  <outline>
    <contour>
      <point x="481" y="0" type="line"/>
      <point x="481" y="84" type="line"/>
      <point x="265" y="84" type="line"/>
      <point x="170" y="82" type="line"/>
      <point x="230" y="144" type="line"/>
      <point x="472" y="426" type="line"/>
      <point x="472" y="500" type="line"/>
      <point x="53" y="500" type="line"/>
      <point x="53" y="416" type="line"/>
      <point x="268" y="416" type="line"/>
      <point x="354" y="418" type="line"/>
      <point x="294" y="356" type="line"/>
      <point x="51" y="74" type="line"/>
      <point x="51" y="0" type="line"/>
    </contour>
  </outline>
</glyph>
<glyph name="cent" format="2">
  <advance width="570"/>
  <unicode hex="00A2"/>
  <outline>
    <contour>
      <point x="61" y="250" type="curve" smooth="yes"/>
      <point x="61" y="87"/>
      <point x="153" y="-10"/>
      <point x="311" y="-10" type="curve" smooth="yes"/>
      <point x="428" y="-10"/>
      <point x="503" y="48"/>
      <point x="528" y="140" type="curve"/>
      <point x="440" y="170" type="line"/>
      <point x="423" y="103"/>
      <point x="378" y="67"/>
      <point x="309" y="67" type="curve" smooth="yes"/>
      <point x="213" y="67"/>
      <point x="158" y="129"/>
      <point x="158" y="249" type="curve" smooth="yes"/>
      <point x="158" y="369"/>
      <point x="212" y="433"/>
      <point x="309" y="433" type="curve" smooth="yes"/>
      <point x="371" y="433"/>
      <point x="415" y="398"/>
      <point x="433" y="331" type="curve"/>
      <point x="524" y="370" type="line"/>
      <point x="496" y="453"/>
      <point x="430" y="510"/>
      <point x="309" y="510" type="curve" smooth="yes"/>
      <point x="154" y="510"/>
      <point x="61" y="413"/>
    </contour>
    <contour>
      <point x="268" y="600" type="line"/>
      <point x="268" y="-100" type="line"/>
      <point x="342" y="-100" type="line"/>
      <point x="342" y="600" type="line"/>
    </contour>
  </outline>
</glyph>
<glyph name="currency" format="2">
  <advance width="659"/>
  <unicode hex="00A4"/>
  <outline>
    <contour>
      <point x="118" y="329" type="curve" smooth="yes"/>
      <point x="118" y="207"/>
      <point x="207" y="119"/>
      <point x="330" y="119" type="curve" smooth="yes"/>
      <point x="453" y="119"/>
      <point x="541" y="207"/>
      <point x="541" y="329" type="curve" smooth="yes"/>
      <point x="541" y="451"/>
      <point x="453" y="538"/>
      <point x="330" y="538" type="curve" smooth="yes"/>
      <point x="207" y="538"/>
      <point x="118" y="451"/>
    </contour>
    <contour>
      <point x="446" y="329" type="curve" smooth="yes"/>
      <point x="446" y="257"/>
      <point x="398" y="205"/>
      <point x="330" y="205" type="curve" smooth="yes"/>
      <point x="262" y="205"/>
      <point x="213" y="257"/>
      <point x="213" y="329" type="curve" smooth="yes"/>
      <point x="213" y="401"/>
      <point x="262" y="452"/>
      <point x="330" y="452" type="curve" smooth="yes"/>
      <point x="398" y="452"/>
      <point x="446" y="401"/>
    </contour>
    <contour>
      <point x="60" y="533" type="line"/>
      <point x="187" y="413" type="line"/>
      <point x="248" y="473" type="line"/>
      <point x="125" y="598" type="line"/>
    </contour>
    <contour>
      <point x="60" y="124" type="line"/>
      <point x="125" y="59" type="line"/>
      <point x="245" y="186" type="line"/>
      <point x="186" y="247" type="line"/>
    </contour>
    <contour>
      <point x="413" y="183" type="line"/>
      <point x="534" y="59" type="line"/>
      <point x="600" y="124" type="line"/>
      <point x="473" y="243" type="line"/>
    </contour>
    <contour>
      <point x="415" y="472" type="line"/>
      <point x="476" y="411" type="line"/>
      <point x="600" y="533" type="line"/>
      <point x="534" y="598" type="line"/>
    </contour>
  </outline>
</glyph>
<glyph name="yen" format="2">
  <advance width="637"/>
  <unicode hex="00A5"/>
  <outline>
    <contour>
      <point x="30" y="660" type="line"/>
      <point x="270" y="266" type="line"/>
      <point x="368" y="266" type="line"/>
      <point x="608" y="660" type="line"/>
      <point x="490" y="660" type="line"/>
      <point x="367" y="429" type="line"/>
      <point x="320" y="328" type="line"/>
      <point x="318" y="328" type="line"/>
      <point x="271" y="428" type="line"/>
      <point x="148" y="660" type="line"/>
    </contour>
    <contour>
      <point x="368" y="0" type="line"/>
      <point x="368" y="258" type="line"/>
      <point x="270" y="258" type="line"/>
      <point x="270" y="0" type="line"/>
    </contour>
    <contour>
      <point x="561" y="111" type="line"/>
      <point x="561" y="167" type="line"/>
      <point x="78" y="167" type="line"/>
      <point x="78" y="111" type="line"/>
    </contour>
    <contour>
      <point x="561" y="240" type="line"/>
      <point x="561" y="299" type="line"/>
      <point x="434" y="299" type="line"/>
      <point x="319" y="289" type="line"/>
      <point x="203" y="299" type="line"/>
      <point x="78" y="299" type="line"/>
      <point x="78" y="240" type="line"/>
    </contour>
  </outline>
</glyph>
<glyph name="section" format="2">
  <advance width="605"/>
  <unicode hex="00A7"/>
  <outline>
    <contour>
      <point x="90" y="511" type="curve" smooth="yes"/>
      <point x="90" y="411"/>
      <point x="155" y="360"/>
      <point x="331" y="340" type="curve" smooth="yes"/>
      <point x="449" y="327"/>
      <point x="487" y="305"/>
      <point x="487" y="261" type="curve" smooth="yes"/>
      <point x="487" y="204"/>
      <point x="417" y="180"/>
      <point x="363" y="166" type="curve"/>
      <point x="417" y="103" type="line"/>
      <point x="496" y="123"/>
      <point x="579" y="177"/>
      <point x="579" y="273" type="curve" smooth="yes"/>
      <point x="579" y="364"/>
      <point x="517" y="410"/>
      <point x="348" y="430" type="curve" smooth="yes"/>
      <point x="222" y="445"/>
      <point x="184" y="470"/>
      <point x="184" y="521" type="curve" smooth="yes"/>
      <point x="184" y="562"/>
      <point x="229" y="588"/>
      <point x="310" y="588" type="curve" smooth="yes"/>
      <point x="386" y="588"/>
      <point x="427" y="561"/>
      <point x="460" y="513" type="curve"/>
      <point x="526" y="570" type="line"/>
      <point x="484" y="629"/>
      <point x="427" y="670"/>
      <point x="311" y="670" type="curve" smooth="yes"/>
      <point x="173" y="670"/>
      <point x="90" y="601"/>
    </contour>
    <contour>
      <point x="519" y="46" type="curve" smooth="yes"/>
      <point x="519" y="147"/>
      <point x="454" y="197"/>
      <point x="277" y="217" type="curve" smooth="yes"/>
      <point x="159" y="231"/>
      <point x="122" y="252"/>
      <point x="122" y="297" type="curve" smooth="yes"/>
      <point x="122" y="354"/>
      <point x="192" y="377"/>
      <point x="246" y="391" type="curve"/>
      <point x="191" y="455" type="line"/>
      <point x="113" y="434"/>
      <point x="29" y="381"/>
      <point x="29" y="285" type="curve" smooth="yes"/>
      <point x="29" y="194"/>
      <point x="92" y="148"/>
      <point x="260" y="128" type="curve" smooth="yes"/>
      <point x="386" y="112"/>
      <point x="425" y="87"/>
      <point x="425" y="37" type="curve" smooth="yes"/>
      <point x="425" y="-5"/>
      <point x="380" y="-28"/>
      <point x="302" y="-28" type="curve" smooth="yes"/>
      <point x="227" y="-28"/>
      <point x="182" y="-4"/>
      <point x="151" y="48" type="curve"/>
      <point x="83" y="-10" type="line"/>
      <point x="129" y="-73"/>
      <point x="193" y="-110"/>
      <point x="303" y="-110" type="curve" smooth="yes"/>
      <point x="435" y="-110"/>
      <point x="519" y="-44"/>
    </contour>
  </outline>
</glyph>
<glyph name="dieresis" format="2">
  <advance width="500"/>
  <unicode hex="00A8"/>
  <anchor x="252" y="500" name="_top"/>
  <outline>
    <contour>
      <point x="86" y="637" type="curve" smooth="yes"/>
      <point x="86" y="599"/>
      <point x="112" y="574"/>
      <point x="151" y="574" type="curve" smooth="yes"/>
      <point x="191" y="574"/>
      <point x="217" y="599"/>
      <point x="217" y="637" type="curve" smooth="yes"/>
      <point x="217" y="676"/>
      <point x="191" y="700"/>
      <point x="151" y="700" type="curve" smooth="yes"/>
      <point x="112" y="700"/>
      <point x="86" y="676"/>
    </contour>
    <contour>
      <point x="288" y="637" type="curve" smooth="yes"/>
      <point x="288" y="599"/>
      <point x="313" y="574"/>
      <point x="353" y="574" type="curve" smooth="yes"/>
      <point x="393" y="574"/>
      <point x="419" y="599"/>
      <point x="419" y="637" type="curve" smooth="yes"/>
      <point x="419" y="676"/>
      <point x="393" y="700"/>
      <point x="353" y="700" type="curve" smooth="yes"/>
      <point x="313" y="700"/>
      <point x="288" y="676"/>
    </contour>
  </outline>
</glyph>
<glyph name="copyright" format="2">
  <advance width="806"/>
  <unicode hex="00A9"/>
  <outline>
    <contour>
      <point x="60" y="330" type="curve" smooth="yes"/>
      <point x="60" y="124"/>
      <point x="195" y="-10"/>
      <point x="403" y="-10" type="curve" smooth="yes"/>
      <point x="611" y="-10"/>
      <point x="746" y="124"/>
      <point x="746" y="330" type="curve" smooth="yes"/>
      <point x="746" y="536"/>
      <point x="611" y="670"/>
      <point x="403" y="670" type="curve" smooth="yes"/>
      <point x="195" y="670"/>
      <point x="60" y="536"/>
    </contour>
    <contour>
      <point x="226" y="328" type="curve" smooth="yes"/>
      <point x="226" y="213"/>
      <point x="295" y="142"/>
      <point x="407" y="142" type="curve" smooth="yes"/>
      <point x="494" y="142"/>
      <point x="545" y="180"/>
      <point x="572" y="250" type="curve"/>
      <point x="506" y="279" type="line"/>
      <point x="490" y="237"/>
      <point x="458" y="218"/>
      <point x="409" y="218" type="curve" smooth="yes"/>
      <point x="346" y="218"/>
      <point x="308" y="259"/>
      <point x="308" y="328" type="curve" smooth="yes"/>
      <point x="308" y="398"/>
      <point x="346" y="438"/>
      <point x="409" y="438" type="curve" smooth="yes"/>
      <point x="456" y="438"/>
      <point x="484" y="420"/>
      <point x="500" y="381" type="curve"/>
      <point x="570" y="415" type="line"/>
      <point x="544" y="477"/>
      <point x="493" y="515"/>
      <point x="407" y="515" type="curve" smooth="yes"/>
      <point x="295" y="515"/>
      <point x="226" y="444"/>
    </contour>
    <contour>
      <point x="669" y="330" type="curve" smooth="yes"/>
      <point x="669" y="167"/>
      <point x="565" y="61"/>
      <point x="403" y="61" type="curve" smooth="yes"/>
      <point x="241" y="61"/>
      <point x="136" y="167"/>
      <point x="136" y="330" type="curve" smooth="yes"/>
      <point x="136" y="493"/>
      <point x="241" y="599"/>
      <point x="403" y="599" type="curve" smooth="yes"/>
      <point x="565" y="599"/>
      <point x="669" y="493"/>
    </contour>
  </outline>
</glyph>
<glyph name="ordfeminine" format="2">
  <advance width="399"/>
  <unicode hex="00AA"/>
  <outline>
    <contour>
      <point x="91" y="543" type="line"/>
      <point x="106" y="588"/>
      <point x="137" y="601"/>
      <point x="175" y="601" type="curve" smooth="yes"/>
      <point x="217" y="601"/>
      <point x="241" y="578"/>
      <point x="241" y="540" type="curve" smooth="yes"/>
      <point x="241" y="413" type="line"/>
      <point x="253" y="397" type="line"/>
      <point x="253" y="347"/>
      <point x="283" y="321"/>
      <point x="329" y="321" type="curve" smooth="yes"/>
      <point x="347" y="321"/>
      <point x="361" y="325"/>
      <point x="373" y="331" type="curve"/>
      <point x="379" y="382" type="line"/>
      <point x="374" y="379"/>
      <point x="367" y="378"/>
      <point x="356" y="378" type="curve" smooth="yes"/>
      <point x="339" y="378"/>
      <point x="326" y="385"/>
      <point x="326" y="409" type="curve" smooth="yes"/>
      <point x="326" y="541" type="line" smooth="yes"/>
      <point x="326" y="622"/>
      <point x="276" y="664"/>
      <point x="179" y="664" type="curve" smooth="yes"/>
      <point x="92" y="664"/>
      <point x="39" y="627"/>
      <point x="26" y="570" type="curve"/>
    </contour>
    <contour>
      <point x="362" y="186" type="line"/>
      <point x="362" y="250" type="line"/>
      <point x="28" y="250" type="line"/>
      <point x="28" y="186" type="line"/>
    </contour>
    <contour>
      <point x="273" y="425" type="curve"/>
      <point x="241" y="442" type="line"/>
      <point x="241" y="403"/>
      <point x="196" y="381"/>
      <point x="158" y="381" type="curve" smooth="yes"/>
      <point x="124" y="381"/>
      <point x="106" y="390"/>
      <point x="106" y="416" type="curve" smooth="yes"/>
      <point x="106" y="444"/>
      <point x="129" y="457"/>
      <point x="179" y="467" type="curve" smooth="yes"/>
      <point x="267" y="485" type="line"/>
      <point x="259" y="530" type="line"/>
      <point x="152" y="511" type="line" smooth="yes"/>
      <point x="60" y="494"/>
      <point x="20" y="460"/>
      <point x="20" y="404" type="curve" smooth="yes"/>
      <point x="20" y="350"/>
      <point x="62" y="321"/>
      <point x="130" y="321" type="curve" smooth="yes"/>
      <point x="216" y="321"/>
      <point x="273" y="364"/>
    </contour>
  </outline>
</glyph>
<glyph name="logicalnot" format="2">
  <advance width="604"/>
  <unicode hex="00AC"/>
  <outline>
    <contour>
      <point x="448" y="317" type="line"/>
      <point x="448" y="121" type="line"/>
      <point x="545" y="121" type="line"/>
      <point x="545" y="317" type="line"/>
    </contour>
    <contour>
      <point x="59" y="364" type="line"/>
      <point x="59" y="275" type="line"/>
      <point x="545" y="275" type="line"/>
      <point x="545" y="364" type="line"/>
    </contour>
  </outline>
</glyph>
<glyph name="plusminus" format="2">
  <advance width="604"/>
  <unicode hex="00B1"/>
  <outline>
    <contour>
      <point x="258" y="644" type="line"/>
      <point x="258" y="163" type="line"/>
      <point x="347" y="163" type="line"/>
      <point x="347" y="644" type="line"/>
    </contour>
    <contour>
      <point x="56" y="447" type="line"/>
      <point x="56" y="359" type="line"/>
      <point x="548" y="359" type="line"/>
      <point x="548" y="447" type="line"/>
    </contour>
    <contour>
      <point x="56" y="87" type="line"/>
      <point x="56" y="0" type="line"/>
      <point x="548" y="0" type="line"/>
      <point x="548" y="87" type="line"/>
    </contour>
  </outline>
</glyph>
<glyph name="uni00B5" format="2">
  <advance width="623"/>
  <unicode hex="00B5"/>
  <anchor x="313" y="500" name="top"/>
  <anchor x="540" y="0" name="ogonek"/>
  <anchor x="313" y="-210" name="bottom"/>
  <anchor x="510" y="0" name="bottomC"/>
  <outline>
    <contour>
      <point x="190" y="199" type="curve"/>
      <point x="127" y="171" type="line"/>
      <point x="127" y="41"/>
      <point x="189" y="-10"/>
      <point x="270" y="-10" type="curve" smooth="yes"/>
      <point x="389" y="-10"/>
      <point x="458" y="57"/>
      <point x="470" y="185" type="curve"/>
      <point x="433" y="194" type="line"/>
      <point x="423" y="120"/>
      <point x="371" y="78"/>
      <point x="294" y="78" type="curve" smooth="yes"/>
      <point x="230" y="78"/>
      <point x="190" y="106"/>
    </contour>
    <contour>
      <point x="83" y="500" type="line"/>
      <point x="83" y="-210" type="line"/>
      <point x="190" y="-210" type="line"/>
      <point x="190" y="500" type="line"/>
    </contour>
    <contour>
      <point x="433" y="500" type="line"/>
      <point x="433" y="153" type="line"/>
      <point x="440" y="125" type="line"/>
      <point x="450" y="0" type="line"/>
      <point x="540" y="0" type="line"/>
      <point x="540" y="123" type="line"/>
      <point x="540" y="500" type="line"/>
    </contour>
  </outline>
</glyph>
<glyph name="ordmasculine" format="2">
  <advance width="379"/>
  <unicode hex="00BA"/>
  <outline>
    <contour>
      <point x="354" y="492" type="curve" smooth="yes"/>
      <point x="354" y="600"/>
      <point x="296" y="664"/>
      <point x="189" y="664" type="curve" smooth="yes"/>
      <point x="83" y="664"/>
      <point x="25" y="600"/>
      <point x="25" y="492" type="curve" smooth="yes"/>
      <point x="25" y="385"/>
      <point x="83" y="321"/>
      <point x="189" y="321" type="curve" smooth="yes"/>
      <point x="296" y="321"/>
      <point x="354" y="385"/>
    </contour>
    <contour>
      <point x="343" y="186" type="line"/>
      <point x="343" y="250" type="line"/>
      <point x="36" y="250" type="line"/>
      <point x="36" y="186" type="line"/>
    </contour>
    <contour>
      <point x="112" y="492" type="curve" smooth="yes"/>
      <point x="112" y="563"/>
      <point x="136" y="602"/>
      <point x="189" y="602" type="curve" smooth="yes"/>
      <point x="242" y="602"/>
      <point x="267" y="563"/>
      <point x="267" y="492" type="curve" smooth="yes"/>
      <point x="267" y="422"/>
      <point x="242" y="384"/>
      <point x="189" y="384" type="curve" smooth="yes"/>
      <point x="136" y="384"/>
      <point x="112" y="422"/>
    </contour>
  </outline>
</glyph>
<glyph name="Aring" format="2">
  <advance width="665"/>
  <unicode hex="00C5"/>
  <anchor x="334" y="845" name="top"/>
  <anchor x="646" y="0" name="ogonek"/>
  <anchor x="333" y="0" name="bottom"/>
  <anchor x="605" y="0" name="bottomC"/>
  <outline>
    <contour>
      <point x="200" y="733" type="curve" smooth="yes"/>
      <point x="200" y="660"/>
      <point x="253" y="613"/>
      <point x="334" y="613" type="curve" smooth="yes"/>
      <point x="412" y="613"/>
      <point x="466" y="660"/>
      <point x="466" y="733" type="curve" smooth="yes"/>
      <point x="466" y="805"/>
      <point x="414" y="855"/>
      <point x="334" y="855" type="curve" smooth="yes"/>
      <point x="253" y="855"/>
      <point x="200" y="805"/>
    </contour>
    <contour>
      <point x="400" y="732" type="curve" smooth="yes"/>
      <point x="400" y="693"/>
      <point x="372" y="667"/>
      <point x="333" y="667" type="curve" smooth="yes"/>
      <point x="293" y="667"/>
      <point x="265" y="693"/>
      <point x="265" y="732" type="curve" smooth="yes"/>
      <point x="265" y="770"/>
      <point x="293" y="797"/>
      <point x="333" y="797" type="curve" smooth="yes"/>
      <point x="372" y="797"/>
      <point x="400" y="770"/>
    </contour>
    <contour>
      <point x="130" y="0" type="line"/>
      <point x="302" y="474" type="line"/>
      <point x="330" y="567" type="line"/>
      <point x="333" y="567" type="line"/>
      <point x="363" y="472" type="line"/>
      <point x="533" y="0" type="line"/>
      <point x="646" y="0" type="line"/>
      <point x="395" y="660" type="line"/>
      <point x="271" y="660" type="line"/>
      <point x="20" y="0" type="line"/>
    </contour>
    <contour>
      <point x="510" y="173" type="line"/>
      <point x="510" y="260" type="line"/>
      <point x="153" y="260" type="line"/>
      <point x="153" y="173" type="line"/>
    </contour>
  </outline>
</glyph>
<glyph name="AE" format="2">
  <advance width="945"/>
  <unicode hex="00C6"/>
  <anchor x="494" y="660" name="top"/>
  <anchor x="899" y="0" name="ogonek"/>
  <anchor x="494" y="0" name="bottom"/>
  <anchor x="522" y="0" name="bottomC"/>
  <outline>
    <contour>
      <point x="358" y="660" type="line"/>
      <point x="3" y="0" type="line"/>
      <point x="115" y="0" type="line"/>
      <point x="458" y="660" type="line"/>
    </contour>
    <contour>
      <point x="205" y="294" type="line"/>
      <point x="163" y="208" type="line"/>
      <point x="493" y="208" type="line"/>
      <point x="493" y="294" type="line"/>
    </contour>
    <contour>
      <point x="492" y="90" type="line"/>
      <point x="492" y="0" type="line"/>
      <point x="899" y="0" type="line"/>
      <point x="899" y="90" type="line"/>
    </contour>
    <contour>
      <point x="442" y="660" type="line"/>
      <point x="442" y="0" type="line"/>
      <point x="546" y="0" type="line"/>
      <point x="546" y="660" type="line"/>
    </contour>
    <contour>
      <point x="492" y="378" type="line"/>
      <point x="492" y="289" type="line"/>
      <point x="804" y="289" type="line"/>
      <point x="804" y="378" type="line"/>
    </contour>
    <contour>
      <point x="400" y="660" type="line"/>
      <point x="360" y="571" type="line"/>
      <point x="486" y="571" type="line"/>
      <point x="508" y="570" type="line"/>
      <point x="885" y="570" type="line"/>
      <point x="885" y="660" type="line"/>
    </contour>
  </outline>
</glyph>
<glyph name="Idieresis" format="2">
  <advance width="303"/>
  <unicode hex="00CF"/>
  <anchor x="151" y="0" name="bottomC"/>
  <anchor x="151" y="660" name="top"/>
  <anchor x="205" y="0" name="ogonek"/>
  <anchor x="151" y="0" name="bottom"/>
  <outline>
    <contour>
      <point x="-4" y="797" type="curve" smooth="yes"/>
      <point x="-4" y="759"/>
      <point x="21" y="734"/>
      <point x="60" y="734" type="curve" smooth="yes"/>
      <point x="100" y="734"/>
      <point x="125" y="759"/>
      <point x="125" y="797" type="curve" smooth="yes"/>
      <point x="125" y="836"/>
      <point x="100" y="860"/>
      <point x="60" y="860" type="curve" smooth="yes"/>
      <point x="21" y="860"/>
      <point x="-4" y="836"/>
    </contour>
    <contour>
      <point x="177" y="797" type="curve" smooth="yes"/>
      <point x="177" y="759"/>
      <point x="203" y="734"/>
      <point x="242" y="734" type="curve" smooth="yes"/>
      <point x="281" y="734"/>
      <point x="307" y="759"/>
      <point x="307" y="797" type="curve" smooth="yes"/>
      <point x="307" y="836"/>
      <point x="281" y="860"/>
      <point x="242" y="860" type="curve" smooth="yes"/>
      <point x="203" y="860"/>
      <point x="177" y="836"/>
    </contour>
    <component base="I"/>
  </outline>
</glyph>
<glyph name="multiply" format="2">
  <advance width="604"/>
  <unicode hex="00D7"/>
  <outline>
    <contour>
      <point x="73" y="156" type="line"/>
      <point x="466" y="549" type="line"/>
      <point x="530" y="484" type="line"/>
      <point x="138" y="91" type="line"/>
    </contour>
    <contour>
      <point x="73" y="484" type="line"/>
      <point x="138" y="549" type="line"/>
      <point x="530" y="156" type="line"/>
      <point x="466" y="91" type="line"/>
    </contour>
  </outline>
</glyph>
<glyph name="Oslash" format="2">
  <advance width="745"/>
  <unicode hex="00D8"/>
  <anchor x="372" y="660" name="top"/>
  <anchor x="452" y="0" name="ogonek"/>
  <anchor x="372" y="0" name="bottom"/>
  <anchor x="372" y="0" name="bottomC"/>
  <outline>
    <contour>
      <point x="589" y="682" type="line"/>
      <point x="512" y="573" type="line"/>
      <point x="558" y="533" type="line"/>
      <point x="664" y="682" type="line"/>
    </contour>
    <contour>
      <point x="187" y="112" type="line"/>
      <point x="235" y="72" type="line"/>
      <point x="558" y="534" type="line"/>
      <point x="510" y="574" type="line"/>
    </contour>
    <contour>
      <point x="156" y="-34" type="line"/>
      <point x="232" y="73" type="line"/>
      <point x="185" y="114" type="line"/>
      <point x="81" y="-34" type="line"/>
    </contour>
    <component base="O"/>
  </outline>
</glyph>
<glyph name="ae" format="2">
  <advance width="882"/>
  <unicode hex="00E6"/>
  <anchor x="427" y="500" name="top"/>
  <anchor x="689" y="2" name="ogonek"/>
  <anchor x="427" y="0" name="bottom"/>
  <anchor x="614" y="0" name="bottomC"/>
  <outline>
    <contour>
      <point x="820" y="106" type="curve"/>
      <point x="732" y="143" type="line"/>
      <point x="716" y="99"/>
      <point x="682" y="75"/>
      <point x="616" y="75" type="curve" smooth="yes"/>
      <point x="534" y="75"/>
      <point x="475" y="136"/>
      <point x="475" y="249" type="curve" smooth="yes"/>
      <point x="475" y="362"/>
      <point x="526" y="425"/>
      <point x="607" y="425" type="curve" smooth="yes"/>
      <point x="692" y="425"/>
      <point x="728" y="361"/>
      <point x="730" y="258" type="curve"/>
      <point x="779" y="290" type="line"/>
      <point x="424" y="290" type="line"/>
      <point x="424" y="217" type="line"/>
      <point x="826" y="217" type="line"/>
      <point x="828" y="231"/>
      <point x="830" y="251"/>
      <point x="830" y="274" type="curve" smooth="yes"/>
      <point x="830" y="406"/>
      <point x="757" y="510"/>
      <point x="608" y="510" type="curve" smooth="yes"/>
      <point x="479" y="510"/>
      <point x="396" y="405"/>
      <point x="396" y="250" type="curve" smooth="yes"/>
      <point x="396" y="71"/>
      <point x="481" y="-10"/>
      <point x="614" y="-10" type="curve" smooth="yes"/>
      <point x="724" y="-10"/>
      <point x="785" y="32"/>
    </contour>
    <contour>
      <point x="435" y="179" type="curve"/>
      <point x="377" y="191" type="line"/>
      <point x="377" y="113"/>
      <point x="311" y="68"/>
      <point x="239" y="68" type="curve" smooth="yes"/>
      <point x="185" y="68"/>
      <point x="156" y="88"/>
      <point x="156" y="128" type="curve" smooth="yes"/>
      <point x="156" y="172"/>
      <point x="188" y="194"/>
      <point x="267" y="207" type="curve" smooth="yes"/>
      <point x="421" y="233" type="line"/>
      <point x="409" y="296" type="line"/>
      <point x="236" y="271" type="line" smooth="yes"/>
      <point x="111" y="253"/>
      <point x="50" y="199"/>
      <point x="50" y="121" type="curve" smooth="yes"/>
      <point x="50" y="41"/>
      <point x="111" y="-10"/>
      <point x="213" y="-10" type="curve" smooth="yes"/>
      <point x="342" y="-10"/>
      <point x="435" y="59"/>
    </contour>
    <contour>
      <point x="467" y="181" type="line"/>
      <point x="467" y="293" type="line" smooth="yes"/>
      <point x="467" y="434"/>
      <point x="388" y="510"/>
      <point x="268" y="510" type="curve" smooth="yes"/>
      <point x="162" y="510"/>
      <point x="83" y="460"/>
      <point x="58" y="378" type="curve"/>
      <point x="141" y="337" type="line"/>
      <point x="164" y="397"/>
      <point x="208" y="426"/>
      <point x="268" y="426" type="curve" smooth="yes"/>
      <point x="339" y="426"/>
      <point x="377" y="387"/>
      <point x="377" y="327" type="curve" smooth="yes"/>
      <point x="377" y="169" type="line"/>
    </contour>
  </outline>
</glyph>
<glyph name="divide" format="2">
  <advance width="604"/>
  <unicode hex="00F7"/>
  <outline>
    <contour>
      <point x="56" y="364" type="line"/>
      <point x="56" y="275" type="line"/>
      <point x="548" y="275" type="line"/>
      <point x="548" y="364" type="line"/>
    </contour>
    <component base="period" xScale="0.95986" yScale="0.97534" xOffset="172" yOffset="56"/>
    <component base="period" xScale="0.95986" yScale="0.97534" xOffset="172" yOffset="459"/>
  </outline>
</glyph>
<glyph name="thorn" format="2">
  <advance width="629"/>
  <unicode hex="00FE"/>
  <anchor x="137" y="725" name="top"/>
  <anchor x="454" y="16" name="ogonek"/>
  <anchor x="137" y="-210" name="bottom"/>
  <anchor x="343" y="0" name="bottomC"/>
  <outline>
    <contour>
      <point x="83" y="725" type="line"/>
      <point x="83" y="-210" type="line"/>
      <point x="190" y="-210" type="line"/>
      <point x="190" y="725" type="line"/>
    </contour>
    <contour>
      <point x="163" y="327" type="curve"/>
      <point x="190" y="256" type="line"/>
      <point x="190" y="361"/>
      <point x="244" y="424"/>
      <point x="328" y="424" type="curve" smooth="yes"/>
      <point x="415" y="424"/>
      <point x="466" y="359"/>
      <point x="466" y="250" type="curve" smooth="yes"/>
      <point x="466" y="141"/>
      <point x="415" y="77"/>
      <point x="328" y="77" type="curve" smooth="yes"/>
      <point x="244" y="77"/>
      <point x="190" y="140"/>
      <point x="190" y="244" type="curve"/>
      <point x="162" y="173" type="line"/>
      <point x="162" y="72"/>
      <point x="234" y="-10"/>
      <point x="352" y="-10" type="curve" smooth="yes"/>
      <point x="479" y="-10"/>
      <point x="573" y="78"/>
      <point x="573" y="251" type="curve" smooth="yes"/>
      <point x="573" y="418"/>
      <point x="484" y="510"/>
      <point x="353" y="510" type="curve" smooth="yes"/>
      <point x="235" y="510"/>
      <point x="163" y="426"/>
    </contour>
  </outline>
</glyph>
<glyph name="aogonek" format="2">
  <advance width="570"/>
  <unicode hex="0105"/>
  <anchor x="276" y="500" name="top"/>
  <anchor x="510" y="-210" name="ogonek"/>
  <anchor x="276" y="-210" name="bottom"/>
  <anchor x="481" y="-210" name="bottomC"/>
  <outline>
    <contour>
      <point x="58" y="377" type="curve"/>
      <point x="141" y="337" type="line"/>
      <point x="163" y="397"/>
      <point x="208" y="426"/>
      <point x="267" y="426" type="curve" smooth="yes"/>
      <point x="334" y="426"/>
      <point x="372" y="386"/>
      <point x="372" y="327" type="curve" smooth="yes"/>
      <point x="372" y="125" type="line"/>
      <point x="380" y="115" type="line" smooth="yes"/>
      <point x="380" y="23"/>
      <point x="440" y="-7"/>
      <point x="491" y="-7" type="curve" smooth="yes"/>
      <point x="508" y="-7"/>
      <point x="530" y="-3"/>
      <point x="545" y="1" type="curve"/>
      <point x="553" y="75" type="line"/>
      <point x="542" y="72"/>
      <point x="528" y="70"/>
      <point x="515" y="70" type="curve" smooth="yes"/>
      <point x="489" y="70"/>
      <point x="478" y="82"/>
      <point x="478" y="107" type="curve" smooth="yes"/>
      <point x="478" y="334" type="line" smooth="yes"/>
      <point x="478" y="453"/>
      <point x="396" y="510"/>
      <point x="270" y="510" type="curve" smooth="yes"/>
      <point x="161" y="510"/>
      <point x="81" y="458"/>
    </contour>
    <contour>
      <point x="344" y="-114" type="curve" smooth="yes"/>
      <point x="344" y="-178"/>
      <point x="393" y="-215"/>
      <point x="467" y="-215" type="curve" smooth="yes"/>
      <point x="500" y="-215"/>
      <point x="530" y="-209"/>
      <point x="552" y="-196" type="curve"/>
      <point x="534" y="-135" type="line"/>
      <point x="519" y="-144"/>
      <point x="498" y="-146"/>
      <point x="481" y="-146" type="curve" smooth="yes"/>
      <point x="445" y="-146"/>
      <point x="425" y="-128"/>
      <point x="425" y="-96" type="curve" smooth="yes"/>
      <point x="425" y="-57"/>
      <point x="453" y="-25"/>
      <point x="545" y="1" type="curve"/>
      <point x="490" y="26" type="line"/>
      <point x="399" y="0"/>
      <point x="344" y="-43"/>
    </contour>
    <contour>
      <point x="245" y="278" type="line" smooth="yes"/>
      <point x="113" y="255"/>
      <point x="50" y="198"/>
      <point x="50" y="121" type="curve" smooth="yes"/>
      <point x="50" y="34"/>
      <point x="121" y="-10"/>
      <point x="217" y="-10" type="curve" smooth="yes"/>
      <point x="314" y="-10"/>
      <point x="401" y="48"/>
      <point x="401" y="132" type="curve"/>
      <point x="372" y="167" type="line"/>
      <point x="372" y="107"/>
      <point x="307" y="70"/>
      <point x="237" y="70" type="curve" smooth="yes"/>
      <point x="187" y="70"/>
      <point x="157" y="90"/>
      <point x="157" y="129" type="curve" smooth="yes"/>
      <point x="157" y="172"/>
      <point x="197" y="197"/>
      <point x="274" y="213" type="curve" smooth="yes"/>
      <point x="418" y="242" type="line"/>
      <point x="406" y="306" type="line"/>
    </contour>
  </outline>
</glyph>
<glyph name="Dcroat" format="2">
  <advance width="738"/>
  <unicode hex="0110"/>
  <anchor x="344" y="0" name="bottom"/>
  <anchor x="344" y="660" name="top"/>
  <anchor x="349" y="0" name="ogonek"/>
  <anchor x="321" y="273" name="center"/>
  <anchor x="335" y="0" name="bottomC"/>
  <outline>
    <contour>
      <point x="22" y="370" type="line"/>
      <point x="22" y="294" type="line"/>
      <point x="400" y="294" type="line"/>
      <point x="400" y="370" type="line"/>
    </contour>
    <component base="D" xOffset="18"/>
  </outline>
</glyph>
<glyph name="dcroat" format="2">
  <advance width="629"/>
  <unicode hex="0111"/>
  <anchor x="321" y="250" name="center"/>
  <anchor x="308" y="0" name="bottom"/>
  <anchor x="493" y="725" name="top"/>
  <anchor x="293" y="0" name="bottomC"/>
  <anchor x="619" y="725" name="topright"/>
  <anchor x="374" y="16" name="ogonek"/>
  <outline>
    <contour>
      <point x="290" y="629" type="line"/>
      <point x="290" y="558" type="line"/>
      <point x="623" y="558" type="line"/>
      <point x="623" y="629" type="line"/>
    </contour>
    <component base="d"/>
  </outline>
</glyph>
<glyph name="gbreve" format="2">
  <advance width="540"/>
  <unicode hex="011F"/>
  <outline>
    <contour>
      <point x="385" y="459" type="curve"/>
      <point x="437" y="438" type="line"/>
      <point x="435" y="498"/>
      <point x="476" y="523"/>
      <point x="544" y="522" type="curve"/>
      <point x="526" y="605" type="line"/>
      <point x="444" y="605"/>
      <point x="380" y="545"/>
    </contour>
    <component base="gbase" xOffset="-9"/>
    <component base="breve" xOffset="29"/>
  </outline>
</glyph>
<glyph name="uni0123" format="2">
  <advance width="540"/>
  <unicode hex="0123"/>
  <anchor x="273" y="-210" name="bottomC"/>
  <anchor x="265" y="500" name="top"/>
  <anchor x="405" y="-194" name="ogonek"/>
  <anchor x="273" y="-210" name="bottom"/>
  <outline>
    <contour>
      <point x="291" y="776" type="line"/>
      <point x="221" y="580" type="line"/>
      <point x="325" y="580" type="line"/>
      <point x="365" y="776" type="line"/>
    </contour>
    <component base="g"/>
  </outline>
</glyph>
<glyph name="iogonek" format="2">
  <advance width="274"/>
  <unicode hex="012F"/>
  <anchor x="137" y="707" name="top"/>
  <anchor x="187" y="2" name="ogonek"/>
  <anchor x="137" y="0" name="bottom"/>
  <anchor x="137" y="0" name="bottomC"/>
  <outline>
    <contour>
      <point x="136" y="22" type="line"/>
      <point x="53" y="-11"/>
      <point x="7" y="-52"/>
      <point x="7" y="-113" type="curve" smooth="yes"/>
      <point x="7" y="-178"/>
      <point x="56" y="-215"/>
      <point x="129" y="-215" type="curve" smooth="yes"/>
      <point x="169" y="-215"/>
      <point x="197" y="-208"/>
      <point x="220" y="-193" type="curve"/>
      <point x="200" y="-134" type="line"/>
      <point x="185" y="-143"/>
      <point x="163" y="-147"/>
      <point x="144" y="-147" type="curve" smooth="yes"/>
      <point x="108" y="-147"/>
      <point x="89" y="-128"/>
      <point x="89" y="-99" type="curve" smooth="yes"/>
      <point x="89" y="-64"/>
      <point x="114" y="-36"/>
      <point x="190" y="0" type="curve"/>
    </contour>
    <component base="i"/>
  </outline>
</glyph>
<glyph name="idotless" format="2">
  <advance width="274"/>
  <unicode hex="0131"/>
  <anchor x="137" y="500" name="top"/>
  <anchor x="187" y="2" name="ogonek"/>
  <anchor x="137" y="0" name="bottom"/>
  <anchor x="137" y="0" name="bottomC"/>
  <outline>
    <contour>
      <point x="83" y="500" type="line"/>
      <point x="83" y="0" type="line"/>
      <point x="190" y="0" type="line"/>
      <point x="190" y="500" type="line"/>
    </contour>
  </outline>
</glyph>
<glyph name="Lslash" format="2">
  <advance width="633"/>
  <unicode hex="0141"/>
  <anchor x="487" y="346" name="center"/>
  <anchor x="388" y="0" name="bottom"/>
  <anchor x="185" y="660" name="top"/>
  <anchor x="388" y="0" name="bottomC"/>
  <anchor x="349" y="700" name="topright"/>
  <anchor x="602" y="0" name="ogonek"/>
  <outline>
    <contour>
      <point x="25" y="283" type="line"/>
      <point x="25" y="187" type="line"/>
      <point x="414" y="393" type="line"/>
      <point x="414" y="489" type="line"/>
    </contour>
    <component base="L" xOffset="34"/>
  </outline>
</glyph>
<glyph name="lslash" format="2">
  <advance width="379"/>
  <unicode hex="0142"/>
  <anchor x="321" y="354" name="center"/>
  <anchor x="252" y="0" name="bottom"/>
  <anchor x="176" y="725" name="top"/>
  <anchor x="251" y="0" name="bottomC"/>
  <anchor x="266" y="725" name="topright"/>
  <anchor x="313" y="0" name="ogonek"/>
  <outline>
    <contour>
      <point x="177" y="394" type="line"/>
      <point x="32" y="309" type="line"/>
      <point x="32" y="214" type="line"/>
      <point x="196" y="319" type="line"/>
      <point x="347" y="408" type="line"/>
      <point x="347" y="503" type="line"/>
    </contour>
    <component base="l" xOffset="45"/>
  </outline>
</glyph>
<glyph name="OE" format="2">
  <advance width="1070"/>
  <unicode hex="0152"/>
  <anchor x="590" y="660" name="top"/>
  <anchor x="1025" y="0" name="ogonek"/>
  <anchor x="590" y="0" name="bottom"/>
  <anchor x="645" y="0" name="bottomC"/>
  <outline>
    <contour>
      <point x="61" y="330" type="curve" smooth="yes"/>
      <point x="61" y="120"/>
      <point x="178" y="-10"/>
      <point x="367" y="-10" type="curve" smooth="yes"/>
      <point x="539" y="-10"/>
      <point x="649" y="128"/>
      <point x="649" y="330" type="curve" smooth="yes"/>
      <point x="649" y="532"/>
      <point x="542" y="670"/>
      <point x="370" y="670" type="curve" smooth="yes"/>
      <point x="177" y="670"/>
      <point x="61" y="540"/>
    </contour>
    <contour>
      <point x="562" y="330" type="curve" smooth="yes"/>
      <point x="562" y="173"/>
      <point x="487" y="83"/>
      <point x="372" y="83" type="curve" smooth="yes"/>
      <point x="243" y="83"/>
      <point x="172" y="173"/>
      <point x="172" y="330" type="curve" smooth="yes"/>
      <point x="172" y="487"/>
      <point x="243" y="577"/>
      <point x="372" y="577" type="curve" smooth="yes"/>
      <point x="487" y="577"/>
      <point x="562" y="487"/>
    </contour>
    <contour>
      <point x="617" y="92" type="line"/>
      <point x="617" y="0" type="line"/>
      <point x="1025" y="0" type="line"/>
      <point x="1025" y="92" type="line"/>
    </contour>
    <contour>
      <point x="578" y="660" type="line"/>
      <point x="578" y="0" type="line"/>
      <point x="664" y="0" type="line"/>
      <point x="664" y="660" type="line"/>
    </contour>
    <contour>
      <point x="617" y="378" type="line"/>
      <point x="617" y="288" type="line"/>
      <point x="930" y="288" type="line"/>
      <point x="930" y="378" type="line"/>
    </contour>
    <contour>
      <point x="617" y="660" type="line"/>
      <point x="617" y="568" type="line"/>
      <point x="1010" y="568" type="line"/>
      <point x="1010" y="660" type="line"/>
    </contour>
  </outline>
</glyph>
<glyph name="uni0162" format="2">
  <advance width="619"/>
  <unicode hex="0162"/>
  <anchor x="309" y="-210" name="bottom"/>
  <anchor x="309" y="660" name="top"/>
  <anchor x="337" y="-210" name="ogonek"/>
  <anchor x="309" y="330" name="center"/>
  <anchor x="309" y="-210" name="bottomC"/>
  <outline>
    <contour>
      <point x="347" y="-89" type="curve" smooth="yes"/>
      <point x="347" y="-124"/>
      <point x="322" y="-145"/>
      <point x="291" y="-145" type="curve" smooth="yes"/>
      <point x="261" y="-145"/>
      <point x="238" y="-132"/>
      <point x="222" y="-115" type="curve"/>
      <point x="187" y="-178" type="line"/>
      <point x="215" y="-203"/>
      <point x="251" y="-215"/>
      <point x="303" y="-215" type="curve" smooth="yes"/>
      <point x="378" y="-215"/>
      <point x="428" y="-168"/>
      <point x="428" y="-104" type="curve" smooth="yes"/>
      <point x="428" y="-53"/>
      <point x="400" y="-11"/>
      <point x="330" y="20" type="curve"/>
      <point x="268" y="0" type="line"/>
      <point x="324" y="-32"/>
      <point x="347" y="-52"/>
    </contour>
    <component base="T"/>
  </outline>
</glyph>
<glyph name="longs" format="2">
  <advance width="280"/>
  <unicode hex="017F"/>
  <anchor x="197" y="725" name="top"/>
  <anchor x="186" y="0" name="ogonek"/>
  <anchor x="150" y="0" name="bottom"/>
  <anchor x="132" y="0" name="bottomC"/>
  <outline>
    <contour>
      <point x="186" y="0" type="line"/>
      <point x="186" y="563" type="line" smooth="yes"/>
      <point x="186" y="621"/>
      <point x="212" y="645"/>
      <point x="256" y="645" type="curve" smooth="yes"/>
      <point x="274" y="645"/>
      <point x="288" y="641"/>
      <point x="300" y="631" type="curve"/>
      <point x="315" y="709" type="line"/>
      <point x="298" y="724"/>
      <point x="272" y="732"/>
      <point x="232" y="732" type="curve" smooth="yes"/>
      <point x="130" y="732"/>
      <point x="80" y="673"/>
      <point x="80" y="572" type="curve" smooth="yes"/>
      <point x="80" y="0" type="line"/>
    </contour>
  </outline>
</glyph>
<glyph name="florin" format="2">
  <advance width="496"/>
  <unicode hex="0192"/>
  <outline>
    <contour>
      <point x="229" y="574" type="curve" smooth="yes"/>
      <point x="142" y="42" type="line" smooth="yes"/>
      <point x="134" y="-15"/>
      <point x="107" y="-42"/>
      <point x="64" y="-42" type="curve" smooth="yes"/>
      <point x="37" y="-42"/>
      <point x="16" y="-35"/>
      <point x="-4" y="-21" type="curve"/>
      <point x="-19" y="-103" type="line"/>
      <point x="13" y="-123"/>
      <point x="35" y="-128"/>
      <point x="78" y="-128" type="curve" smooth="yes"/>
      <point x="169" y="-128"/>
      <point x="225" y="-74"/>
      <point x="242" y="30" type="curve" smooth="yes"/>
      <point x="328" y="563" type="line" smooth="yes"/>
      <point x="337" y="619"/>
      <point x="363" y="646"/>
      <point x="407" y="646" type="curve" smooth="yes"/>
      <point x="434" y="646"/>
      <point x="454" y="640"/>
      <point x="475" y="625" type="curve"/>
      <point x="490" y="708" type="line"/>
      <point x="457" y="727"/>
      <point x="436" y="733"/>
      <point x="393" y="733" type="curve" smooth="yes"/>
      <point x="301" y="733"/>
      <point x="246" y="678"/>
    </contour>
    <contour>
      <point x="49" y="405" type="line"/>
      <point x="49" y="321" type="line"/>
      <point x="447" y="321" type="line"/>
      <point x="447" y="405" type="line"/>
    </contour>
  </outline>
</glyph>
<glyph name="jdotless" format="2">
  <advance width="274"/>
  <unicode hex="0237"/>
  <anchor x="137" y="500" name="top"/>
  <anchor x="91" y="-204" name="ogonek"/>
  <anchor x="53" y="-210" name="bottom"/>
  <anchor x="53" y="-210" name="bottomC"/>
  <outline>
    <contour>
      <point x="83" y="500" type="line"/>
      <point x="83" y="-34" type="line" smooth="yes"/>
      <point x="83" y="-101"/>
      <point x="55" y="-124"/>
      <point x="12" y="-124" type="curve" smooth="yes"/>
      <point x="-20" y="-124"/>
      <point x="-47" y="-111"/>
      <point x="-65" y="-96" type="curve"/>
      <point x="-84" y="-182" type="line"/>
      <point x="-57" y="-202"/>
      <point x="-19" y="-215"/>
      <point x="26" y="-215" type="curve" smooth="yes"/>
      <point x="110" y="-215"/>
      <point x="190" y="-172"/>
      <point x="190" y="-44" type="curve" smooth="yes"/>
      <point x="190" y="500" type="line"/>
    </contour>
  </outline>
</glyph>
<glyph name="breve" format="2">
  <advance width="500"/>
  <unicode hex="02D8"/>
  <anchor x="250" y="500" name="_top"/>
  <outline>
    <contour>
      <point x="325" y="723" type="line"/>
      <point x="325" y="678"/>
      <point x="294" y="641"/>
      <point x="250" y="641" type="curve" smooth="yes"/>
      <point x="206" y="641"/>
      <point x="175" y="678"/>
      <point x="175" y="723" type="curve"/>
      <point x="96" y="723" type="line"/>
      <point x="96" y="631"/>
      <point x="157" y="570"/>
      <point x="250" y="570" type="curve" smooth="yes"/>
      <point x="343" y="570"/>
      <point x="404" y="631"/>
      <point x="404" y="723" type="curve"/>
    </contour>
  </outline>
</glyph>
<glyph name="tilde" format="2">
  <advance width="500"/>
  <unicode hex="02DC"/>
  <anchor x="251" y="500" name="_top"/>
  <outline>
    <contour>
      <point x="363" y="717" type="line"/>
      <point x="357" y="676"/>
      <point x="345" y="652"/>
      <point x="317" y="652" type="curve" smooth="yes"/>
      <point x="277" y="652"/>
      <point x="257" y="717"/>
      <point x="183" y="717" type="curve" smooth="yes"/>
      <point x="108" y="717"/>
      <point x="70" y="669"/>
      <point x="64" y="575" type="curve"/>
      <point x="137" y="575" type="line"/>
      <point x="143" y="617"/>
      <point x="155" y="641"/>
      <point x="182" y="641" type="curve" smooth="yes"/>
      <point x="224" y="641"/>
      <point x="242" y="576"/>
      <point x="318" y="576" type="curve" smooth="yes"/>
      <point x="391" y="576"/>
      <point x="430" y="624"/>
      <point x="436" y="717" type="curve"/>
    </contour>
  </outline>
</glyph>
<glyph name="hungarumlaut" format="2">
  <advance width="500"/>
  <unicode hex="02DD"/>
  <anchor x="228" y="500" name="_top"/>
  <outline>
    <contour>
      <point x="337" y="746" type="line"/>
      <point x="263" y="578" type="line"/>
      <point x="343" y="578" type="line"/>
      <point x="440" y="746" type="line"/>
    </contour>
    <contour>
      <point x="150" y="746" type="line"/>
      <point x="76" y="578" type="line"/>
      <point x="157" y="578" type="line"/>
      <point x="254" y="746" type="line"/>
    </contour>
  </outline>
</glyph>
<glyph name="pi" format="2">
  <advance width="752"/>
  <unicode hex="03C0"/>
  <outline>
    <contour>
      <point x="714" y="500" type="line"/>
      <point x="28" y="500" type="line"/>
      <point x="28" y="418" type="line"/>
      <point x="714" y="418" type="line"/>
    </contour>
    <contour>
      <point x="160" y="500" type="line"/>
      <point x="160" y="0" type="line"/>
      <point x="267" y="0" type="line"/>
      <point x="267" y="500" type="line"/>
    </contour>
    <contour>
      <point x="460" y="500" type="line"/>
      <point x="460" y="132" type="line" smooth="yes"/>
      <point x="460" y="32"/>
      <point x="510" y="-5"/>
      <point x="657" y="-1" type="curve"/>
      <point x="673" y="81" type="line"/>
      <point x="599" y="79"/>
      <point x="567" y="97"/>
      <point x="567" y="150" type="curve" smooth="yes"/>
      <point x="567" y="500" type="line"/>
    </contour>
  </outline>
</glyph>
<glyph name="Germandbls" format="2">
  <advance width="699"/>
  <unicode hex="1E9E"/>
  <anchor x="378" y="660" name="top"/>
  <anchor x="500" y="0" name="ogonek"/>
  <anchor x="378" y="0" name="bottom"/>
  <anchor x="458" y="0" name="bottomC"/>
  <outline>
    <contour>
      <point x="205" y="0" type="line"/>
      <point x="205" y="428" type="line" smooth="yes"/>
      <point x="205" y="511"/>
      <point x="266" y="569"/>
      <point x="344" y="569" type="curve" smooth="yes"/>
      <point x="507" y="569" type="line"/>
      <point x="341" y="368" type="line"/>
      <point x="411" y="322" type="line"/>
      <point x="623" y="569" type="line"/>
      <point x="623" y="660" type="line"/>
      <point x="335" y="660" type="line" smooth="yes"/>
      <point x="196" y="660"/>
      <point x="98" y="572"/>
      <point x="98" y="436" type="curve" smooth="yes"/>
      <point x="98" y="0" type="line"/>
    </contour>
    <contour>
      <point x="665" y="186" type="curve" smooth="yes"/>
      <point x="665" y="306"/>
      <point x="579" y="368"/>
      <point x="458" y="368" type="curve" smooth="yes"/>
      <point x="341" y="368" type="line"/>
      <point x="341" y="291" type="line"/>
      <point x="422" y="291" type="line" smooth="yes"/>
      <point x="508" y="291"/>
      <point x="557" y="252"/>
      <point x="557" y="187" type="curve" smooth="yes"/>
      <point x="557" y="125"/>
      <point x="511" y="83"/>
      <point x="441" y="83" type="curve" smooth="yes"/>
      <point x="390" y="83"/>
      <point x="344" y="101"/>
      <point x="319" y="129" type="curve"/>
      <point x="282" y="57" type="line"/>
      <point x="308" y="22"/>
      <point x="370" y="-5"/>
      <point x="457" y="-5" type="curve" smooth="yes"/>
      <point x="577" y="-5"/>
      <point x="665" y="67"/>
    </contour>
  </outline>
</glyph>
<glyph name="emdash" format="2">
  <advance width="1011"/>
  <unicode hex="2014"/>
  <outline>
    <contour>
      <point x="81" y="310" type="line"/>
      <point x="81" y="217" type="line"/>
      <point x="931" y="217" type="line"/>
      <point x="931" y="310" type="line"/>
    </contour>
  </outline>
</glyph>
<glyph name="dagger" format="2">
  <advance width="538"/>
  <unicode hex="2020"/>
  <outline>
    <contour>
      <point x="217" y="660" type="line"/>
      <point x="217" y="-100" type="line"/>
      <point x="321" y="-100" type="line"/>
      <point x="321" y="660" type="line"/>
    </contour>
    <contour>
      <point x="38" y="454" type="line"/>
      <point x="38" y="366" type="line"/>
      <point x="500" y="366" type="line"/>
      <point x="500" y="454" type="line"/>
    </contour>
  </outline>
</glyph>
<glyph name="daggerdbl" format="2">
  <advance width="538"/>
  <unicode hex="2021"/>
  <outline>
    <contour>
      <point x="219" y="660" type="line"/>
      <point x="219" y="-100" type="line"/>
      <point x="319" y="-100" type="line"/>
      <point x="319" y="660" type="line"/>
    </contour>
    <contour>
      <point x="39" y="457" type="line"/>
      <point x="39" y="372" type="line"/>
      <point x="498" y="372" type="line"/>
      <point x="498" y="457" type="line"/>
    </contour>
    <contour>
      <point x="39" y="187" type="line"/>
      <point x="39" y="101" type="line"/>
      <point x="498" y="101" type="line"/>
      <point x="498" y="187" type="line"/>
    </contour>
  </outline>
</glyph>
<glyph name="perthousand" format="2">
  <advance width="1277"/>
  <unicode hex="2030"/>
  <outline>
    <contour>
      <point x="906" y="174" type="curve" smooth="yes"/>
      <point x="906" y="63"/>
      <point x="972" y="-10"/>
      <point x="1073" y="-10" type="curve" smooth="yes"/>
      <point x="1175" y="-10"/>
      <point x="1240" y="63"/>
      <point x="1240" y="174" type="curve" smooth="yes"/>
      <point x="1240" y="285"/>
      <point x="1175" y="358"/>
      <point x="1073" y="358" type="curve" smooth="yes"/>
      <point x="972" y="358"/>
      <point x="906" y="285"/>
    </contour>
    <contour>
      <point x="1153" y="174" type="curve" smooth="yes"/>
      <point x="1153" y="107"/>
      <point x="1125" y="68"/>
      <point x="1073" y="68" type="curve" smooth="yes"/>
      <point x="1022" y="68"/>
      <point x="994" y="107"/>
      <point x="994" y="174" type="curve" smooth="yes"/>
      <point x="994" y="240"/>
      <point x="1022" y="279"/>
      <point x="1073" y="279" type="curve" smooth="yes"/>
      <point x="1125" y="279"/>
      <point x="1153" y="240"/>
    </contour>
    <component base="percent"/>
  </outline>
</glyph>
<glyph name="zerosuperior" format="2">
  <advance width="401"/>
  <unicode hex="2070"/>
  <outline>
    <contour>
      <point x="370" y="531" type="curve" smooth="yes"/>
      <point x="370" y="666"/>
      <point x="313" y="735"/>
      <point x="201" y="735" type="curve" smooth="yes"/>
      <point x="88" y="735"/>
      <point x="31" y="666"/>
      <point x="31" y="531" type="curve" smooth="yes"/>
      <point x="31" y="396"/>
      <point x="88" y="327"/>
      <point x="201" y="327" type="curve" smooth="yes"/>
      <point x="313" y="327"/>
      <point x="370" y="396"/>
    </contour>
    <contour>
      <point x="117" y="531" type="curve" smooth="yes"/>
      <point x="117" y="624"/>
      <point x="143" y="669"/>
      <point x="201" y="669" type="curve" smooth="yes"/>
      <point x="258" y="669"/>
      <point x="284" y="624"/>
      <point x="284" y="531" type="curve" smooth="yes"/>
      <point x="284" y="438"/>
      <point x="258" y="393"/>
      <point x="201" y="393" type="curve" smooth="yes"/>
      <point x="143" y="393"/>
      <point x="117" y="438"/>
    </contour>
  </outline>
</glyph>
<glyph name="foursuperior" format="2">
  <advance width="369"/>
  <unicode hex="2074"/>
  <anchor x="204" y="527" name="_indexring"/>
  <outline>
    <contour>
      <point x="283" y="487" type="line"/>
      <point x="283" y="730" type="line"/>
      <point x="185" y="730" type="line"/>
      <point x="10" y="471" type="line"/>
      <point x="10" y="428" type="line"/>
      <point x="209" y="428" type="line"/>
      <point x="209" y="333" type="line"/>
      <point x="283" y="333" type="line"/>
      <point x="283" y="428" type="line"/>
      <point x="350" y="428" type="line"/>
      <point x="350" y="487" type="line"/>
    </contour>
    <contour>
      <point x="178" y="612" type="line" smooth="yes"/>
      <point x="188" y="628"/>
      <point x="201" y="652"/>
      <point x="209" y="668" type="curve"/>
      <point x="212" y="668" type="line"/>
      <point x="210" y="643"/>
      <point x="209" y="616"/>
      <point x="209" y="590" type="curve" smooth="yes"/>
      <point x="209" y="487" type="line"/>
      <point x="89" y="487" type="line"/>
    </contour>
  </outline>
</glyph>
<glyph name="sixsuperior" format="2">
  <advance width="383"/>
  <unicode hex="2076"/>
  <anchor x="203" y="531" name="_indexring"/>
  <outline>
    <contour>
      <point x="355" y="454" type="curve" smooth="yes"/>
      <point x="355" y="532"/>
      <point x="300" y="578"/>
      <point x="219" y="578" type="curve" smooth="yes"/>
      <point x="171" y="578"/>
      <point x="139" y="563"/>
      <point x="114" y="527" type="curve"/>
      <point x="113" y="527" type="line"/>
      <point x="113" y="531"/>
      <point x="113" y="534"/>
      <point x="113" y="539" type="curve" smooth="yes"/>
      <point x="113" y="608"/>
      <point x="145" y="669"/>
      <point x="209" y="669" type="curve" smooth="yes"/>
      <point x="249" y="669"/>
      <point x="271" y="648"/>
      <point x="280" y="617" type="curve"/>
      <point x="349" y="652" type="line"/>
      <point x="325" y="711"/>
      <point x="278" y="735"/>
      <point x="209" y="735" type="curve" smooth="yes"/>
      <point x="108" y="735"/>
      <point x="32" y="668"/>
      <point x="32" y="531" type="curve" smooth="yes"/>
      <point x="32" y="397"/>
      <point x="93" y="327"/>
      <point x="200" y="327" type="curve" smooth="yes"/>
      <point x="297" y="327"/>
      <point x="355" y="375"/>
    </contour>
    <contour>
      <point x="129" y="455" type="curve" smooth="yes"/>
      <point x="129" y="488"/>
      <point x="158" y="519"/>
      <point x="202" y="519" type="curve" smooth="yes"/>
      <point x="247" y="519"/>
      <point x="275" y="494"/>
      <point x="275" y="455" type="curve" smooth="yes"/>
      <point x="275" y="415"/>
      <point x="247" y="392"/>
      <point x="202" y="392" type="curve" smooth="yes"/>
      <point x="158" y="392"/>
      <point x="129" y="416"/>
    </contour>
  </outline>
</glyph>
<glyph name="sevensuperior" format="2">
  <advance width="325"/>
  <unicode hex="2077"/>
  <anchor x="154" y="543" name="_indexring"/>
  <outline>
    <contour>
      <point x="188" y="333" type="line"/>
      <point x="188" y="462"/>
      <point x="221" y="567"/>
      <point x="318" y="666" type="curve"/>
      <point x="318" y="730" type="line"/>
      <point x="5" y="730" type="line"/>
      <point x="5" y="660" type="line"/>
      <point x="283" y="660" type="line"/>
      <point x="263" y="688" type="line"/>
      <point x="152" y="590"/>
      <point x="102" y="463"/>
      <point x="102" y="333" type="curve"/>
    </contour>
  </outline>
</glyph>
<glyph name="plussuperior" format="2">
  <advance width="345"/>
  <unicode hex="207A"/>
  <outline>
    <contour>
      <point x="320" y="500" type="line"/>
      <point x="320" y="560" type="line"/>
      <point x="26" y="560" type="line"/>
      <point x="26" y="500" type="line"/>
    </contour>
    <contour>
      <point x="207" y="383" type="line"/>
      <point x="207" y="677" type="line"/>
      <point x="140" y="677" type="line"/>
      <point x="140" y="383" type="line"/>
    </contour>
  </outline>
</glyph>
<glyph name="minussuperior" format="2">
  <advance width="345"/>
  <unicode hex="207B"/>
  <outline>
    <contour>
      <point x="317" y="499" type="line"/>
      <point x="317" y="561" type="line"/>
      <point x="29" y="561" type="line"/>
      <point x="29" y="499" type="line"/>
    </contour>
  </outline>
</glyph>
<glyph name="equalsuperior" format="2">
  <advance width="389"/>
  <unicode hex="207C"/>
  <outline>
    <contour>
      <point x="335" y="432" type="line"/>
      <point x="335" y="495" type="line"/>
      <point x="54" y="495" type="line"/>
      <point x="54" y="432" type="line"/>
    </contour>
    <contour>
      <point x="335" y="566" type="line"/>
      <point x="335" y="630" type="line"/>
      <point x="54" y="630" type="line"/>
      <point x="54" y="566" type="line"/>
    </contour>
  </outline>
</glyph>
<glyph name="parenleftsuperior" format="2">
  <advance width="235"/>
  <unicode hex="207D"/>
  <outline>
    <contour>
      <point x="64" y="531" type="curve" smooth="yes"/>
      <point x="64" y="411"/>
      <point x="109" y="313"/>
      <point x="193" y="243" type="curve"/>
      <point x="241" y="284" type="line"/>
      <point x="171" y="353"/>
      <point x="145" y="423"/>
      <point x="145" y="531" type="curve" smooth="yes"/>
      <point x="145" y="639"/>
      <point x="171" y="710"/>
      <point x="241" y="778" type="curve"/>
      <point x="193" y="819" type="line"/>
      <point x="109" y="749"/>
      <point x="64" y="651"/>
    </contour>
  </outline>
</glyph>
<glyph name="trademark" format="2">
  <advance width="835"/>
  <unicode hex="2122"/>
  <outline>
    <contour>
      <point x="146" y="660" type="line"/>
      <point x="146" y="330" type="line"/>
      <point x="225" y="330" type="line"/>
      <point x="225" y="660" type="line"/>
    </contour>
    <contour>
      <point x="44" y="660" type="line"/>
      <point x="44" y="600" type="line"/>
      <point x="325" y="600" type="line"/>
      <point x="325" y="660" type="line"/>
    </contour>
    <contour>
      <point x="656" y="660" type="line"/>
      <point x="593" y="489" type="line"/>
      <point x="572" y="425" type="line"/>
      <point x="570" y="425" type="line"/>
      <point x="549" y="489" type="line"/>
      <point x="487" y="660" type="line"/>
      <point x="382" y="660" type="line"/>
      <point x="382" y="330" type="line"/>
      <point x="460" y="330" type="line"/>
      <point x="460" y="480" type="line"/>
      <point x="454" y="571" type="line"/>
      <point x="455" y="571" type="line"/>
      <point x="467" y="531" type="line"/>
      <point x="541" y="330" type="line"/>
      <point x="600" y="330" type="line"/>
      <point x="674" y="531" type="line"/>
      <point x="686" y="571" type="line"/>
      <point x="687" y="571" type="line"/>
      <point x="681" y="480" type="line"/>
      <point x="681" y="330" type="line"/>
      <point x="759" y="330" type="line"/>
      <point x="759" y="660" type="line"/>
    </contour>
  </outline>
</glyph>
<glyph name="estimated" format="2">
  <advance width="796"/>
  <unicode hex="212E"/>
  <outline>
    <contour>
      <point x="63" y="330" type="curve" smooth="yes"/>
      <point x="63" y="124"/>
      <point x="197" y="-10"/>
      <point x="423" y="-10" type="curve" smooth="yes"/>
      <point x="549" y="-10"/>
      <point x="651" y="35"/>
      <point x="710" y="131" type="curve"/>
      <point x="710" y="213" type="line"/>
      <point x="637" y="97"/>
      <point x="540" y="49"/>
      <point x="422" y="49" type="curve" smooth="yes"/>
      <point x="327" y="49"/>
      <point x="250" y="80"/>
      <point x="199" y="134" type="curve"/>
      <point x="199" y="300" type="line"/>
      <point x="740" y="300" type="line"/>
      <point x="741" y="542"/>
      <point x="615" y="670"/>
      <point x="403" y="670" type="curve" smooth="yes"/>
      <point x="197" y="670"/>
      <point x="63" y="536"/>
    </contour>
    <contour>
      <point x="606" y="529" type="curve"/>
      <point x="606" y="361" type="line"/>
      <point x="199" y="361" type="line"/>
      <point x="199" y="527" type="line"/>
      <point x="247" y="581"/>
      <point x="316" y="611"/>
      <point x="403" y="611" type="curve" smooth="yes"/>
      <point x="489" y="611"/>
      <point x="558" y="581"/>
    </contour>
  </outline>
</glyph>
<glyph name="nearrow" format="2">
  <advance width="750"/>
  <unicode hex="2197"/>
  <outline>
    <contour>
      <point x="413" y="309" type="line" smooth="yes"/>
      <point x="478" y="373"/>
      <point x="531" y="433"/>
      <point x="567" y="483" type="curve"/>
      <point x="588" y="555" type="line"/>
      <point x="516" y="534" type="line"/>
      <point x="467" y="498"/>
      <point x="406" y="445"/>
      <point x="342" y="380" type="curve" smooth="yes"/>
      <point x="116" y="154" type="line"/>
      <point x="187" y="83" type="line"/>
    </contour>
    <contour>
      <point x="627" y="117" type="line"/>
      <point x="600" y="275"/>
      <point x="607" y="437"/>
      <point x="630" y="592" type="curve"/>
      <point x="626" y="597" type="line"/>
      <point x="470" y="574"/>
      <point x="308" y="567"/>
      <point x="150" y="594" type="curve"/>
      <point x="143" y="494" type="line"/>
      <point x="313" y="472"/>
      <point x="508" y="498"/>
      <point x="602" y="545" type="curve"/>
      <point x="578" y="569" type="line"/>
      <point x="531" y="475"/>
      <point x="505" y="280"/>
      <point x="528" y="109" type="curve"/>
    </contour>
  </outline>
</glyph>
<glyph name="uni2206" format="2">
  <advance width="709"/>
  <unicode hex="2206"/>
  <outline>
    <contour>
      <point x="295" y="660" type="line"/>
      <point x="40" y="78" type="line"/>
      <point x="40" y="0" type="line"/>
      <point x="669" y="0" type="line"/>
      <point x="669" y="78" type="line"/>
      <point x="414" y="660" type="line"/>
    </contour>
    <contour>
      <point x="577" y="83" type="line"/>
      <point x="132" y="83" type="line"/>
      <point x="354" y="587" type="line"/>
    </contour>
  </outline>
</glyph>
<glyph name="summation" format="2">
  <advance width="648"/>
  <unicode hex="2211"/>
  <outline>
    <contour>
      <point x="367" y="268" type="line"/>
      <point x="57" y="-39" type="line"/>
      <point x="142" y="-82" type="line"/>
      <point x="489" y="258" type="line"/>
      <point x="489" y="268" type="line"/>
    </contour>
    <contour>
      <point x="57" y="-39" type="line"/>
      <point x="57" y="-128" type="line"/>
      <point x="586" y="-128" type="line"/>
      <point x="586" y="-39" type="line"/>
    </contour>
    <contour>
      <point x="57" y="570" type="line"/>
      <point x="367" y="268" type="line"/>
      <point x="489" y="268" type="line"/>
      <point x="489" y="277" type="line"/>
      <point x="142" y="612" type="line"/>
    </contour>
    <contour>
      <point x="57" y="660" type="line"/>
      <point x="57" y="570" type="line"/>
      <point x="586" y="570" type="line"/>
      <point x="586" y="660" type="line"/>
    </contour>
  </outline>
</glyph>
<glyph name="radical" format="2">
  <advance width="677"/>
  <unicode hex="221A"/>
  <outline>
    <contour>
      <point x="591" y="818" type="line"/>
      <point x="347" y="184" type="line"/>
      <point x="288" y="0" type="line"/>
      <point x="367" y="0" type="line"/>
      <point x="689" y="818" type="line"/>
    </contour>
    <contour>
      <point x="18" y="435" type="line"/>
      <point x="18" y="343" type="line"/>
      <point x="122" y="343" type="line"/>
      <point x="261" y="0" type="line"/>
      <point x="343" y="0" type="line"/>
      <point x="285" y="179" type="line"/>
      <point x="180" y="435" type="line"/>
    </contour>
  </outline>
</glyph>
<glyph name="approxequal" format="2">
  <advance width="604"/>
  <unicode hex="2248"/>
  <outline>
    <contour>
      <point x="59" y="452" type="curve"/>
      <point x="59" y="363" type="line"/>
      <point x="99" y="401"/>
      <point x="132" y="418"/>
      <point x="190" y="418" type="curve" smooth="yes"/>
      <point x="267" y="418"/>
      <point x="335" y="350"/>
      <point x="417" y="350" type="curve" smooth="yes"/>
      <point x="465" y="350"/>
      <point x="505" y="367"/>
      <point x="545" y="404" type="curve"/>
      <point x="545" y="493" type="line"/>
      <point x="499" y="450"/>
      <point x="461" y="439"/>
      <point x="416" y="439" type="curve" smooth="yes"/>
      <point x="344" y="439"/>
      <point x="277" y="506"/>
      <point x="190" y="506" type="curve" smooth="yes"/>
      <point x="134" y="506"/>
      <point x="102" y="491"/>
    </contour>
    <contour>
      <point x="59" y="242" type="curve"/>
      <point x="59" y="153" type="line"/>
      <point x="99" y="191"/>
      <point x="132" y="208"/>
      <point x="190" y="208" type="curve" smooth="yes"/>
      <point x="267" y="208"/>
      <point x="335" y="140"/>
      <point x="417" y="140" type="curve" smooth="yes"/>
      <point x="465" y="140"/>
      <point x="505" y="157"/>
      <point x="545" y="194" type="curve"/>
      <point x="545" y="283" type="line"/>
      <point x="499" y="239"/>
      <point x="461" y="229"/>
      <point x="416" y="229" type="curve" smooth="yes"/>
      <point x="344" y="229"/>
      <point x="277" y="296"/>
      <point x="190" y="296" type="curve" smooth="yes"/>
      <point x="134" y="296"/>
      <point x="102" y="280"/>
    </contour>
  </outline>
</glyph>
<glyph name="lessequal" format="2">
  <advance width="604"/>
  <unicode hex="2264"/>
  <outline>
    <contour>
      <point x="67" y="451" type="line"/>
      <point x="67" y="364" type="line"/>
      <point x="550" y="537" type="line"/>
      <point x="550" y="639" type="line"/>
    </contour>
    <contour>
      <point x="67" y="0" type="line"/>
      <point x="550" y="0" type="line"/>
      <point x="550" y="89" type="line"/>
      <point x="67" y="89" type="line"/>
    </contour>
    <contour>
      <point x="67" y="412" type="line"/>
      <point x="67" y="325" type="line"/>
      <point x="550" y="137" type="line"/>
      <point x="550" y="239" type="line"/>
    </contour>
  </outline>
</glyph>
<glyph name="whiteSmallSquare" format="2">
  <advance width="600"/>
  <unicode hex="25AB"/>
  <outline>
    <contour>
      <point x="552" y="0" type="line"/>
      <point x="552" y="500" type="line"/>
      <point x="48" y="500" type="line"/>
      <point x="48" y="0" type="line"/>
    </contour>
    <contour>
      <point x="140" y="419" type="line"/>
      <point x="460" y="419" type="line"/>
      <point x="460" y="81" type="line"/>
      <point x="140" y="81" type="line"/>
    </contour>
  </outline>
</glyph>
<glyph name="whiteCircle" format="2">
  <advance width="600"/>
  <unicode hex="25CB"/>
  <outline>
    <contour>
      <point x="563" y="250" type="curve" smooth="yes"/>
      <point x="563" y="398"/>
      <point x="449" y="510"/>
      <point x="300" y="510" type="curve" smooth="yes"/>
      <point x="151" y="510"/>
      <point x="37" y="398"/>
      <point x="37" y="250" type="curve" smooth="yes"/>
      <point x="37" y="102"/>
      <point x="151" y="-10"/>
      <point x="300" y="-10" type="curve" smooth="yes"/>
      <point x="449" y="-10"/>
      <point x="563" y="102"/>
    </contour>
    <contour>
      <point x="131" y="250" type="curve" smooth="yes"/>
      <point x="131" y="348"/>
      <point x="203" y="423"/>
      <point x="300" y="423" type="curve" smooth="yes"/>
      <point x="397" y="423"/>
      <point x="469" y="348"/>
      <point x="469" y="250" type="curve" smooth="yes"/>
      <point x="469" y="152"/>
      <point x="397" y="77"/>
      <point x="300" y="77" type="curve" smooth="yes"/>
      <point x="203" y="77"/>
      <point x="131" y="152"/>
    </contour>
  </outline>
</glyph>
<glyph name="heavyquoteleft" format="2">
  <advance width="721"/>
  <unicode hex="275B"/>
  <outline>
    <contour>
      <point x="65" y="280" type="curve" smooth="yes"/>
      <point x="65" y="104"/>
      <point x="149" y="-10"/>
      <point x="372" y="-10" type="curve" smooth="yes"/>
      <point x="548" y="-10"/>
      <point x="655" y="76"/>
      <point x="655" y="231" type="curve" smooth="yes"/>
      <point x="655" y="382"/>
      <point x="547" y="468"/>
      <point x="379" y="468" type="curve" smooth="yes"/>
      <point x="283" y="468"/>
      <point x="237" y="448"/>
      <point x="190" y="412" type="curve"/>
      <point x="183" y="417" type="line"/>
      <point x="248" y="523"/>
      <point x="362" y="588"/>
      <point x="628" y="588" type="curve"/>
      <point x="579" y="665" type="line"/>
      <point x="209" y="665"/>
      <point x="65" y="509"/>
    </contour>
  </outline>
</glyph>
<glyph name="Adieresis.titl.001" format="2">
  <advance width="665"/>
  <outline>
    <contour>
      <point x="130" y="0" type="line"/>
      <point x="302" y="474" type="line"/>
      <point x="330" y="567" type="line"/>
      <point x="333" y="567" type="line"/>
      <point x="363" y="472" type="line"/>
      <point x="533" y="0" type="line"/>
      <point x="646" y="0" type="line"/>
      <point x="397" y="660" type="line"/>
      <point x="269" y="660" type="line"/>
      <point x="20" y="0" type="line"/>
    </contour>
    <contour>
      <point x="510" y="173" type="line"/>
      <point x="510" y="260" type="line"/>
      <point x="153" y="260" type="line"/>
      <point x="153" y="173" type="line"/>
    </contour>
    <contour>
      <point x="198" y="546" type="curve"/>
      <point x="232" y="635" type="line"/>
      <point x="223" y="651"/>
      <point x="204" y="662"/>
      <point x="181" y="662" type="curve" smooth="yes"/>
      <point x="144" y="662"/>
      <point x="120" y="639"/>
      <point x="120" y="603" type="curve" smooth="yes"/>
      <point x="120" y="567"/>
      <point x="144" y="544"/>
      <point x="181" y="544" type="curve" smooth="yes"/>
      <point x="187" y="544"/>
      <point x="193" y="545"/>
    </contour>
    <contour>
      <point x="546" y="603" type="curve" smooth="yes"/>
      <point x="546" y="639"/>
      <point x="522" y="662"/>
      <point x="485" y="662" type="curve" smooth="yes"/>
      <point x="462" y="662"/>
      <point x="443" y="651"/>
      <point x="434" y="635" type="curve"/>
      <point x="468" y="546" type="line"/>
      <point x="473" y="545"/>
      <point x="479" y="544"/>
      <point x="485" y="544" type="curve" smooth="yes"/>
      <point x="522" y="544"/>
      <point x="546" y="567"/>
    </contour>
  </outline>
</glyph>
<glyph name="Adieresis.titl" format="2">
  <advance width="665"/>
  <outline>
    <contour>
      <point x="579" y="601" type="curve" smooth="yes"/>
      <point x="579" y="638"/>
      <point x="554" y="662"/>
      <point x="516" y="662" type="curve" smooth="yes"/>
      <point x="477" y="662"/>
      <point x="452" y="638"/>
      <point x="452" y="601" type="curve" smooth="yes"/>
      <point x="452" y="564"/>
      <point x="477" y="540"/>
      <point x="516" y="540" type="curve" smooth="yes"/>
      <point x="554" y="540"/>
      <point x="579" y="564"/>
    </contour>
    <contour>
      <point x="214" y="601" type="curve" smooth="yes"/>
      <point x="214" y="638"/>
      <point x="189" y="662"/>
      <point x="150" y="662" type="curve" smooth="yes"/>
      <point x="112" y="662"/>
      <point x="87" y="638"/>
      <point x="87" y="601" type="curve" smooth="yes"/>
      <point x="87" y="564"/>
      <point x="112" y="540"/>
      <point x="150" y="540" type="curve" smooth="yes"/>
      <point x="189" y="540"/>
      <point x="214" y="564"/>
    </contour>
    <contour>
      <point x="130" y="0" type="line"/>
      <point x="302" y="474" type="line"/>
      <point x="330" y="567" type="line"/>
      <point x="333" y="567" type="line"/>
      <point x="363" y="472" type="line"/>
      <point x="533" y="0" type="line"/>
      <point x="646" y="0" type="line"/>
      <point x="397" y="660" type="line"/>
      <point x="269" y="660" type="line"/>
      <point x="20" y="0" type="line"/>
    </contour>
    <contour>
      <point x="510" y="173" type="line"/>
      <point x="510" y="260" type="line"/>
      <point x="153" y="260" type="line"/>
      <point x="153" y="173" type="line"/>
    </contour>
  </outline>
</glyph>
<glyph name="Aogonek_j" format="2">
  <advance width="938"/>
  <anchor x="605" y="0" name="bottomC"/>
  <anchor x="333" y="660" name="top"/>
  <anchor x="646" y="0" name="ogonek"/>
  <anchor x="333" y="0" name="bottom"/>
  <outline>
    <contour>
      <point x="856" y="-46" type="curve" smooth="yes"/>
      <point x="856" y="500" type="line"/>
      <point x="749" y="500" type="line"/>
      <point x="749" y="-39" type="line" smooth="yes"/>
      <point x="749" y="-102"/>
      <point x="735" y="-123"/>
      <point x="701" y="-123" type="curve" smooth="yes"/>
      <point x="681" y="-123"/>
      <point x="667" y="-120"/>
      <point x="654" y="-113" type="curve"/>
      <point x="637" y="-202" type="line"/>
      <point x="656" y="-210"/>
      <point x="677" y="-215"/>
      <point x="707" y="-215" type="curve" smooth="yes"/>
      <point x="783" y="-215"/>
      <point x="856" y="-178"/>
    </contour>
    <contour>
      <point x="600" y="-200" type="curve"/>
      <point x="597" y="-135" type="line"/>
      <point x="585" y="-144"/>
      <point x="574" y="-146"/>
      <point x="561" y="-146" type="curve" smooth="yes"/>
      <point x="525" y="-146"/>
      <point x="501" y="-128"/>
      <point x="501" y="-97" type="curve" smooth="yes"/>
      <point x="501" y="-50"/>
      <point x="548" y="-25"/>
      <point x="646" y="0" type="curve"/>
      <point x="588" y="27" type="line"/>
      <point x="497" y="8"/>
      <point x="420" y="-37"/>
      <point x="420" y="-118" type="curve" smooth="yes"/>
      <point x="420" y="-176"/>
      <point x="466" y="-215"/>
      <point x="532" y="-215" type="curve" smooth="yes"/>
      <point x="561" y="-215"/>
      <point x="581" y="-211"/>
    </contour>
    <contour>
      <point x="874" y="651" type="curve" smooth="yes"/>
      <point x="874" y="691"/>
      <point x="846" y="717"/>
      <point x="802" y="717" type="curve" smooth="yes"/>
      <point x="758" y="717"/>
      <point x="730" y="691"/>
      <point x="730" y="651" type="curve" smooth="yes"/>
      <point x="730" y="611"/>
      <point x="758" y="584"/>
      <point x="802" y="584" type="curve" smooth="yes"/>
      <point x="846" y="584"/>
      <point x="874" y="611"/>
    </contour>
    <component base="A"/>
  </outline>
</glyph>
<glyph name="Aogonek_y" format="2">
  <advance width="1159"/>
  <anchor x="605" y="0" name="bottomC"/>
  <anchor x="333" y="660" name="top"/>
  <anchor x="646" y="0" name="ogonek"/>
  <anchor x="333" y="0" name="bottom"/>
  <outline>
    <contour>
      <point x="1036" y="500" type="line"/>
      <point x="931" y="195" type="line"/>
      <point x="897" y="92" type="line"/>
      <point x="868" y="186" type="line"/>
      <point x="758" y="500" type="line"/>
      <point x="638" y="500" type="line"/>
      <point x="794" y="121" type="line"/>
      <point x="847" y="-3" type="line"/>
      <point x="822" y="-62" type="line" smooth="yes"/>
      <point x="800" y="-118"/>
      <point x="771" y="-130"/>
      <point x="739" y="-130" type="curve" smooth="yes"/>
      <point x="721" y="-130"/>
      <point x="704" y="-127"/>
      <point x="689" y="-116" type="curve"/>
      <point x="670" y="-195" type="line"/>
      <point x="692" y="-209"/>
      <point x="712" y="-215"/>
      <point x="749" y="-215" type="curve" smooth="yes"/>
      <point x="826" y="-215"/>
      <point x="883" y="-177"/>
      <point x="918" y="-83" type="curve" smooth="yes"/>
      <point x="1147" y="500" type="line"/>
    </contour>
    <contour>
      <point x="591" y="31" type="line"/>
      <point x="484" y="5"/>
      <point x="431" y="-36"/>
      <point x="431" y="-109" type="curve" smooth="yes"/>
      <point x="431" y="-175"/>
      <point x="474" y="-215"/>
      <point x="546" y="-215" type="curve" smooth="yes"/>
      <point x="578" y="-215"/>
      <point x="606" y="-209"/>
      <point x="627" y="-195" type="curve"/>
      <point x="615" y="-134" type="line"/>
      <point x="599" y="-144"/>
      <point x="580" y="-146"/>
      <point x="562" y="-146" type="curve" smooth="yes"/>
      <point x="529" y="-146"/>
      <point x="512" y="-128"/>
      <point x="512" y="-99" type="curve" smooth="yes"/>
      <point x="512" y="-56"/>
      <point x="547" y="-26"/>
      <point x="646" y="0" type="curve"/>
    </contour>
    <component base="A"/>
  </outline>
</glyph>
<glyph name="E.swsh.001" format="2">
  <advance width="772"/>
  <anchor x="356" y="660" name="top"/>
  <anchor x="530" y="0" name="ogonek"/>
  <anchor x="337" y="0" name="bottom"/>
  <anchor x="337" y="0" name="bottomC"/>
  <outline>
    <contour>
      <point x="587" y="273" type="line"/>
      <point x="632" y="271"/>
      <point x="662" y="240"/>
      <point x="662" y="183" type="curve" smooth="yes"/>
      <point x="662" y="119"/>
      <point x="619" y="92"/>
      <point x="531" y="92" type="curve" smooth="yes"/>
      <point x="375" y="92" type="line"/>
      <point x="375" y="0" type="line"/>
      <point x="550" y="0" type="line" smooth="yes"/>
      <point x="679" y="0"/>
      <point x="762" y="61"/>
      <point x="762" y="181" type="curve" smooth="yes"/>
      <point x="762" y="280"/>
      <point x="705" y="343"/>
      <point x="626" y="350" type="curve"/>
    </contour>
    <contour>
      <point x="98" y="0" type="line"/>
      <point x="205" y="0" type="line"/>
      <point x="205" y="660" type="line"/>
      <point x="98" y="660" type="line"/>
    </contour>
    <contour>
      <point x="152" y="281" type="line"/>
      <point x="419" y="281" type="line"/>
      <point x="419" y="371" type="line"/>
      <point x="152" y="371" type="line"/>
    </contour>
    <contour>
      <point x="152" y="568" type="line"/>
      <point x="604" y="568" type="line"/>
      <point x="604" y="660" type="line"/>
      <point x="152" y="660" type="line"/>
    </contour>
    <contour>
      <point x="152" y="0" type="line"/>
      <point x="513" y="0" type="line"/>
      <point x="513" y="92" type="line"/>
      <point x="152" y="92" type="line"/>
    </contour>
  </outline>
</glyph>
<glyph name="Euro.tf" format="2">
  <advance width="604"/>
  <outline>
    <contour>
      <point x="17" y="281" type="line"/>
      <point x="17" y="213" type="line"/>
      <point x="354" y="213" type="line"/>
      <point x="374" y="281" type="line"/>
    </contour>
    <contour>
      <point x="17" y="429" type="line"/>
      <point x="17" y="360" type="line"/>
      <point x="392" y="360" type="line"/>
      <point x="412" y="429" type="line"/>
    </contour>
    <component base="euro.part.tf" xOffset="-2"/>
  </outline>
</glyph>
<glyph name="G.ss04" format="2">
  <advance width="724"/>
  <anchor x="371" y="660" name="top"/>
  <anchor x="444" y="0" name="ogonek"/>
  <anchor x="400" y="0" name="bottom"/>
  <anchor x="371" y="0" name="bottomC"/>
  <outline>
    <contour>
      <point x="663" y="273" type="curve" smooth="yes"/>
      <point x="663" y="340" type="line"/>
      <point x="364" y="340" type="line"/>
      <point x="364" y="255" type="line"/>
      <point x="619" y="255" type="line"/>
      <point x="566" y="296" type="line"/>
      <point x="566" y="248" type="line" smooth="yes"/>
      <point x="566" y="173"/>
      <point x="516" y="83"/>
      <point x="382" y="83" type="curve" smooth="yes"/>
      <point x="245" y="83"/>
      <point x="173" y="171"/>
      <point x="173" y="330" type="curve" smooth="yes"/>
      <point x="173" y="487"/>
      <point x="254" y="577"/>
      <point x="375" y="577" type="curve" smooth="yes"/>
      <point x="461" y="577"/>
      <point x="523" y="540"/>
      <point x="548" y="467" type="curve"/>
      <point x="647" y="514" type="line"/>
      <point x="595" y="621"/>
      <point x="512" y="670"/>
      <point x="375" y="670" type="curve" smooth="yes"/>
      <point x="185" y="670"/>
      <point x="61" y="540"/>
      <point x="61" y="330" type="curve" smooth="yes"/>
      <point x="61" y="118"/>
      <point x="183" y="-10"/>
      <point x="373" y="-10" type="curve" smooth="yes"/>
      <point x="558" y="-10"/>
      <point x="663" y="96"/>
    </contour>
  </outline>
</glyph>
<glyph name="Hsuperior" format="2">
  <advance width="466"/>
  <outline>
    <contour>
      <point x="328" y="730" type="line"/>
      <point x="328" y="333" type="line"/>
      <point x="416" y="333" type="line"/>
      <point x="416" y="730" type="line"/>
    </contour>
    <contour>
      <point x="51" y="730" type="line"/>
      <point x="51" y="333" type="line"/>
      <point x="138" y="333" type="line"/>
      <point x="138" y="730" type="line"/>
    </contour>
    <contour>
      <point x="93" y="568" type="line"/>
      <point x="93" y="500" type="line"/>
      <point x="374" y="500" type="line"/>
      <point x="374" y="568" type="line"/>
    </contour>
  </outline>
</glyph>
<glyph name="M.swsh.001" format="2">
  <advance width="1099"/>
  <anchor x="663" y="660" name="top"/>
  <anchor x="1001" y="0" name="ogonek"/>
  <anchor x="663" y="0" name="bottom"/>
  <anchor x="687" y="0" name="bottomC"/>
  <outline>
    <contour>
      <point x="216" y="365" type="line"/>
      <point x="155" y="375"/>
      <point x="112" y="415"/>
      <point x="112" y="471" type="curve" smooth="yes"/>
      <point x="112" y="541"/>
      <point x="163" y="577"/>
      <point x="243" y="577" type="curve" smooth="yes"/>
      <point x="450" y="577" type="line"/>
      <point x="450" y="660" type="line"/>
      <point x="229" y="660" type="line" smooth="yes"/>
      <point x="93" y="660"/>
      <point x="10" y="590"/>
      <point x="10" y="473" type="curve" smooth="yes"/>
      <point x="10" y="367"/>
      <point x="86" y="297"/>
      <point x="179" y="286" type="curve"/>
    </contour>
    <component base="M" xOffset="228"/>
  </outline>
</glyph>
<glyph name="M.swsh" format="2">
  <advance width="1099"/>
  <anchor x="663" y="660" name="top"/>
  <anchor x="1001" y="0" name="ogonek"/>
  <anchor x="663" y="0" name="bottom"/>
  <anchor x="687" y="0" name="bottomC"/>
  <outline>
    <contour>
      <point x="708" y="0" type="line"/>
      <point x="909" y="564" type="line"/>
      <point x="910" y="564" type="line"/>
      <point x="902" y="382" type="line"/>
      <point x="902" y="0" type="line"/>
      <point x="1001" y="0" type="line"/>
      <point x="1001" y="660" type="line"/>
      <point x="844" y="660" type="line"/>
      <point x="713" y="278" type="line"/>
      <point x="666" y="121" type="line"/>
      <point x="664" y="121" type="line"/>
      <point x="617" y="278" type="line"/>
      <point x="485" y="660" type="line"/>
      <point x="325" y="660" type="line"/>
      <point x="325" y="199" type="line"/>
      <point x="424" y="199" type="line"/>
      <point x="424" y="382" type="line"/>
      <point x="416" y="564" type="line"/>
      <point x="418" y="564" type="line"/>
      <point x="618" y="0" type="line"/>
    </contour>
    <contour>
      <point x="216" y="365" type="line"/>
      <point x="155" y="375"/>
      <point x="112" y="415"/>
      <point x="112" y="471" type="curve" smooth="yes"/>
      <point x="112" y="541"/>
      <point x="163" y="577"/>
      <point x="243" y="577" type="curve" smooth="yes"/>
      <point x="450" y="577" type="line"/>
      <point x="450" y="660" type="line"/>
      <point x="229" y="660" type="line" smooth="yes"/>
      <point x="93" y="660"/>
      <point x="10" y="590"/>
      <point x="10" y="473" type="curve" smooth="yes"/>
      <point x="10" y="367"/>
      <point x="86" y="297"/>
      <point x="179" y="286" type="curve"/>
    </contour>
    <component base="swash_bttmleft" xOffset="49"/>
  </outline>
</glyph>
<glyph name="N.swsh" format="2">
  <advance width="736"/>
  <anchor x="371" y="660" name="top"/>
  <anchor x="639" y="0" name="ogonek"/>
  <anchor x="393" y="0" name="bottom"/>
  <anchor x="573" y="0" name="bottomC"/>
  <outline>
    <contour>
      <point x="196" y="0" type="line"/>
      <point x="196" y="426" type="line"/>
      <point x="192" y="538" type="line"/>
      <point x="193" y="538" type="line"/>
      <point x="257" y="416" type="line"/>
      <point x="512" y="0" type="line"/>
      <point x="639" y="0" type="line"/>
      <point x="639" y="475" type="line"/>
      <point x="540" y="483" type="line"/>
      <point x="540" y="234" type="line"/>
      <point x="544" y="122" type="line"/>
      <point x="543" y="122" type="line"/>
      <point x="478" y="245" type="line"/>
      <point x="224" y="660" type="line"/>
      <point x="98" y="660" type="line"/>
      <point x="98" y="0" type="line"/>
    </contour>
    <contour>
      <point x="639" y="411" type="line"/>
      <point x="639" y="521" type="line" smooth="yes"/>
      <point x="639" y="596"/>
      <point x="680" y="646"/>
      <point x="750" y="646" type="curve" smooth="yes"/>
      <point x="817" y="646"/>
      <point x="847" y="618"/>
      <point x="862" y="551" type="curve"/>
      <point x="923" y="612" type="line"/>
      <point x="904" y="685"/>
      <point x="849" y="732"/>
      <point x="744" y="732" type="curve" smooth="yes"/>
      <point x="613" y="732"/>
      <point x="540" y="652"/>
      <point x="540" y="543" type="curve" smooth="yes"/>
      <point x="540" y="424" type="line"/>
    </contour>
  </outline>
</glyph>
<glyph name="Odieresis.titl.001" format="2">
  <advance width="745"/>
  <outline>
    <contour>
      <point x="61" y="330" type="curve" smooth="yes"/>
      <point x="61" y="120"/>
      <point x="181" y="-10"/>
      <point x="372" y="-10" type="curve" smooth="yes"/>
      <point x="564" y="-10"/>
      <point x="684" y="120"/>
      <point x="684" y="330" type="curve" smooth="yes"/>
      <point x="684" y="540"/>
      <point x="564" y="670"/>
      <point x="372" y="670" type="curve" smooth="yes"/>
      <point x="181" y="670"/>
      <point x="61" y="540"/>
    </contour>
    <contour>
      <point x="572" y="330" type="curve" smooth="yes"/>
      <point x="572" y="173"/>
      <point x="497" y="83"/>
      <point x="372" y="83" type="curve" smooth="yes"/>
      <point x="248" y="83"/>
      <point x="173" y="173"/>
      <point x="173" y="330" type="curve" smooth="yes"/>
      <point x="173" y="487"/>
      <point x="248" y="577"/>
      <point x="372" y="577" type="curve" smooth="yes"/>
      <point x="497" y="577"/>
      <point x="572" y="487"/>
    </contour>
    <contour>
      <point x="667" y="613" type="curve" smooth="yes"/>
      <point x="667" y="647"/>
      <point x="643" y="670"/>
      <point x="607" y="670" type="curve" smooth="yes"/>
      <point x="583" y="670"/>
      <point x="564" y="659"/>
      <point x="554" y="641" type="curve"/>
      <point x="589" y="620"/>
      <point x="613" y="596"/>
      <point x="638" y="562" type="curve"/>
      <point x="656" y="571"/>
      <point x="667" y="590"/>
    </contour>
    <contour>
      <point x="137" y="670" type="curve" smooth="yes"/>
      <point x="102" y="670"/>
      <point x="79" y="647"/>
      <point x="79" y="613" type="curve" smooth="yes"/>
      <point x="79" y="590"/>
      <point x="89" y="572"/>
      <point x="107" y="562" type="curve"/>
      <point x="130" y="595"/>
      <point x="154" y="619"/>
      <point x="190" y="641" type="curve"/>
      <point x="181" y="659"/>
      <point x="162" y="670"/>
    </contour>
  </outline>
</glyph>
<glyph name="Odieresis.titl" format="2">
  <advance width="745"/>
  <outline>
    <contour>
      <point x="225" y="524" type="curve" smooth="yes"/>
      <point x="225" y="490"/>
      <point x="247" y="468"/>
      <point x="281" y="468" type="curve" smooth="yes"/>
      <point x="317" y="468"/>
      <point x="340" y="490"/>
      <point x="340" y="524" type="curve" smooth="yes"/>
      <point x="340" y="557"/>
      <point x="317" y="580"/>
      <point x="281" y="580" type="curve" smooth="yes"/>
      <point x="247" y="580"/>
      <point x="225" y="557"/>
    </contour>
    <contour>
      <point x="406" y="524" type="curve" smooth="yes"/>
      <point x="406" y="490"/>
      <point x="428" y="468"/>
      <point x="463" y="468" type="curve" smooth="yes"/>
      <point x="498" y="468"/>
      <point x="521" y="490"/>
      <point x="521" y="524" type="curve" smooth="yes"/>
      <point x="521" y="558"/>
      <point x="498" y="580"/>
      <point x="463" y="580" type="curve" smooth="yes"/>
      <point x="428" y="580"/>
      <point x="406" y="558"/>
    </contour>
    <contour>
      <point x="61" y="330" type="curve" smooth="yes"/>
      <point x="61" y="120"/>
      <point x="181" y="-10"/>
      <point x="372" y="-10" type="curve" smooth="yes"/>
      <point x="564" y="-10"/>
      <point x="684" y="120"/>
      <point x="684" y="330" type="curve" smooth="yes"/>
      <point x="684" y="540"/>
      <point x="564" y="670"/>
      <point x="372" y="670" type="curve" smooth="yes"/>
      <point x="181" y="670"/>
      <point x="61" y="540"/>
    </contour>
    <contour>
      <point x="572" y="330" type="curve" smooth="yes"/>
      <point x="572" y="173"/>
      <point x="497" y="83"/>
      <point x="372" y="83" type="curve" smooth="yes"/>
      <point x="248" y="83"/>
      <point x="173" y="173"/>
      <point x="173" y="330" type="curve" smooth="yes"/>
      <point x="173" y="487"/>
      <point x="248" y="577"/>
      <point x="372" y="577" type="curve" smooth="yes"/>
      <point x="497" y="577"/>
      <point x="572" y="487"/>
    </contour>
  </outline>
</glyph>
<glyph name="Osuperior" format="2">
  <advance width="465"/>
  <outline>
    <contour>
      <point x="32" y="531" type="curve" smooth="yes"/>
      <point x="32" y="403"/>
      <point x="108" y="327"/>
      <point x="232" y="327" type="curve" smooth="yes"/>
      <point x="357" y="327"/>
      <point x="432" y="403"/>
      <point x="432" y="531" type="curve" smooth="yes"/>
      <point x="432" y="659"/>
      <point x="357" y="735"/>
      <point x="232" y="735" type="curve" smooth="yes"/>
      <point x="108" y="735"/>
      <point x="32" y="659"/>
    </contour>
    <contour>
      <point x="346" y="531" type="curve" smooth="yes"/>
      <point x="346" y="442"/>
      <point x="303" y="393"/>
      <point x="232" y="393" type="curve" smooth="yes"/>
      <point x="161" y="393"/>
      <point x="119" y="442"/>
      <point x="119" y="531" type="curve" smooth="yes"/>
      <point x="119" y="620"/>
      <point x="161" y="669"/>
      <point x="232" y="669" type="curve" smooth="yes"/>
      <point x="303" y="669"/>
      <point x="346" y="620"/>
    </contour>
  </outline>
</glyph>
<glyph name="R.swsh.001" format="2">
  <advance width="702"/>
  <anchor x="324" y="660" name="top"/>
  <anchor x="644" y="-89" name="ogonek"/>
  <anchor x="364" y="0" name="bottom"/>
  <anchor x="658" y="-68" name="bottomC"/>
  <outline>
    <contour>
      <point x="367" y="264" type="line" smooth="yes"/>
      <point x="509" y="264"/>
      <point x="598" y="338"/>
      <point x="598" y="462" type="curve" smooth="yes"/>
      <point x="598" y="586"/>
      <point x="509" y="660"/>
      <point x="367" y="660" type="curve" smooth="yes"/>
      <point x="159" y="660" type="line"/>
      <point x="159" y="569" type="line"/>
      <point x="358" y="569" type="line" smooth="yes"/>
      <point x="445" y="569"/>
      <point x="487" y="534"/>
      <point x="487" y="461" type="curve" smooth="yes"/>
      <point x="487" y="388"/>
      <point x="445" y="353"/>
      <point x="358" y="353" type="curve" smooth="yes"/>
      <point x="159" y="353" type="line"/>
      <point x="159" y="264" type="line"/>
    </contour>
    <contour>
      <point x="204" y="0" type="line"/>
      <point x="204" y="660" type="line"/>
      <point x="98" y="660" type="line"/>
      <point x="98" y="0" type="line"/>
    </contour>
    <contour>
      <point x="702" y="-21" type="line"/>
      <point x="651" y="-6"/>
      <point x="585" y="51"/>
      <point x="550" y="98" type="curve" smooth="yes"/>
      <point x="382" y="331" type="line"/>
      <point x="299" y="289" type="line"/>
      <point x="463" y="55" type="line" smooth="yes"/>
      <point x="502" y="-1"/>
      <point x="537" y="-42"/>
      <point x="644" y="-89" type="curve"/>
    </contour>
  </outline>
</glyph>
<glyph name="S.swsh" format="2">
  <advance width="642"/>
  <anchor x="327" y="660" name="top"/>
  <anchor x="409" y="-100" name="ogonek"/>
  <anchor x="330" y="-100" name="bottom"/>
  <anchor x="304" y="-100" name="bottomC"/>
  <outline>
    <contour>
      <point x="593" y="111" type="curve" smooth="yes"/>
      <point x="593" y="220"/>
      <point x="533" y="275"/>
      <point x="361" y="319" type="curve" smooth="yes"/>
      <point x="225" y="354"/>
      <point x="182" y="389"/>
      <point x="182" y="454" type="curve" smooth="yes"/>
      <point x="182" y="532"/>
      <point x="236" y="577"/>
      <point x="331" y="577" type="curve" smooth="yes"/>
      <point x="433" y="577"/>
      <point x="476" y="535"/>
      <point x="479" y="439" type="curve"/>
      <point x="580" y="479" type="line"/>
      <point x="569" y="606"/>
      <point x="484" y="670"/>
      <point x="331" y="670" type="curve" smooth="yes"/>
      <point x="170" y="670"/>
      <point x="70" y="581"/>
      <point x="70" y="447" type="curve" smooth="yes"/>
      <point x="70" y="337"/>
      <point x="135" y="274"/>
      <point x="312" y="232" type="curve" smooth="yes"/>
      <point x="446" y="199"/>
      <point x="486" y="165"/>
      <point x="486" y="106" type="curve" smooth="yes"/>
      <point x="486" y="27"/>
      <point x="433" y="-17"/>
      <point x="328" y="-17" type="curve" smooth="yes"/>
      <point x="210" y="-17"/>
      <point x="155" y="22"/>
      <point x="155" y="103" type="curve" smooth="yes"/>
      <point x="155" y="116"/>
      <point x="157" y="128"/>
      <point x="159" y="143" type="curve"/>
      <point x="61" y="115" type="line"/>
      <point x="59" y="102"/>
      <point x="58" y="88"/>
      <point x="58" y="73" type="curve" smooth="yes"/>
      <point x="58" y="-43"/>
      <point x="154" y="-110"/>
      <point x="322" y="-110" type="curve" smooth="yes"/>
      <point x="485" y="-110"/>
      <point x="593" y="-24"/>
    </contour>
  </outline>
</glyph>
<glyph name="Udieresis.titl" format="2">
  <advance width="718"/>
  <outline>
    <contour>
      <point x="475" y="581" type="curve" smooth="yes"/>
      <point x="475" y="614"/>
      <point x="452" y="636"/>
      <point x="418" y="636" type="curve" smooth="yes"/>
      <point x="383" y="636"/>
      <point x="360" y="614"/>
      <point x="360" y="581" type="curve" smooth="yes"/>
      <point x="360" y="547"/>
      <point x="383" y="524"/>
      <point x="418" y="524" type="curve" smooth="yes"/>
      <point x="452" y="524"/>
      <point x="475" y="547"/>
    </contour>
    <contour>
      <point x="358" y="607" type="curve" smooth="yes"/>
      <point x="358" y="640"/>
      <point x="335" y="662"/>
      <point x="300" y="662" type="curve" smooth="yes"/>
      <point x="266" y="662"/>
      <point x="243" y="640"/>
      <point x="243" y="607" type="curve" smooth="yes"/>
      <point x="243" y="572"/>
      <point x="266" y="550"/>
      <point x="300" y="550" type="curve" smooth="yes"/>
      <point x="335" y="550"/>
      <point x="358" y="572"/>
    </contour>
    <contour>
      <point x="521" y="660" type="line"/>
      <point x="521" y="266" type="line" smooth="yes"/>
      <point x="521" y="141"/>
      <point x="470" y="83"/>
      <point x="359" y="83" type="curve" smooth="yes"/>
      <point x="248" y="83"/>
      <point x="197" y="141"/>
      <point x="197" y="266" type="curve" smooth="yes"/>
      <point x="197" y="660" type="line"/>
      <point x="89" y="660" type="line"/>
      <point x="89" y="253" type="line" smooth="yes"/>
      <point x="89" y="78"/>
      <point x="184" y="-10"/>
      <point x="359" y="-10" type="curve" smooth="yes"/>
      <point x="534" y="-10"/>
      <point x="629" y="78"/>
      <point x="629" y="253" type="curve" smooth="yes"/>
      <point x="629" y="660" type="line"/>
    </contour>
  </outline>
</glyph>
<glyph name="acutecmb.cap" format="2">
  <anchor x="0" y="660" name="_top"/>
  <outline>
    <contour>
      <point x="-52" y="737" type="line"/>
      <point x="30" y="737" type="line"/>
      <point x="117" y="897" type="line"/>
      <point x="13" y="897" type="line"/>
    </contour>
  </outline>
</glyph>
<glyph name="adieresis.titl.sc" format="2">
  <advance width="604"/>
  <outline>
    <contour>
      <point x="222" y="546" type="curve" smooth="yes"/>
      <point x="222" y="581"/>
      <point x="198" y="604"/>
      <point x="159" y="604" type="curve" smooth="yes"/>
      <point x="122" y="604"/>
      <point x="98" y="581"/>
      <point x="98" y="546" type="curve" smooth="yes"/>
      <point x="98" y="512"/>
      <point x="122" y="490"/>
      <point x="159" y="490" type="curve" smooth="yes"/>
      <point x="198" y="490"/>
      <point x="222" y="512"/>
    </contour>
    <contour>
      <point x="513" y="546" type="curve" smooth="yes"/>
      <point x="513" y="581"/>
      <point x="489" y="604"/>
      <point x="451" y="604" type="curve" smooth="yes"/>
      <point x="414" y="604"/>
      <point x="390" y="581"/>
      <point x="390" y="546" type="curve" smooth="yes"/>
      <point x="390" y="512"/>
      <point x="414" y="490"/>
      <point x="451" y="490" type="curve" smooth="yes"/>
      <point x="489" y="490"/>
      <point x="513" y="512"/>
    </contour>
    <contour>
      <point x="129" y="0" type="line"/>
      <point x="272" y="370" type="line"/>
      <point x="304" y="473" type="line"/>
      <point x="306" y="473" type="line"/>
      <point x="339" y="370" type="line"/>
      <point x="481" y="0" type="line"/>
      <point x="590" y="0" type="line"/>
      <point x="370" y="560" type="line"/>
      <point x="242" y="560" type="line"/>
      <point x="21" y="0" type="line"/>
    </contour>
    <contour>
      <point x="467" y="142" type="line"/>
      <point x="467" y="224" type="line"/>
      <point x="145" y="224" type="line"/>
      <point x="145" y="142" type="line"/>
    </contour>
  </outline>
</glyph>
<glyph name="aogonek_j" format="2">
  <advance width="843"/>
  <outline>
    <contour>
      <point x="58" y="377" type="curve"/>
      <point x="141" y="337" type="line"/>
      <point x="163" y="397"/>
      <point x="208" y="426"/>
      <point x="267" y="426" type="curve" smooth="yes"/>
      <point x="334" y="426"/>
      <point x="372" y="386"/>
      <point x="372" y="327" type="curve" smooth="yes"/>
      <point x="372" y="125" type="line"/>
      <point x="380" y="115" type="line" smooth="yes"/>
      <point x="380" y="23"/>
      <point x="440" y="-7"/>
      <point x="491" y="-7" type="curve" smooth="yes"/>
      <point x="508" y="-7"/>
      <point x="527" y="-2"/>
      <point x="545" y="1" type="curve"/>
      <point x="553" y="75" type="line"/>
      <point x="542" y="72"/>
      <point x="528" y="70"/>
      <point x="515" y="70" type="curve" smooth="yes"/>
      <point x="489" y="70"/>
      <point x="478" y="82"/>
      <point x="478" y="107" type="curve" smooth="yes"/>
      <point x="478" y="334" type="line" smooth="yes"/>
      <point x="478" y="453"/>
      <point x="396" y="510"/>
      <point x="270" y="510" type="curve" smooth="yes"/>
      <point x="161" y="510"/>
      <point x="81" y="458"/>
    </contour>
    <contour>
      <point x="245" y="278" type="line" smooth="yes"/>
      <point x="113" y="255"/>
      <point x="50" y="198"/>
      <point x="50" y="121" type="curve" smooth="yes"/>
      <point x="50" y="34"/>
      <point x="121" y="-10"/>
      <point x="217" y="-10" type="curve" smooth="yes"/>
      <point x="314" y="-10"/>
      <point x="401" y="48"/>
      <point x="401" y="132" type="curve"/>
      <point x="372" y="167" type="line"/>
      <point x="372" y="107"/>
      <point x="307" y="70"/>
      <point x="237" y="70" type="curve" smooth="yes"/>
      <point x="187" y="70"/>
      <point x="157" y="90"/>
      <point x="157" y="129" type="curve" smooth="yes"/>
      <point x="157" y="172"/>
      <point x="197" y="197"/>
      <point x="274" y="213" type="curve" smooth="yes"/>
      <point x="418" y="242" type="line"/>
      <point x="406" y="306" type="line"/>
    </contour>
    <contour>
      <point x="326" y="-118" type="curve" smooth="yes"/>
      <point x="326" y="-176"/>
      <point x="372" y="-215"/>
      <point x="436" y="-215" type="curve" smooth="yes"/>
      <point x="467" y="-215"/>
      <point x="485" y="-211"/>
      <point x="504" y="-200" type="curve"/>
      <point x="505" y="-138" type="line"/>
      <point x="492" y="-145"/>
      <point x="479" y="-146"/>
      <point x="465" y="-146" type="curve" smooth="yes"/>
      <point x="430" y="-146"/>
      <point x="407" y="-127"/>
      <point x="407" y="-97" type="curve" smooth="yes"/>
      <point x="407" y="-50"/>
      <point x="450" y="-23"/>
      <point x="545" y="1" type="curve"/>
      <point x="491" y="27" type="line"/>
      <point x="400" y="0"/>
      <point x="326" y="-37"/>
    </contour>
    <contour>
      <point x="653" y="500" type="line"/>
      <point x="653" y="-39" type="line" smooth="yes"/>
      <point x="653" y="-102"/>
      <point x="639" y="-123"/>
      <point x="606" y="-123" type="curve" smooth="yes"/>
      <point x="586" y="-123"/>
      <point x="572" y="-120"/>
      <point x="559" y="-113" type="curve"/>
      <point x="541" y="-202" type="line"/>
      <point x="560" y="-210"/>
      <point x="582" y="-215"/>
      <point x="611" y="-215" type="curve" smooth="yes"/>
      <point x="687" y="-215"/>
      <point x="760" y="-178"/>
      <point x="760" y="-46" type="curve" smooth="yes"/>
      <point x="760" y="500" type="line"/>
    </contour>
    <contour>
      <point x="635" y="651" type="curve" smooth="yes"/>
      <point x="635" y="611"/>
      <point x="663" y="584"/>
      <point x="707" y="584" type="curve" smooth="yes"/>
      <point x="750" y="584"/>
      <point x="778" y="611"/>
      <point x="778" y="651" type="curve" smooth="yes"/>
      <point x="778" y="691"/>
      <point x="750" y="717"/>
      <point x="707" y="717" type="curve" smooth="yes"/>
      <point x="663" y="717"/>
      <point x="635" y="691"/>
    </contour>
  </outline>
</glyph>
<glyph name="bar.case" format="2">
  <advance width="266"/>
  <outline>
    <contour>
      <point x="86" y="752" type="line"/>
      <point x="86" y="-97" type="line"/>
      <point x="180" y="-97" type="line"/>
      <point x="180" y="752" type="line"/>
    </contour>
  </outline>
</glyph>
<glyph name="blackSmallSquare.case" format="2">
  <advance width="787"/>
  <outline>
    <contour>
      <point x="64" y="0" type="line"/>
      <point x="724" y="0" type="line"/>
      <point x="724" y="660" type="line"/>
      <point x="64" y="660" type="line"/>
    </contour>
  </outline>
</glyph>
<glyph name="bracketleftsuperior" format="2">
  <advance width="217"/>
  <outline>
    <contour>
      <point x="134" y="810" type="line"/>
      <point x="61" y="810" type="line"/>
      <point x="61" y="253" type="line"/>
      <point x="134" y="253" type="line"/>
    </contour>
    <contour>
      <point x="100" y="748" type="line"/>
      <point x="212" y="748" type="line"/>
      <point x="212" y="810" type="line"/>
      <point x="100" y="810" type="line"/>
    </contour>
    <contour>
      <point x="100" y="253" type="line"/>
      <point x="212" y="253" type="line"/>
      <point x="212" y="315" type="line"/>
      <point x="100" y="315" type="line"/>
    </contour>
  </outline>
</glyph>
<glyph name="c_t" format="2">
  <advance width="920"/>
  <outline>
    <contour>
      <point x="522" y="140" type="curve"/>
      <point x="426" y="172" type="line"/>
      <point x="409" y="110"/>
      <point x="368" y="75"/>
      <point x="303" y="75" type="curve" smooth="yes"/>
      <point x="215" y="75"/>
      <point x="162" y="136"/>
      <point x="162" y="249" type="curve" smooth="yes"/>
      <point x="162" y="362"/>
      <point x="214" y="425"/>
      <point x="303" y="425" type="curve" smooth="yes"/>
      <point x="362" y="425"/>
      <point x="401" y="391"/>
      <point x="418" y="330" type="curve"/>
      <point x="518" y="370" type="line"/>
      <point x="493" y="418"/>
      <point x="466" y="483"/>
      <point x="466" y="546" type="curve" smooth="yes"/>
      <point x="466" y="622"/>
      <point x="497" y="645"/>
      <point x="541" y="645" type="curve" smooth="yes"/>
      <point x="586" y="645"/>
      <point x="618" y="613"/>
      <point x="618" y="533" type="curve" smooth="yes"/>
      <point x="618" y="132" type="line" smooth="yes"/>
      <point x="618" y="29"/>
      <point x="685" y="-10"/>
      <point x="771" y="-10" type="curve" smooth="yes"/>
      <point x="825" y="-10"/>
      <point x="872" y="6"/>
      <point x="903" y="33" type="curve"/>
      <point x="878" y="111" type="line"/>
      <point x="856" y="91"/>
      <point x="832" y="79"/>
      <point x="797" y="79" type="curve" smooth="yes"/>
      <point x="754" y="79"/>
      <point x="725" y="101"/>
      <point x="725" y="150" type="curve" smooth="yes"/>
      <point x="725" y="563" type="line" smooth="yes"/>
      <point x="725" y="681"/>
      <point x="640" y="729"/>
      <point x="549" y="729" type="curve" smooth="yes"/>
      <point x="455" y="729"/>
      <point x="378" y="680"/>
      <point x="378" y="563" type="curve" smooth="yes"/>
      <point x="378" y="509"/>
      <point x="395" y="476"/>
      <point x="418" y="448" type="curve"/>
      <point x="427" y="468" type="line"/>
      <point x="393" y="498"/>
      <point x="353" y="510"/>
      <point x="303" y="510" type="curve" smooth="yes"/>
      <point x="147" y="510"/>
      <point x="54" y="413"/>
      <point x="54" y="250" type="curve" smooth="yes"/>
      <point x="54" y="87"/>
      <point x="147" y="-10"/>
      <point x="305" y="-10" type="curve" smooth="yes"/>
      <point x="421" y="-10"/>
      <point x="496" y="49"/>
    </contour>
    <contour>
      <point x="899" y="416" type="line"/>
      <point x="899" y="500" type="line"/>
      <point x="651" y="500" type="line"/>
      <point x="651" y="416" type="line"/>
    </contour>
  </outline>
</glyph>
<glyph name="caron.alt" format="2">
  <advance width="239"/>
  <anchor x="82" y="725" name="_topright"/>
  <outline>
    <contour>
      <point x="82" y="725" type="line"/>
      <point x="62" y="515" type="line"/>
      <point x="130" y="515" type="line"/>
      <point x="174" y="725" type="line"/>
    </contour>
  </outline>
</glyph>
<glyph name="caroncmb.cap" format="2">
  <anchor x="0" y="660" name="_top"/>
  <outline>
    <contour>
      <point x="76" y="897" type="line"/>
      <point x="0" y="795" type="line"/>
      <point x="-76" y="897" type="line"/>
      <point x="-163" y="897" type="line"/>
      <point x="-56" y="737" type="line"/>
      <point x="56" y="737" type="line"/>
      <point x="163" y="897" type="line"/>
    </contour>
  </outline>
</glyph>
<glyph name="dcroat.sc" format="2">
  <advance width="668"/>
  <anchor x="314" y="0" name="bottom"/>
  <anchor x="314" y="560" name="top"/>
  <anchor x="321" y="0" name="ogonek"/>
  <anchor x="277" y="210" name="center"/>
  <anchor x="307" y="0" name="bottomC"/>
  <outline>
    <contour>
      <point x="20" y="313" type="line"/>
      <point x="20" y="250" type="line"/>
      <point x="360" y="250" type="line"/>
      <point x="360" y="313" type="line"/>
    </contour>
    <component base="d.sc" xOffset="19"/>
  </outline>
</glyph>
<glyph name="dollar.tf" format="2">
  <advance width="604"/>
  <outline>
    <contour>
      <point x="68" y="466" type="curve" smooth="yes"/>
      <point x="68" y="228"/>
      <point x="466" y="339"/>
      <point x="466" y="179" type="curve" smooth="yes"/>
      <point x="466" y="111"/>
      <point x="410" y="81"/>
      <point x="315" y="81" type="curve" smooth="yes"/>
      <point x="229" y="81"/>
      <point x="141" y="132"/>
      <point x="121" y="214" type="curve"/>
      <point x="42" y="158" type="line"/>
      <point x="85" y="55"/>
      <point x="177" y="0"/>
      <point x="315" y="0" type="curve" smooth="yes"/>
      <point x="459" y="0"/>
      <point x="560" y="70"/>
      <point x="560" y="186" type="curve" smooth="yes"/>
      <point x="560" y="426"/>
      <point x="162" y="315"/>
      <point x="162" y="473" type="curve" smooth="yes"/>
      <point x="162" y="538"/>
      <point x="212" y="578"/>
      <point x="313" y="578" type="curve" smooth="yes"/>
      <point x="403" y="578"/>
      <point x="452" y="545"/>
      <point x="490" y="461" type="curve"/>
      <point x="561" y="526" type="line"/>
      <point x="506" y="615"/>
      <point x="441" y="660"/>
      <point x="311" y="660" type="curve" smooth="yes"/>
      <point x="159" y="660"/>
      <point x="68" y="575"/>
    </contour>
    <contour>
      <point x="275" y="756" type="line"/>
      <point x="275" y="-96" type="line"/>
      <point x="352" y="-96" type="line"/>
      <point x="352" y="756" type="line"/>
    </contour>
  </outline>
</glyph>
<glyph name="e.sc" format="2">
  <advance width="575"/>
  <anchor x="299" y="560" name="top"/>
  <anchor x="533" y="0" name="ogonek"/>
  <anchor x="305" y="0" name="bottom"/>
  <anchor x="308" y="0" name="bottomC"/>
  <outline>
    <contour>
      <point x="87" y="560" type="line"/>
      <point x="87" y="0" type="line"/>
      <point x="193" y="0" type="line"/>
      <point x="193" y="560" type="line"/>
    </contour>
    <contour>
      <point x="141" y="84" type="line"/>
      <point x="141" y="0" type="line"/>
      <point x="533" y="0" type="line"/>
      <point x="533" y="84" type="line"/>
    </contour>
    <contour>
      <point x="141" y="324" type="line"/>
      <point x="141" y="242" type="line"/>
      <point x="451" y="242" type="line"/>
      <point x="451" y="324" type="line"/>
    </contour>
    <contour>
      <point x="141" y="560" type="line"/>
      <point x="141" y="476" type="line"/>
      <point x="523" y="476" type="line"/>
      <point x="523" y="560" type="line"/>
    </contour>
  </outline>
</glyph>
<glyph name="eight.osf" format="2">
  <advance width="599"/>
  <outline>
    <contour>
      <point x="82" y="492" type="curve" smooth="yes"/>
      <point x="82" y="424"/>
      <point x="117" y="371"/>
      <point x="177" y="345" type="curve"/>
      <point x="177" y="344" type="line"/>
      <point x="100" y="316"/>
      <point x="54" y="257"/>
      <point x="54" y="178" type="curve" smooth="yes"/>
      <point x="54" y="62"/>
      <point x="150" y="-10"/>
      <point x="300" y="-10" type="curve" smooth="yes"/>
      <point x="449" y="-10"/>
      <point x="546" y="62"/>
      <point x="546" y="178" type="curve" smooth="yes"/>
      <point x="546" y="259"/>
      <point x="498" y="317"/>
      <point x="423" y="344" type="curve"/>
      <point x="423" y="345" type="line"/>
      <point x="483" y="372"/>
      <point x="517" y="425"/>
      <point x="517" y="492" type="curve" smooth="yes"/>
      <point x="517" y="602"/>
      <point x="432" y="669"/>
      <point x="300" y="669" type="curve" smooth="yes"/>
      <point x="167" y="669"/>
      <point x="82" y="602"/>
    </contour>
    <contour>
      <point x="415" y="486" type="curve" smooth="yes"/>
      <point x="415" y="423"/>
      <point x="370" y="385"/>
      <point x="300" y="385" type="curve" smooth="yes"/>
      <point x="229" y="385"/>
      <point x="184" y="423"/>
      <point x="184" y="486" type="curve" smooth="yes"/>
      <point x="184" y="549"/>
      <point x="229" y="586"/>
      <point x="300" y="586" type="curve" smooth="yes"/>
      <point x="370" y="586"/>
      <point x="415" y="549"/>
    </contour>
    <contour>
      <point x="159" y="187" type="curve" smooth="yes"/>
      <point x="159" y="258"/>
      <point x="213" y="302"/>
      <point x="300" y="302" type="curve" smooth="yes"/>
      <point x="386" y="302"/>
      <point x="440" y="258"/>
      <point x="440" y="187" type="curve" smooth="yes"/>
      <point x="440" y="116"/>
      <point x="386" y="73"/>
      <point x="300" y="73" type="curve" smooth="yes"/>
      <point x="213" y="73"/>
      <point x="159" y="116"/>
    </contour>
  </outline>
</glyph>
<glyph name="endashsuperior" format="2">
  <advance width="444"/>
  <outline>
    <contour>
      <point x="53" y="561" type="line"/>
      <point x="53" y="499" type="line"/>
      <point x="390" y="499" type="line"/>
      <point x="390" y="561" type="line"/>
    </contour>
  </outline>
</glyph>
<glyph name="euro.part" format="2">
  <advance width="701"/>
  <outline>
    <contour>
      <point x="127" y="330" type="curve" smooth="yes"/>
      <point x="127" y="120"/>
      <point x="232" y="-10"/>
      <point x="414" y="-10" type="curve" smooth="yes"/>
      <point x="530" y="-10"/>
      <point x="630" y="55"/>
      <point x="665" y="171" type="curve"/>
      <point x="575" y="201" type="line"/>
      <point x="553" y="118"/>
      <point x="486" y="75"/>
      <point x="416" y="75" type="curve" smooth="yes"/>
      <point x="297" y="75"/>
      <point x="230" y="171"/>
      <point x="230" y="330" type="curve" smooth="yes"/>
      <point x="230" y="490"/>
      <point x="304" y="585"/>
      <point x="420" y="585" type="curve" smooth="yes"/>
      <point x="489" y="585"/>
      <point x="548" y="547"/>
      <point x="567" y="474" type="curve"/>
      <point x="656" y="515" type="line"/>
      <point x="621" y="615"/>
      <point x="530" y="670"/>
      <point x="412" y="670" type="curve" smooth="yes"/>
      <point x="234" y="670"/>
      <point x="127" y="540"/>
    </contour>
  </outline>
</glyph>
<glyph name="f_t.liga" format="2">
  <advance width="771"/>
  <anchor x="602" y="0" name="bottom"/>
  <anchor x="510" y="250" name="center"/>
  <anchor x="652" y="767" name="topright"/>
  <outline>
    <contour>
      <point x="121" y="572" type="curve" smooth="yes"/>
      <point x="121" y="0" type="line"/>
      <point x="228" y="0" type="line"/>
      <point x="228" y="464" type="line"/>
      <point x="225" y="491" type="line"/>
      <point x="225" y="564" type="line" smooth="yes"/>
      <point x="225" y="621"/>
      <point x="257" y="645"/>
      <point x="311" y="645" type="curve" smooth="yes"/>
      <point x="334" y="645"/>
      <point x="350" y="641"/>
      <point x="366" y="631" type="curve"/>
      <point x="384" y="708" type="line"/>
      <point x="365" y="723"/>
      <point x="332" y="732"/>
      <point x="293" y="732" type="curve" smooth="yes"/>
      <point x="185" y="732"/>
      <point x="121" y="673"/>
    </contour>
    <contour>
      <point x="27" y="500" type="line"/>
      <point x="27" y="416" type="line"/>
      <point x="387" y="416" type="line"/>
      <point x="387" y="500" type="line"/>
    </contour>
    <contour>
      <point x="468" y="617" type="line"/>
      <point x="468" y="132" type="line" smooth="yes"/>
      <point x="469" y="29"/>
      <point x="535" y="-10"/>
      <point x="621" y="-10" type="curve" smooth="yes"/>
      <point x="675" y="-10"/>
      <point x="722" y="6"/>
      <point x="754" y="33" type="curve"/>
      <point x="729" y="111" type="line"/>
      <point x="707" y="91"/>
      <point x="682" y="79"/>
      <point x="648" y="79" type="curve" smooth="yes"/>
      <point x="604" y="79"/>
      <point x="575" y="101"/>
      <point x="575" y="150" type="curve" smooth="yes"/>
      <point x="575" y="647" type="line"/>
    </contour>
    <contour>
      <point x="373" y="500" type="line"/>
      <point x="373" y="416" type="line"/>
      <point x="750" y="416" type="line"/>
      <point x="750" y="500" type="line"/>
    </contour>
  </outline>
</glyph>
<glyph name="five.sc" format="2">
  <advance width="524"/>
  <outline>
    <contour>
      <point x="155" y="311" type="curve"/>
      <point x="154" y="311" type="line"/>
      <point x="155" y="313"/>
      <point x="159" y="337"/>
      <point x="159" y="339" type="curve"/>
      <point x="175" y="476" type="line"/>
      <point x="446" y="476" type="line"/>
      <point x="446" y="560" type="line"/>
      <point x="94" y="560" type="line"/>
      <point x="58" y="241" type="line"/>
      <point x="142" y="234" type="line"/>
      <point x="166" y="266"/>
      <point x="212" y="281"/>
      <point x="259" y="281" type="curve" smooth="yes"/>
      <point x="329" y="281"/>
      <point x="370" y="244"/>
      <point x="371" y="179" type="curve" smooth="yes"/>
      <point x="372" y="117"/>
      <point x="328" y="77"/>
      <point x="257" y="77" type="curve" smooth="yes"/>
      <point x="183" y="77"/>
      <point x="152" y="110"/>
      <point x="135" y="162" type="curve"/>
      <point x="42" y="113" type="line"/>
      <point x="81" y="31"/>
      <point x="150" y="-8"/>
      <point x="260" y="-8" type="curve" smooth="yes"/>
      <point x="390" y="-8"/>
      <point x="472" y="62"/>
      <point x="472" y="183" type="curve" smooth="yes"/>
      <point x="472" y="288"/>
      <point x="400" y="359"/>
      <point x="290" y="359" type="curve" smooth="yes"/>
      <point x="216" y="359"/>
      <point x="182" y="338"/>
    </contour>
  </outline>
</glyph>
<glyph name="florin.tf" format="2">
  <advance width="604"/>
  <outline>
    <contour>
      <point x="301" y="574" type="curve" smooth="yes"/>
      <point x="205" y="42" type="line" smooth="yes"/>
      <point x="195" y="-14"/>
      <point x="164" y="-42"/>
      <point x="114" y="-42" type="curve" smooth="yes"/>
      <point x="86" y="-42"/>
      <point x="63" y="-35"/>
      <point x="43" y="-21" type="curve"/>
      <point x="27" y="-103" type="line"/>
      <point x="60" y="-123"/>
      <point x="83" y="-128"/>
      <point x="128" y="-128" type="curve" smooth="yes"/>
      <point x="226" y="-128"/>
      <point x="286" y="-73"/>
      <point x="304" y="30" type="curve" smooth="yes"/>
      <point x="399" y="563" type="line" smooth="yes"/>
      <point x="409" y="618"/>
      <point x="439" y="646"/>
      <point x="490" y="646" type="curve" smooth="yes"/>
      <point x="518" y="646"/>
      <point x="540" y="640"/>
      <point x="562" y="625" type="curve"/>
      <point x="576" y="708" type="line"/>
      <point x="544" y="727"/>
      <point x="521" y="733"/>
      <point x="475" y="733" type="curve" smooth="yes"/>
      <point x="379" y="733"/>
      <point x="320" y="678"/>
    </contour>
    <contour>
      <point x="102" y="405" type="line"/>
      <point x="102" y="321" type="line"/>
      <point x="537" y="321" type="line"/>
      <point x="537" y="405" type="line"/>
    </contour>
  </outline>
</glyph>
<glyph name="four.tf" format="2">
  <advance width="604"/>
  <outline>
    <contour>
      <point x="452" y="0" type="line"/>
      <point x="452" y="165" type="line"/>
      <point x="569" y="165" type="line"/>
      <point x="569" y="248" type="line"/>
      <point x="452" y="248" type="line"/>
      <point x="452" y="660" type="line"/>
      <point x="319" y="660" type="line"/>
      <point x="41" y="230" type="line"/>
      <point x="41" y="165" type="line"/>
      <point x="350" y="165" type="line"/>
      <point x="350" y="0" type="line"/>
    </contour>
    <contour>
      <point x="298" y="478" type="line" smooth="yes"/>
      <point x="317" y="506"/>
      <point x="339" y="543"/>
      <point x="353" y="576" type="curve"/>
      <point x="356" y="576" type="line"/>
      <point x="353" y="528"/>
      <point x="352" y="478"/>
      <point x="352" y="436" type="curve" smooth="yes"/>
      <point x="352" y="248" type="line"/>
      <point x="142" y="248" type="line"/>
    </contour>
  </outline>
</glyph>
<glyph name="four.tosf" format="2">
  <advance width="604"/>
  <outline>
    <contour>
      <point x="464" y="-100" type="line"/>
      <point x="464" y="65" type="line"/>
      <point x="573" y="65" type="line"/>
      <point x="573" y="148" type="line"/>
      <point x="464" y="148" type="line"/>
      <point x="464" y="560" type="line"/>
      <point x="331" y="560" type="line"/>
      <point x="44" y="130" type="line"/>
      <point x="44" y="65" type="line"/>
      <point x="362" y="65" type="line"/>
      <point x="362" y="-100" type="line"/>
    </contour>
    <contour>
      <point x="310" y="382" type="line" smooth="yes"/>
      <point x="329" y="410"/>
      <point x="351" y="443"/>
      <point x="366" y="477" type="curve"/>
      <point x="368" y="477" type="line"/>
      <point x="365" y="429"/>
      <point x="364" y="378"/>
      <point x="364" y="336" type="curve" smooth="yes"/>
      <point x="364" y="148" type="line"/>
      <point x="146" y="148" type="line"/>
    </contour>
  </outline>
</glyph>
<glyph name="g.sc" format="2">
  <advance width="648"/>
  <anchor x="338" y="560" name="top"/>
  <anchor x="394" y="0" name="ogonek"/>
  <anchor x="354" y="0" name="bottom"/>
  <anchor x="332" y="0" name="bottomC"/>
  <outline>
    <contour>
      <point x="54" y="280" type="curve" smooth="yes"/>
      <point x="54" y="100"/>
      <point x="162" y="-8"/>
      <point x="326" y="-8" type="curve" smooth="yes"/>
      <point x="471" y="-8"/>
      <point x="534" y="84"/>
      <point x="534" y="195" type="curve"/>
      <point x="492" y="199" type="line"/>
      <point x="492" y="124"/>
      <point x="433" y="76"/>
      <point x="342" y="76" type="curve" smooth="yes"/>
      <point x="225" y="76"/>
      <point x="161" y="149"/>
      <point x="161" y="280" type="curve" smooth="yes"/>
      <point x="161" y="409"/>
      <point x="233" y="482"/>
      <point x="339" y="482" type="curve" smooth="yes"/>
      <point x="411" y="482"/>
      <point x="465" y="452"/>
      <point x="488" y="385" type="curve"/>
      <point x="582" y="427" type="line"/>
      <point x="541" y="522"/>
      <point x="461" y="568"/>
      <point x="337" y="568" type="curve" smooth="yes"/>
      <point x="165" y="568"/>
      <point x="54" y="459"/>
    </contour>
    <contour>
      <point x="329" y="216" type="line"/>
      <point x="492" y="216" type="line"/>
      <point x="492" y="148" type="line"/>
      <point x="504" y="125" type="line"/>
      <point x="510" y="0" type="line"/>
      <point x="587" y="0" type="line"/>
      <point x="587" y="289" type="line"/>
      <point x="329" y="289" type="line"/>
    </contour>
  </outline>
</glyph>
<glyph name="g.sc.ss04" format="2">
  <advance width="643"/>
  <anchor x="337" y="560" name="top"/>
  <anchor x="406" y="0" name="ogonek"/>
  <anchor x="364" y="0" name="bottom"/>
  <anchor x="339" y="0" name="bottomC"/>
  <outline>
    <contour>
      <point x="594" y="249" type="curve" smooth="yes"/>
      <point x="594" y="289" type="line"/>
      <point x="330" y="289" type="line"/>
      <point x="330" y="216" type="line"/>
      <point x="558" y="216" type="line"/>
      <point x="500" y="250" type="line"/>
      <point x="500" y="212" type="line" smooth="yes"/>
      <point x="500" y="151"/>
      <point x="459" y="76"/>
      <point x="343" y="76" type="curve" smooth="yes"/>
      <point x="225" y="76"/>
      <point x="162" y="150"/>
      <point x="162" y="280" type="curve" smooth="yes"/>
      <point x="162" y="408"/>
      <point x="232" y="482"/>
      <point x="339" y="482" type="curve" smooth="yes"/>
      <point x="415" y="482"/>
      <point x="466" y="450"/>
      <point x="487" y="389" type="curve"/>
      <point x="583" y="427" type="line"/>
      <point x="541" y="524"/>
      <point x="459" y="568"/>
      <point x="338" y="568" type="curve" smooth="yes"/>
      <point x="165" y="568"/>
      <point x="55" y="459"/>
      <point x="55" y="280" type="curve" smooth="yes"/>
      <point x="55" y="99"/>
      <point x="163" y="-8"/>
      <point x="336" y="-8" type="curve" smooth="yes"/>
      <point x="505" y="-8"/>
      <point x="594" y="84"/>
    </contour>
  </outline>
</glyph>
<glyph name="g.ss01_j.liga" format="2">
  <advance width="884"/>
  <anchor x="294" y="500" name="top"/>
  <outline>
    <contour>
      <point x="455" y="500" type="line"/>
      <point x="442" y="381" type="line"/>
      <point x="438" y="363" type="line"/>
      <point x="438" y="15" type="line" smooth="yes"/>
      <point x="438" y="-75"/>
      <point x="380" y="-134"/>
      <point x="298" y="-134" type="curve" smooth="yes"/>
      <point x="222" y="-134"/>
      <point x="183" y="-106"/>
      <point x="173" y="-49" type="curve"/>
      <point x="71" y="-85" type="line"/>
      <point x="89" y="-179"/>
      <point x="177" y="-215"/>
      <point x="284" y="-215" type="curve" smooth="yes"/>
      <point x="452" y="-215"/>
      <point x="546" y="-136"/>
      <point x="546" y="40" type="curve" smooth="yes"/>
      <point x="546" y="383" type="line"/>
      <point x="546" y="500" type="line"/>
    </contour>
    <contour>
      <point x="55" y="257" type="curve" smooth="yes"/>
      <point x="55" y="98"/>
      <point x="141" y="4"/>
      <point x="277" y="4" type="curve" smooth="yes"/>
      <point x="394" y="4"/>
      <point x="469" y="84"/>
      <point x="469" y="182" type="curve"/>
      <point x="438" y="252" type="line"/>
      <point x="438" y="151"/>
      <point x="384" y="91"/>
      <point x="301" y="91" type="curve" smooth="yes"/>
      <point x="215" y="91"/>
      <point x="163" y="152"/>
      <point x="163" y="257" type="curve" smooth="yes"/>
      <point x="163" y="362"/>
      <point x="215" y="423"/>
      <point x="301" y="423" type="curve" smooth="yes"/>
      <point x="385" y="423"/>
      <point x="438" y="362"/>
      <point x="438" y="263" type="curve"/>
      <point x="466" y="332" type="line"/>
      <point x="466" y="431"/>
      <point x="394" y="510"/>
      <point x="277" y="510" type="curve" smooth="yes"/>
      <point x="141" y="510"/>
      <point x="55" y="416"/>
    </contour>
    <contour>
      <point x="713" y="500" type="line"/>
      <point x="713" y="-38" type="line" smooth="yes"/>
      <point x="713" y="-101"/>
      <point x="686" y="-123"/>
      <point x="648" y="-123" type="curve" smooth="yes"/>
      <point x="617" y="-123"/>
      <point x="593" y="-111"/>
      <point x="576" y="-96" type="curve"/>
      <point x="556" y="-185" type="line"/>
      <point x="581" y="-203"/>
      <point x="614" y="-215"/>
      <point x="654" y="-215" type="curve" smooth="yes"/>
      <point x="731" y="-215"/>
      <point x="820" y="-178"/>
      <point x="820" y="-46" type="curve" smooth="yes"/>
      <point x="820" y="500" type="line"/>
    </contour>
    <contour>
      <point x="695" y="651" type="curve" smooth="yes"/>
      <point x="695" y="611"/>
      <point x="723" y="584"/>
      <point x="766" y="584" type="curve" smooth="yes"/>
      <point x="810" y="584"/>
      <point x="838" y="611"/>
      <point x="838" y="651" type="curve" smooth="yes"/>
      <point x="838" y="691"/>
      <point x="810" y="717"/>
      <point x="766" y="717" type="curve" smooth="yes"/>
      <point x="723" y="717"/>
      <point x="695" y="691"/>
    </contour>
  </outline>
</glyph>
<glyph name="gbase" format="2">
  <advance width="543"/>
  <outline>
    <contour>
      <point x="59" y="108" type="curve" smooth="yes"/>
      <point x="59" y="27"/>
      <point x="152" y="-11"/>
      <point x="225" y="-11" type="curve" smooth="yes"/>
      <point x="357" y="-11" type="line" smooth="yes"/>
      <point x="427" y="-11"/>
      <point x="450" y="-30"/>
      <point x="450" y="-62" type="curve" smooth="yes"/>
      <point x="450" y="-101"/>
      <point x="399" y="-135"/>
      <point x="292" y="-135" type="curve" smooth="yes"/>
      <point x="180" y="-135"/>
      <point x="129" y="-110"/>
      <point x="129" y="-67" type="curve" smooth="yes"/>
      <point x="129" y="-32"/>
      <point x="162" y="-11"/>
      <point x="226" y="-11" type="curve"/>
      <point x="197" y="26" type="line"/>
      <point x="96" y="26"/>
      <point x="39" y="-20"/>
      <point x="39" y="-87" type="curve" smooth="yes"/>
      <point x="39" y="-161"/>
      <point x="112" y="-215"/>
      <point x="282" y="-215" type="curve" smooth="yes"/>
      <point x="432" y="-215"/>
      <point x="540" y="-154"/>
      <point x="540" y="-50" type="curve" smooth="yes"/>
      <point x="540" y="30"/>
      <point x="479" y="78"/>
      <point x="374" y="78" type="curve" smooth="yes"/>
      <point x="234" y="78" type="line" smooth="yes"/>
      <point x="172" y="78"/>
      <point x="147" y="97"/>
      <point x="147" y="129" type="curve" smooth="yes"/>
      <point x="147" y="161"/>
      <point x="172" y="182"/>
      <point x="237" y="184" type="curve"/>
      <point x="193" y="217" type="line"/>
      <point x="117" y="213"/>
      <point x="59" y="172"/>
    </contour>
    <contour>
      <point x="65" y="341" type="curve" smooth="yes"/>
      <point x="65" y="236"/>
      <point x="148" y="172"/>
      <point x="284" y="172" type="curve" smooth="yes"/>
      <point x="419" y="172"/>
      <point x="503" y="236"/>
      <point x="503" y="341" type="curve" smooth="yes"/>
      <point x="503" y="445"/>
      <point x="419" y="510"/>
      <point x="284" y="510" type="curve" smooth="yes"/>
      <point x="148" y="510"/>
      <point x="65" y="445"/>
    </contour>
    <contour>
      <point x="395" y="341" type="curve" smooth="yes"/>
      <point x="395" y="283"/>
      <point x="354" y="248"/>
      <point x="284" y="248" type="curve" smooth="yes"/>
      <point x="213" y="248"/>
      <point x="172" y="283"/>
      <point x="172" y="341" type="curve" smooth="yes"/>
      <point x="172" y="399"/>
      <point x="213" y="434"/>
      <point x="284" y="434" type="curve" smooth="yes"/>
      <point x="354" y="434"/>
      <point x="395" y="399"/>
    </contour>
  </outline>
</glyph>
<glyph name="germandbls.sc" format="2">
  <advance width="638"/>
  <anchor x="345" y="560" name="top"/>
  <anchor x="458" y="0" name="ogonek"/>
  <anchor x="345" y="0" name="bottom"/>
  <anchor x="416" y="0" name="bottomC"/>
  <outline>
    <contour>
      <point x="194" y="0" type="line"/>
      <point x="194" y="355" type="line" smooth="yes"/>
      <point x="194" y="427"/>
      <point x="247" y="475"/>
      <point x="316" y="475" type="curve" smooth="yes"/>
      <point x="462" y="475" type="line"/>
      <point x="310" y="310" type="line"/>
      <point x="373" y="270" type="line"/>
      <point x="569" y="476" type="line"/>
      <point x="569" y="560" type="line"/>
      <point x="306" y="560" type="line" smooth="yes"/>
      <point x="177" y="560"/>
      <point x="87" y="481"/>
      <point x="87" y="360" type="curve" smooth="yes"/>
      <point x="87" y="0" type="line"/>
    </contour>
    <contour>
      <point x="604" y="158" type="curve" smooth="yes"/>
      <point x="604" y="261"/>
      <point x="529" y="310"/>
      <point x="420" y="310" type="curve" smooth="yes"/>
      <point x="310" y="310" type="line"/>
      <point x="310" y="240" type="line"/>
      <point x="389" y="240" type="line" smooth="yes"/>
      <point x="459" y="240"/>
      <point x="503" y="224"/>
      <point x="503" y="159" type="curve" smooth="yes"/>
      <point x="503" y="109"/>
      <point x="463" y="77"/>
      <point x="402" y="77" type="curve" smooth="yes"/>
      <point x="358" y="77"/>
      <point x="322" y="96"/>
      <point x="298" y="118" type="curve"/>
      <point x="263" y="48" type="line"/>
      <point x="290" y="18"/>
      <point x="342" y="-4"/>
      <point x="418" y="-4" type="curve" smooth="yes"/>
      <point x="527" y="-4"/>
      <point x="604" y="57"/>
    </contour>
  </outline>
</glyph>
<glyph name="iacute_j.loclNLD" format="2">
  <advance width="547"/>
  <anchor x="137" y="500" name="top"/>
  <anchor x="187" y="2" name="ogonek"/>
  <anchor x="137" y="0" name="bottom"/>
  <anchor x="137" y="0" name="bottomC"/>
  <outline>
    <contour>
      <point x="357" y="500" type="line"/>
      <point x="357" y="-34" type="line" smooth="yes"/>
      <point x="357" y="-101"/>
      <point x="328" y="-124"/>
      <point x="285" y="-124" type="curve" smooth="yes"/>
      <point x="253" y="-124"/>
      <point x="227" y="-111"/>
      <point x="209" y="-96" type="curve"/>
      <point x="190" y="-182" type="line"/>
      <point x="216" y="-202"/>
      <point x="254" y="-215"/>
      <point x="299" y="-215" type="curve" smooth="yes"/>
      <point x="383" y="-215"/>
      <point x="464" y="-172"/>
      <point x="464" y="-44" type="curve" smooth="yes"/>
      <point x="464" y="500" type="line"/>
    </contour>
    <component base="iacute"/>
    <component base="acute" xOffset="161"/>
  </outline>
</glyph>
<glyph name="idieresis.sc" format="2">
  <advance width="280"/>
  <anchor x="140" y="0" name="bottomC"/>
  <anchor x="140" y="560" name="top"/>
  <anchor x="194" y="0" name="ogonek"/>
  <anchor x="140" y="0" name="bottom"/>
  <outline>
    <contour>
      <point x="-11" y="697" type="curve" smooth="yes"/>
      <point x="-11" y="659"/>
      <point x="14" y="634"/>
      <point x="53" y="634" type="curve" smooth="yes"/>
      <point x="92" y="634"/>
      <point x="118" y="659"/>
      <point x="118" y="697" type="curve" smooth="yes"/>
      <point x="118" y="736"/>
      <point x="92" y="760"/>
      <point x="53" y="760" type="curve" smooth="yes"/>
      <point x="14" y="760"/>
      <point x="-11" y="736"/>
    </contour>
    <contour>
      <point x="162" y="697" type="curve" smooth="yes"/>
      <point x="162" y="659"/>
      <point x="187" y="634"/>
      <point x="227" y="634" type="curve" smooth="yes"/>
      <point x="266" y="634"/>
      <point x="292" y="659"/>
      <point x="292" y="697" type="curve" smooth="yes"/>
      <point x="292" y="736"/>
      <point x="266" y="760"/>
      <point x="227" y="760" type="curve" smooth="yes"/>
      <point x="187" y="760"/>
      <point x="162" y="736"/>
    </contour>
    <component base="i.sc"/>
  </outline>
</glyph>
<glyph name="indexring" format="2">
  <advance width="910"/>
  <anchor x="455" y="330" name="indexring"/>
  <outline>
    <contour>
      <point x="831" y="330" type="curve" smooth="yes"/>
      <point x="831" y="551"/>
      <point x="680" y="700"/>
      <point x="455" y="700" type="curve" smooth="yes"/>
      <point x="230" y="700"/>
      <point x="79" y="551"/>
      <point x="79" y="330" type="curve" smooth="yes"/>
      <point x="79" y="109"/>
      <point x="230" y="-40"/>
      <point x="455" y="-40" type="curve" smooth="yes"/>
      <point x="680" y="-40"/>
      <point x="831" y="109"/>
    </contour>
    <contour>
      <point x="152" y="330" type="curve" smooth="yes"/>
      <point x="152" y="512"/>
      <point x="275" y="634"/>
      <point x="455" y="634" type="curve" smooth="yes"/>
      <point x="635" y="634"/>
      <point x="758" y="512"/>
      <point x="758" y="330" type="curve" smooth="yes"/>
      <point x="758" y="148"/>
      <point x="635" y="26"/>
      <point x="455" y="26" type="curve" smooth="yes"/>
      <point x="275" y="26"/>
      <point x="152" y="148"/>
    </contour>
  </outline>
</glyph>
<glyph name="iogonek_j" format="2">
  <advance width="547"/>
  <anchor x="187" y="2" name="ogonek_1"/>
  <anchor x="373" y="-204" name="ogonek_2"/>
  <anchor x="137" y="0" name="bottomC_1"/>
  <anchor x="353" y="-210" name="bottomC_2"/>
  <anchor x="137" y="0" name="bottom_1"/>
  <anchor x="353" y="-210" name="bottom_2"/>
  <anchor x="137" y="707" name="top_1"/>
  <anchor x="410" y="707" name="top_2"/>
  <outline>
    <contour>
      <point x="203" y="-191" type="curve"/>
      <point x="198" y="-128" type="line"/>
      <point x="182" y="-140"/>
      <point x="162" y="-146"/>
      <point x="137" y="-146" type="curve" smooth="yes"/>
      <point x="104" y="-146"/>
      <point x="85" y="-131"/>
      <point x="85" y="-101" type="curve" smooth="yes"/>
      <point x="85" y="-64"/>
      <point x="107" y="-36"/>
      <point x="190" y="0" type="curve"/>
      <point x="131" y="19" type="line"/>
      <point x="41" y="-16"/>
      <point x="7" y="-56"/>
      <point x="7" y="-119" type="curve" smooth="yes"/>
      <point x="7" y="-176"/>
      <point x="44" y="-215"/>
      <point x="118" y="-215" type="curve" smooth="yes"/>
      <point x="154" y="-215"/>
      <point x="181" y="-206"/>
    </contour>
    <component base="i"/>
    <component base="j.ogonek" xOffset="227"/>
  </outline>
</glyph>
<glyph name="j.sc" format="2">
  <advance width="533"/>
  <anchor x="400" y="560" name="top"/>
  <anchor x="307" y="0" name="ogonek"/>
  <anchor x="247" y="0" name="bottom"/>
  <anchor x="245" y="0" name="bottomC"/>
  <outline>
    <contour>
      <point x="347" y="560" type="line"/>
      <point x="347" y="216" type="line" smooth="yes"/>
      <point x="347" y="126"/>
      <point x="319" y="79"/>
      <point x="234" y="79" type="curve" smooth="yes"/>
      <point x="156" y="79"/>
      <point x="128" y="122"/>
      <point x="142" y="223" type="curve"/>
      <point x="41" y="204" type="line"/>
      <point x="16" y="78"/>
      <point x="85" y="-8"/>
      <point x="235" y="-8" type="curve" smooth="yes"/>
      <point x="375" y="-8"/>
      <point x="454" y="66"/>
      <point x="454" y="202" type="curve" smooth="yes"/>
      <point x="454" y="560" type="line"/>
    </contour>
  </outline>
</glyph>
<glyph name="j_j.liga" format="2">
  <advance width="546"/>
  <outline>
    <contour>
      <point x="83" y="500" type="line"/>
      <point x="83" y="-34" type="line" smooth="yes"/>
      <point x="83" y="-101"/>
      <point x="55" y="-124"/>
      <point x="12" y="-124" type="curve" smooth="yes"/>
      <point x="-20" y="-124"/>
      <point x="-47" y="-111"/>
      <point x="-65" y="-96" type="curve"/>
      <point x="-84" y="-182" type="line"/>
      <point x="-57" y="-202"/>
      <point x="-19" y="-215"/>
      <point x="26" y="-215" type="curve" smooth="yes"/>
      <point x="110" y="-215"/>
      <point x="190" y="-172"/>
      <point x="190" y="-44" type="curve" smooth="yes"/>
      <point x="190" y="500" type="line"/>
    </contour>
    <contour>
      <point x="356" y="500" type="line"/>
      <point x="356" y="-38" type="line" smooth="yes"/>
      <point x="356" y="-101"/>
      <point x="330" y="-123"/>
      <point x="292" y="-123" type="curve" smooth="yes"/>
      <point x="261" y="-123"/>
      <point x="236" y="-111"/>
      <point x="219" y="-96" type="curve"/>
      <point x="200" y="-185" type="line"/>
      <point x="225" y="-203"/>
      <point x="258" y="-215"/>
      <point x="298" y="-215" type="curve" smooth="yes"/>
      <point x="374" y="-215"/>
      <point x="463" y="-178"/>
      <point x="463" y="-46" type="curve" smooth="yes"/>
      <point x="463" y="500" type="line"/>
    </contour>
    <contour>
      <point x="65" y="651" type="curve" smooth="yes"/>
      <point x="65" y="611"/>
      <point x="93" y="584"/>
      <point x="137" y="584" type="curve" smooth="yes"/>
      <point x="180" y="584"/>
      <point x="208" y="611"/>
      <point x="208" y="651" type="curve" smooth="yes"/>
      <point x="208" y="691"/>
      <point x="180" y="717"/>
      <point x="137" y="717" type="curve" smooth="yes"/>
      <point x="93" y="717"/>
      <point x="65" y="691"/>
    </contour>
    <contour>
      <point x="338" y="651" type="curve" smooth="yes"/>
      <point x="338" y="611"/>
      <point x="366" y="584"/>
      <point x="410" y="584" type="curve" smooth="yes"/>
      <point x="454" y="584"/>
      <point x="482" y="611"/>
      <point x="482" y="651" type="curve" smooth="yes"/>
      <point x="482" y="691"/>
      <point x="454" y="717"/>
      <point x="410" y="717" type="curve" smooth="yes"/>
      <point x="366" y="717"/>
      <point x="338" y="691"/>
    </contour>
  </outline>
</glyph>
<glyph name="k.sc" format="2">
  <advance width="610"/>
  <anchor x="322" y="560" name="top"/>
  <anchor x="591" y="0" name="ogonek"/>
  <anchor x="336" y="0" name="bottom"/>
  <anchor x="537" y="0" name="bottomC"/>
  <outline>
    <contour>
      <point x="462" y="560" type="line"/>
      <point x="144" y="235" type="line"/>
      <point x="154" y="130" type="line"/>
      <point x="306" y="281" type="line"/>
      <point x="318" y="279" type="line"/>
      <point x="585" y="560" type="line"/>
    </contour>
    <contour>
      <point x="87" y="560" type="line"/>
      <point x="87" y="0" type="line"/>
      <point x="193" y="0" type="line"/>
      <point x="193" y="560" type="line"/>
    </contour>
    <contour>
      <point x="260" y="305" type="line"/>
      <point x="464" y="0" type="line"/>
      <point x="591" y="0" type="line"/>
      <point x="342" y="363" type="line"/>
    </contour>
  </outline>
</glyph>
<glyph name="l.sc" format="2">
  <advance width="586"/>
  <anchor x="325" y="0" name="bottom"/>
  <anchor x="147" y="560" name="top"/>
  <anchor x="515" y="0" name="ogonek"/>
  <anchor x="299" y="560" name="topright"/>
  <anchor x="325" y="0" name="bottomC"/>
  <outline>
    <contour>
      <point x="87" y="560" type="line"/>
      <point x="87" y="0" type="line"/>
      <point x="194" y="0" type="line"/>
      <point x="194" y="560" type="line"/>
    </contour>
    <contour>
      <point x="141" y="87" type="line"/>
      <point x="141" y="0" type="line"/>
      <point x="515" y="0" type="line"/>
      <point x="515" y="87" type="line"/>
    </contour>
  </outline>
</glyph>
<glyph name="l.ss02" format="2">
  <advance width="277"/>
  <anchor x="138" y="0" name="bottom"/>
  <anchor x="138" y="725" name="top"/>
  <anchor x="189" y="2" name="ogonek"/>
  <anchor x="267" y="725" name="topright"/>
  <anchor x="138" y="0" name="bottomC"/>
  <outline>
    <contour>
      <point x="85" y="725" type="line"/>
      <point x="85" y="0" type="line"/>
      <point x="192" y="0" type="line"/>
      <point x="192" y="725" type="line"/>
    </contour>
  </outline>
</glyph>
<glyph name="longs_l.ss02" format="2">
  <advance width="552"/>
  <anchor x="413" y="0" name="bottomC"/>
  <anchor x="413" y="725" name="top"/>
  <anchor x="463" y="2" name="ogonek"/>
  <anchor x="541" y="725" name="topright"/>
  <anchor x="413" y="0" name="bottom"/>
  <outline>
    <contour>
      <point x="186" y="0" type="line"/>
      <point x="186" y="563" type="line" smooth="yes"/>
      <point x="186" y="621"/>
      <point x="212" y="645"/>
      <point x="256" y="645" type="curve" smooth="yes"/>
      <point x="274" y="645"/>
      <point x="288" y="641"/>
      <point x="300" y="631" type="curve"/>
      <point x="315" y="709" type="line"/>
      <point x="298" y="724"/>
      <point x="272" y="732"/>
      <point x="232" y="732" type="curve" smooth="yes"/>
      <point x="130" y="732"/>
      <point x="80" y="673"/>
      <point x="80" y="572" type="curve" smooth="yes"/>
      <point x="80" y="0" type="line"/>
    </contour>
    <component base="l.ss02" xOffset="275"/>
  </outline>
</glyph>
